{
.appVersion = "3108";
.formatVersion = 3;
customParameters = (
{
name = vendorID;
value = LVSH;
},
{
name = panose;
value = (
2,
0,
0,
9,
0,
0,
0,
0,
0,
0
);
},
{
name = unicodeRanges;
value = (
0,
1,
2,
3,
5,
6,
7,
29,
31,
32,
33,
35,
38,
45
);
},
{
name = codePageRanges;
value = (
"1252",
"1250",
"1254",
"1257",
"bit 29"
);
},
{
name = fsType;
value = (
);
},
{
name = glyphOrder;
value = (
.notdef,
.null,
uni000D,
space,
A,
Aacute,
Abreve,
Acircumflex,
Adieresis,
Agrave,
Amacron,
Aogonek,
Aring,
Atilde,
AE,
B,
C,
Cacute,
Ccaron,
Ccedilla,
Ccircumflex,
Cdotaccent,
D,
Eth,
Dcaron,
Dcroat,
E,
Eacute,
Ebreve,
Ecaron,
Ecircumflex,
Edieresis,
Edotaccent,
Egrave,
Emacron,
Eogonek,
F,
G,
Gbreve,
Gcircumflex,
uni0122,
Gdotaccent,
H,
Hbar,
Hcircumflex,
I,
IJ,
Iacute,
Ibreve,
Icircumflex,
Idieresis,
Idotaccent,
Igrave,
Imacron,
Iogonek,
Itilde,
J,
Jcircumflex,
K,
uni0136,
L,
Lacute,
Lcaron,
uni013B,
Ldot,
Lslash,
M,
N,
Nacute,
Ncaron,
uni0145,
Eng,
Ntilde,
O,
Oacute,
Obreve,
Ocircumflex,
Odieresis,
Ograve,
Ohungarumlaut,
Omacron,
Oslash,
Otilde,
OE,
P,
Thorn,
Q,
R,
Racute,
Rcaron,
uni0156,
S,
Sacute,
Scaron,
Scedilla,
Scircumflex,
uni0218,
T,
Tbar,
Tcaron,
uni0162,
uni021A,
U,
Uacute,
Ubreve,
Ucircumflex,
Udieresis,
Ugrave,
Uhungarumlaut,
Umacron,
Uogonek,
Uring,
Utilde,
V,
W,
Wacute,
Wcircumflex,
Wdieresis,
Wgrave,
X,
Y,
Yacute,
Ycircumflex,
Ydieresis,
Ygrave,
Z,
Zacute,
Zcaron,
Zdotaccent,
a,
aacute,
abreve,
acircumflex,
adieresis,
agrave,
amacron,
aogonek,
aring,
atilde,
ae,
b,
c,
cacute,
ccaron,
ccedilla,
ccircumflex,
cdotaccent,
d,
eth,
dcaron,
dcroat,
e,
eacute,
ebreve,
ecaron,
ecircumflex,
edieresis,
edotaccent,
egrave,
emacron,
eogonek,
f,
g,
gbreve,
gcircumflex,
uni0123,
gdotaccent,
h,
hbar,
hcircumflex,
i,
dotlessi,
iacute,
ibreve,
icircumflex,
idieresis,
idotaccent,
igrave,
ij,
imacron,
iogonek,
itilde,
j,
uni0237,
jcircumflex,
k,
uni0137,
l,
lacute,
lcaron,
uni013C,
ldot,
lslash,
m,
n,
nacute,
ncaron,
uni0146,
eng,
ntilde,
o,
oacute,
obreve,
ocircumflex,

glyphs = (
{
glyphname = A;
lastChange = "2022-05-04 00:13:31 +0000";
layers = (
{
layerId = m01;
shapes = (
{
closed = 1;
nodes = (
(87,95,o),
(86,95,o),
(86,93,qs),
(85,87,o),
(81,67,o),
(81,60,qs),
(81,45,o),
(104,19,o),
(138,-1,o),
(176,-12,o),
(192,-12,qs),
(240,-12,o),
(256,42,qs),
(399,496,l),
(401,505,o),
(405,515,qs),
(406,519,o),
(409,525,o),
(410,528,qs),
(460,699,o),
(559,1037,o),
(611,1208,q),
(599,1208,l),
(603,1208,l),
(591,1208,l),
(802,494,ls),
(815,455,o),
(838,382,o),
(858,322,o),
(872,278,o),
(875,269,qs),
(893,214,o),
(927,98,o),
(946,42,qs),
(961,-12,o),
(1009,-12,qs),
(1022,-12,o),
(1062,-2,o),
(1097,16,o),
(1121,44,o),
(1121,63,qs),
(1121,76,o),
(1114,97,qs),
(1090,174,o),
(1031,361,o),
(966,562,o),
(901,768,o),
(839,960,o),
(786,1128,o),
(747,1253,o),
(724,1326,o),
(724,1326,q),
(711,1363,o),
(659,1400,o),
(601,1400,qs),
(551,1400,o),
(491,1369,o),
(478,1325,qs),
(87,97,l)
);
},
{
closed = 1;
nodes = (
(892,382,l),
(892,549,l),
(314,549,l),
(314,382,l)
);
}
);
userData = {
assembly = "PUSHW[ ]	/* 1 value pushed */
0 
CALL[ ]	/* CallFunction */
SVTCA[0]	/* SetFreedomAndProjectionVectorToAxis */
PUSHW[ ]	/* 1 value pushed */
3 
MDAP[1]	/* MoveDirectAbsPt */
PUSHW[ ]	/* 1 value pushed */
0 
RCVT[ ]	/* ReadCVT */
IF[ ]	/* If */
PUSHW[ ]	/* 1 value pushed */
22 
MDAP[1]	/* MoveDirectAbsPt */
ELSE[ ]	/* Else */
PUSHW[ ]	/* 2 values pushed */
22 21 
MIAP[0]	/* MoveIndirectAbsPt */
EIF[ ]	/* EndIf */
PUSHW[ ]	/* 1 value pushed */
0 
RCVT[ ]	/* ReadCVT */
IF[ ]	/* If */
PUSHW[ ]	/* 1 value pushed */
47 
MDAP[1]	/* MoveDirectAbsPt */
ELSE[ ]	/* Else */
PUSHW[ ]	/* 2 values pushed */
47 21 
MIAP[0]	/* MoveIndirectAbsPt */
EIF[ ]	/* EndIf */
PUSHW[ ]	/* 3 values pushed */
60 61 3 
CALL[ ]	/* CallFunction */
PUSHW[ ]	/* 3 values pushed */
33 22 3 
SRP1[ ]	/* SetRefPoint1 */
SRP2[ ]	/* SetRefPoint2 */
IP[ ]	/* InterpolatePts */
PUSHW[ ]	/* 3 values pushed */
36 22 3 
SRP1[ ]	/* SetRefPoint1 */
SRP2[ ]	/* SetRefPoint2 */
IP[ ]	/* InterpolatePts */
IUP[0]	/* InterpolateUntPts */
IUP[1]	/* InterpolateUntPts */";
};
width = 1204;
}
);
note = A;
unicode = 65;
},
{
glyphname = AE;
lastChange = "2022-05-04 00:13:31 +0000";
layers = (
{
layerId = m01;
shapes = (
{
closed = 1;
nodes = (
(468,1374,o),
(424,1340,o),
(409,1296,qs),
(9,97,ls),
(2,76,o),
(2,60,qs),
(2,43,o),
(25,16,o),
(59,-2,o),
(97,-12,o),
(111,-12,qs),
(159,-12,o),
(176,42,qs),
(328,494,l),
(330,505,o),
(336,525,o),
(339,535,qs),
(343,545,ls),
(360,600,o),
(404,739,o),
(449,883,o),
(493,1024,o),
(528,1134,o),
(550,1204,o),
(551,1208,q),
(540,1208,l),
(625,1208,l),
(625,1374,l),
(508,1374,ls)
);
},
{
closed = 1;
nodes = (
(625,428,l),
(625,595,l),
(235,595,l),
(235,428,l)
);
},
{
closed = 1;
nodes = (
(1091,0,ls),
(1131,0,o),
(1165,38,o),
(1165,83,qs),
(1165,129,o),
(1131,167,o),
(1091,167,qs),
(655,167,l),
(655,0,l)
);
},
{
closed = 1;
nodes = (
(551,35,o),
(586,0,o),
(626,0,qs),
(725,0,l),
(725,1374,l),
(551,1374,l),
(551,79,ls)
);
},
{
closed = 1;
nodes = (
(1027,625,ls),
(1068,625,o),
(1101,663,o),
(1101,709,qs),
(1101,754,o),
(1068,792,o),
(1027,792,qs),
(655,792,l),
(655,625,l)
);
},
{
closed = 1;
nodes = (
(1071,1208,ls),
(1112,1208,o),
(1145,1246,o),
(1145,1291,qs),
(1145,1336,o),
(1112,1374,o),
(1071,1374,qs),
(655,1374,l),
(655,1208,l)
);
}
);
userData = {
assembly = "PUSHW[ ]	/* 1 value pushed */
0 
CALL[ ]	/* CallFunction */
SVTCA[0]	/* SetFreedomAndProjectionVectorToAxis */
PUSHW[ ]	/* 1 value pushed */
0 
RCVT[ ]	/* ReadCVT */
IF[ ]	/* If */
PUSHW[ ]	/* 1 value pushed */
17 
MDAP[1]	/* MoveDirectAbsPt */
ELSE[ ]	/* Else */
PUSHW[ ]	/* 2 values pushed */
17 21 
MIAP[0]	/* MoveIndirectAbsPt */
EIF[ ]	/* EndIf */
PUSHW[ ]	/* 1 value pushed */
0 
RCVT[ ]	/* ReadCVT */
IF[ ]	/* If */
PUSHW[ ]	/* 1 value pushed */
40 
MDAP[1]	/* MoveDirectAbsPt */
ELSE[ ]	/* Else */
PUSHW[ ]	/* 2 values pushed */
40 21 
MIAP[0]	/* MoveIndirectAbsPt */
EIF[ ]	/* EndIf */
PUSHW[ ]	/* 1 value pushed */
0 
RCVT[ ]	/* ReadCVT */
IF[ ]	/* If */
PUSHW[ ]	/* 1 value pushed */
44 
MDAP[1]	/* MoveDirectAbsPt */
ELSE[ ]	/* Else */
PUSHW[ ]	/* 2 values pushed */
44 21 
MIAP[0]	/* MoveIndirectAbsPt */
EIF[ ]	/* EndIf */
PUSHW[ ]	/* 3 values pushed */
0 1 3 
CALL[ ]	/* CallFunction */
PUSHW[ ]	/* 3 values pushed */
30 31 3 
CALL[ ]	/* CallFunction */
PUSHW[ ]	/* 3 values pushed */
50 56 3 
CALL[ ]	/* CallFunction */
PUSHW[ ]	/* 1 value pushed */
1 
SRP0[ ]	/* SetRefPoint0 */
PUSHW[ ]	/* 1 value pushed */
3 
MDRP[10000]	/* MoveDirectRelPt */
PUSHW[ ]	/* 1 value pushed */
44 
SRP0[ ]	/* SetRefPoint0 */
PUSHW[ ]	/* 1 value pushed */
33 
MDRP[11100]	/* MoveDirectRelPt */
PUSHW[ ]	/* 1 value pushed */
34 
MDRP[10000]	/* MoveDirectRelPt */
PUSHW[ ]	/* 1 value pushed */
0 
SRP0[ ]	/* SetRefPoint0 */
PUSHW[ ]	/* 1 value pushed */
42 
MDRP[10000]	/* MoveDirectRelPt */
PUSHW[ ]	/* 1 value pushed */
0 
SRP0[ ]	/* SetRefPoint0 */
PUSHW[ ]	/* 1 value pushed */
58 
MDRP[10000]	/* MoveDirectRelPt */
PUSHW[ ]	/* 1 value pushed */
1 
SRP0[ ]	/* SetRefPoint0 */
PUSHW[ ]	/* 1 value pushed */
65 
MDRP[10000]	/* MoveDirectRelPt */
SVTCA[1]	/* SetFreedomAndProjectionVectorToAxis */
PUSHW[ ]	/* 3 values pushed */
43 42 3 
CALL[ ]	/* CallFunction */
IUP[0]	/* InterpolateUntPts */
IUP[1]	/* InterpolateUntPts */";
};
width = 1204;
}
);
note = AE;
unicode = 198;
},
{
glyphname = B;
lastChange = "2022-05-04 00:13:31 +0000";
layers = (
{
layerId = m01;
shapes = (
{
closed = 1;
nodes = (
(220,1374,o),
(185,1340,o),
(185,1296,qs),
(185,79,ls),
(185,35,o),
(220,0,o),
(261,0,qs),
(679,0,ls),
(772,0,o),
(919,53,o),
(1019,153,o),
(1071,295,o),
(1071,383,qs),
(1071,516,o),
(960,679,o),
(865,721,q),
(863,721,l),
(866,721,l),
(932,767,o),
(1005,901,o),
(1005,1002,qs),
(1005,1081,o),
(958,1217,o),
(864,1318,o),
(725,1374,o),
(633,1374,qs),
(261,1374,ls)
);
},
{
closed = 1;
nodes = (
(769,167,o),
(659,167,qs),
(359,167,l),
(359,615,l),
(654,615,ls),
(772,615,o),
(894,504,o),
(894,391,qs),
(894,277,o)
);
},
{
closed = 1;
nodes = (
(720,782,o),
(611,782,qs),
(359,782,l),
(359,1208,l),
(611,1208,ls),
(721,1208,o),
(828,1099,o),
(828,996,qs),
(828,892,o)
);
}
);
userData = {
assembly = "PUSHW[ ]	/* 1 value pushed */
0 
CALL[ ]	/* CallFunction */
SVTCA[0]	/* SetFreedomAndProjectionVectorToAxis */
PUSHW[ ]	/* 1 value pushed */
0 
RCVT[ ]	/* ReadCVT */
IF[ ]	/* If */
PUSHW[ ]	/* 1 value pushed */
18 
MDAP[1]	/* MoveDirectAbsPt */
ELSE[ ]	/* Else */
PUSHW[ ]	/* 2 values pushed */
18 21 
MIAP[0]	/* MoveIndirectAbsPt */
EIF[ ]	/* EndIf */
PUSHW[ ]	/* 3 values pushed */
0 39 3 
CALL[ ]	/* CallFunction */
PUSHW[ ]	/* 3 values pushed */
42 30 3 
CALL[ ]	/* CallFunction */
PUSHW[ ]	/* 3 values pushed */
10 30 42 
SRP1[ ]	/* SetRefPoint1 */
SRP2[ ]	/* SetRefPoint2 */
IP[ ]	/* InterpolatePts */
PUSHW[ ]	/* 1 value pushed */
18 
SRP0[ ]	/* SetRefPoint0 */
PUSHW[ ]	/* 1 value pushed */
32 
MDRP[11100]	/* MoveDirectRelPt */
SVTCA[1]	/* SetFreedomAndProjectionVectorToAxis */
PUSHW[ ]	/* 3 values pushed */
32 22 3 
CALL[ ]	/* CallFunction */
PUSHW[ ]	/* 3 values pushed */
13 27 3 
CALL[ ]	/* CallFunction */
NPUSHW[ ]	/* 5 values pushed */
218 27 234 27 2 
DELTAP1[ ]	/* DeltaExceptionP1 */
NPUSHW[ ]	/* 27 values pushed */
9 27 25 27 41 27 57 27 73 27 89 27 105 27 121 27 137 27 153 27 169 27 185 27 201 27 13 
DELTAP1[ ]	/* DeltaExceptionP1 */
PUSHW[ ]	/* 3 values pushed */
5 27 13 
SRP1[ ]	/* SetRefPoint1 */
SRP2[ ]	/* SetRefPoint2 */
IP[ ]	/* InterpolatePts */
PUSHW[ ]	/* 1 value pushed */
5 
MDAP[1]	/* MoveDirectAbsPt */
PUSHW[ ]	/* 1 value pushed */
36 
MDRP[11100]	/* MoveDirectRelPt */
NPUSHW[ ]	/* 5 values pushed */
218 36 234 36 2 
DELTAP1[ ]	/* DeltaExceptionP1 */
NPUSHW[ ]	/* 27 values pushed */
9 36 25 36 41 36 57 36 73 36 89 36 105 36 121 36 137 36 153 36 169 36 185 36 201 36 13 
DELTAP1[ ]	/* DeltaExceptionP1 */
PUSHW[ ]	/* 3 values pushed */
10 5 36 
SRP1[ ]	/* SetRefPoint1 */
SRP2[ ]	/* SetRefPoint2 */
IP[ ]	/* InterpolatePts */
PUSHW[ ]	/* 1 value pushed */
32 
SRP0[ ]	/* SetRefPoint0 */
PUSHW[ ]	/* 1 value pushed */
40 
MDRP[10000]	/* MoveDirectRelPt */
IUP[0]	/* InterpolateUntPts */
IUP[1]	/* InterpolateUntPts */";
};
width = 1204;
}
);
note = B;
unicode = 66;
},
{
glyphname = C;
lastChange = "2022-05-04 00:13:31 +0000";
layers = (
{
layerId = m01;
shapes = (
{
closed = 1;
nodes = (
(205,264,o),
(343,76,o),
(541,-25,o),
(663,-25,qs),
(762,-25,o),
(948,37,o),
(1028,91,qs),
(1048,107,o),
(1071,138,o),
(1071,161,qs),
(1071,177,o),
(1058,213,o),
(1037,242,o),
(1009,263,o),
(992,263,qs),
(982,263,o),
(961,256,o),
(953,250,qs),
(880,199,o),
(731,146,o),
(661,146,qs),
(578,146,o),
(447,222,o),
(357,362,o),
(308,563,o),
(308,688,qs),
(308,813,o),
(357,1013,o),
(448,1153,o),
(579,1229,o),
(661,1229,qs),
(731,1229,o),
(880,1175,o),
(953,1124,qs),
(961,1119,o),
(982,1112,o),
(992,1112,qs),
(1009,1112,o),
(1037,1132,o),
(1058,1161,o),
(1071,1197,o),
(1071,1213,qs),
(1071,1237,o),
(1048,1268,o),
(1028,1283,qs),
(948,1337,o),
(762,1400,o),
(663,1400,qs),
(541,1400,o),
(343,1298,o),
(205,1112,o),
(131,849,o),
(131,688,qs),
(131,527,o)
);
}
);
userData = {
assembly = "PUSHW[ ]	/* 1 value pushed */
0 
CALL[ ]	/* CallFunction */
SVTCA[0]	/* SetFreedomAndProjectionVectorToAxis */
PUSHW[ ]	/* 1 value pushed */
0 
RCVT[ ]	/* ReadCVT */
IF[ ]	/* If */
PUSHW[ ]	/* 1 value pushed */
49 
MDAP[1]	/* MoveDirectAbsPt */
ELSE[ ]	/* Else */
PUSHW[ ]	/* 2 values pushed */
49 21 
MIAP[0]	/* MoveIndirectAbsPt */
EIF[ ]	/* EndIf */
PUSHW[ ]	/* 3 values pushed */
5 22 3 
CALL[ ]	/* CallFunction */
PUSHW[ ]	/* 1 value pushed */
49 
SRP0[ ]	/* SetRefPoint0 */
PUSHW[ ]	/* 1 value pushed */
32 
MDRP[11100]	/* MoveDirectRelPt */
NPUSHW[ ]	/* 27 values pushed */
7 32 23 32 39 32 55 32 71 32 87 32 103 32 119 32 135 32 151 32 167 32 183 32 199 32 13 
DELTAP1[ ]	/* DeltaExceptionP1 */
NPUSHW[ ]	/* 5 values pushed */
214 32 230 32 2 
DELTAP1[ ]	/* DeltaExceptionP1 */
SVTCA[1]	/* SetFreedomAndProjectionVectorToAxis */
PUSHW[ ]	/* 3 values pushed */
27 0 3 
CALL[ ]	/* CallFunction */
NPUSHW[ ]	/* 27 values pushed */
6 27 22 27 38 27 54 27 70 27 86 27 102 27 118 27 134 27 150 27 166 27 182 27 198 27 13 
DELTAP1[ ]	/* DeltaExceptionP1 */
NPUSHW[ ]	/* 5 values pushed */
213 27 229 27 2 
DELTAP1[ ]	/* DeltaExceptionP1 */
IUP[0]	/* InterpolateUntPts */
IUP[1]	/* InterpolateUntPts */";
};
width = 1204;
}
);
note = C;
unicode = 67;
},
{
glyphname = D;
lastChange = "2022-05-04 00:13:31 +0000";
layers = (
{
layerId = m01;
shapes = (
{
closed = 1;
nodes = (
(190,1374,o),
(155,1340,o),
(155,1296,qs),
(155,79,ls),
(155,35,o),
(190,0,o),
(230,0,qs),
(564,0,ls),
(683,0,o),
(880,94,o),
(1020,271,o),
(1097,526,o),
(1097,687,qs),
(1097,848,o),
(1020,1102,o),
(880,1279,o),
(683,1374,o),
(564,1374,qs),
(230,1374,ls)
);
},
{
closed = 1;
nodes = (
(866,362,o),
(768,233,o),
(630,167,o),
(545,167,qs),
(329,167,l),
(329,1208,l),
(545,1208,ls),
(630,1208,o),
(768,1142,o),
(866,1011,o),
(919,816,o),
(919,687,qs),
(919,557,o)
);
}
);
userData = {
assembly = "PUSHW[ ]	/* 1 value pushed */
0 
CALL[ ]	/* CallFunction */
SVTCA[0]	/* SetFreedomAndProjectionVectorToAxis */
PUSHW[ ]	/* 1 value pushed */
0 
RCVT[ ]	/* ReadCVT */
IF[ ]	/* If */
PUSHW[ ]	/* 1 value pushed */
10 
MDAP[1]	/* MoveDirectAbsPt */
ELSE[ ]	/* Else */
PUSHW[ ]	/* 2 values pushed */
10 21 
MIAP[0]	/* MoveIndirectAbsPt */
EIF[ ]	/* EndIf */
PUSHW[ ]	/* 3 values pushed */
0 24 3 
CALL[ ]	/* CallFunction */
PUSHW[ ]	/* 1 value pushed */
10 
SRP0[ ]	/* SetRefPoint0 */
PUSHW[ ]	/* 1 value pushed */
26 
MDRP[11100]	/* MoveDirectRelPt */
SVTCA[1]	/* SetFreedomAndProjectionVectorToAxis */
PUSHW[ ]	/* 1 value pushed */
32 
MDAP[1]	/* MoveDirectAbsPt */
PUSHW[ ]	/* 1 value pushed */
19 
MDAP[1]	/* MoveDirectAbsPt */
NPUSHW[ ]	/* 5 values pushed */
218 19 234 19 2 
DELTAP1[ ]	/* DeltaExceptionP1 */
NPUSHW[ ]	/* 27 values pushed */
9 19 25 19 41 19 57 19 73 19 89 19 105 19 121 19 137 19 153 19 169 19 185 19 201 19 13 
DELTAP1[ ]	/* DeltaExceptionP1 */
PUSHW[ ]	/* 1 value pushed */
5 
MDRP[11100]	/* MoveDirectRelPt */
PUSHW[ ]	/* 1 value pushed */
32 
SRP0[ ]	/* SetRefPoint0 */
PUSHW[ ]	/* 1 value pushed */
14 
MDRP[10000]	/* MoveDirectRelPt */
PUSHW[ ]	/* 1 value pushed */
14 
MDAP[1]	/* MoveDirectAbsPt */
PUSHW[ ]	/* 1 value pushed */
26 
MDRP[11100]	/* MoveDirectRelPt */
IUP[0]	/* InterpolateUntPts */
IUP[1]	/* InterpolateUntPts */";
};
width = 1204;
}
);
note = D;
unicode = 68;
},
{
glyphname = Eth;
lastChange = "2022-05-04 00:13:31 +0000";
layers = (
{
layerId = m01;
shapes = (
{
closed = 1;
nodes = (
(240,1374,o),
(205,1340,o),
(205,1296,qs),
(205,79,ls),
(205,35,o),
(240,0,o),
(280,0,qs),
(584,0,ls),
(703,0,o),
(900,94,o),
(1040,271,o),
(1116,526,o),
(1116,687,qs),
(1116,848,o),
(1040,1102,o),
(900,1279,o),
(703,1374,o),
(584,1374,qs),
(280,1374,ls)
);
},
{
closed = 1;
nodes = (
(67,792,o),
(32,754,o),
(32,709,qs),
(32,663,o),
(67,625,o),
(108,625,qs),
(585,625,ls),
(624,625,o),
(659,663,o),
(659,709,qs),
(659,754,o),
(624,792,o),
(585,792,qs),
(108,792,ls)
);
},
{
closed = 1;
nodes = (
(886,362,o),
(787,233,o),
(650,167,o),
(565,167,qs),
(379,167,l),
(379,1208,l),
(565,1208,ls),
(650,1208,o),
(787,1142,o),
(886,1011,o),
(939,816,o),
(939,687,qs),
(939,557,o)
);
}
);
userData = {
assembly = "PUSHW[ ]	/* 1 value pushed */
0 
CALL[ ]	/* CallFunction */
SVTCA[0]	/* SetFreedomAndProjectionVectorToAxis */
PUSHW[ ]	/* 1 value pushed */
0 
RCVT[ ]	/* ReadCVT */
IF[ ]	/* If */
PUSHW[ ]	/* 1 value pushed */
10 
MDAP[1]	/* MoveDirectAbsPt */
ELSE[ ]	/* Else */
PUSHW[ ]	/* 2 values pushed */
10 21 
MIAP[0]	/* MoveIndirectAbsPt */
EIF[ ]	/* EndIf */
PUSHW[ ]	/* 3 values pushed */
0 38 3 
CALL[ ]	/* CallFunction */
PUSHW[ ]	/* 3 values pushed */
19 25 3 
CALL[ ]	/* CallFunction */
PUSHW[ ]	/* 1 value pushed */
10 
SRP0[ ]	/* SetRefPoint0 */
PUSHW[ ]	/* 1 value pushed */
40 
MDRP[11100]	/* MoveDirectRelPt */
SVTCA[1]	/* SetFreedomAndProjectionVectorToAxis */
PUSHW[ ]	/* 1 value pushed */
46 
MDAP[1]	/* MoveDirectAbsPt */
PUSHW[ ]	/* 1 value pushed */
33 
MDAP[1]	/* MoveDirectAbsPt */
NPUSHW[ ]	/* 5 values pushed */
218 33 234 33 2 
DELTAP1[ ]	/* DeltaExceptionP1 */
NPUSHW[ ]	/* 27 values pushed */
9 33 25 33 41 33 57 33 73 33 89 33 105 33 121 33 137 33 153 33 169 33 185 33 201 33 13 
DELTAP1[ ]	/* DeltaExceptionP1 */
PUSHW[ ]	/* 1 value pushed */
5 
MDRP[11100]	/* MoveDirectRelPt */
PUSHW[ ]	/* 1 value pushed */
46 
SRP0[ ]	/* SetRefPoint0 */
PUSHW[ ]	/* 1 value pushed */
14 
MDRP[10000]	/* MoveDirectRelPt */
PUSHW[ ]	/* 1 value pushed */
14 
MDAP[1]	/* MoveDirectAbsPt */
PUSHW[ ]	/* 1 value pushed */
40 
MDRP[11100]	/* MoveDirectRelPt */
IUP[0]	/* InterpolateUntPts */
IUP[1]	/* InterpolateUntPts */";
};
width = 1204;
}
);
note = Eth;
unicode = 208;
},
{
glyphname = E;
lastChange = "2022-05-04 00:13:31 +0000";
layers = (
{
layerId = m01;
shapes = (
{
closed = 1;
nodes = (
(240,1374,o),
(205,1340,o),
(205,1296,qs),
(205,79,ls),
(205,35,o),
(240,0,o),
(280,0,qs),
(379,0,l),
(379,1374,l),
(280,1374,ls)
);
},
{
closed = 1;
nodes = (
(962,0,ls),
(1003,0,o),
(1036,38,o),
(1036,83,qs),
(1036,129,o),
(1003,167,o),
(962,167,qs),
(308,167,l),
(308,0,l)
);
},
{
closed = 1;
nodes = (
(819,625,ls),
(859,625,o),
(894,663,o),
(894,709,qs),
(894,754,o),
(859,792,o),
(819,792,qs),
(308,792,l),
(308,625,l)
);
},
{
closed = 1;
nodes = (
(943,1208,ls),
(983,1208,o),
(1017,1246,o),
(1017,1291,qs),
(1017,1336,o),
(983,1374,o),
(943,1374,qs),
(308,1374,l),
(308,1208,l)
);
}
);
userData = {
assembly = "PUSHW[ ]	/* 1 value pushed */
0 
CALL[ ]	/* CallFunction */
SVTCA[0]	/* SetFreedomAndProjectionVectorToAxis */
PUSHW[ ]	/* 1 value pushed */
0 
RCVT[ ]	/* ReadCVT */
IF[ ]	/* If */
PUSHW[ ]	/* 1 value pushed */
1 
MDAP[1]	/* MoveDirectAbsPt */
ELSE[ ]	/* Else */
PUSHW[ ]	/* 2 values pushed */
1 21 
MIAP[0]	/* MoveIndirectAbsPt */
EIF[ ]	/* EndIf */
PUSHW[ ]	/* 1 value pushed */
0 
RCVT[ ]	/* ReadCVT */
IF[ ]	/* If */
PUSHW[ ]	/* 1 value pushed */
17 
MDAP[1]	/* MoveDirectAbsPt */
ELSE[ ]	/* Else */
PUSHW[ ]	/* 2 values pushed */
17 21 
MIAP[0]	/* MoveIndirectAbsPt */
EIF[ ]	/* EndIf */
PUSHW[ ]	/* 3 values pushed */
29 35 3 
CALL[ ]	/* CallFunction */
PUSHW[ ]	/* 3 values pushed */
20 26 3 
CALL[ ]	/* CallFunction */
PUSHW[ ]	/* 1 value pushed */
29 
SRP0[ ]	/* SetRefPoint0 */
PUSHW[ ]	/* 1 value pushed */
0 
MDRP[10000]	/* MoveDirectRelPt */
PUSHW[ ]	/* 1 value pushed */
1 
SRP0[ ]	/* SetRefPoint0 */
PUSHW[ ]	/* 1 value pushed */
10 
MDRP[11100]	/* MoveDirectRelPt */
PUSHW[ ]	/* 1 value pushed */
11 
MDRP[10000]	/* MoveDirectRelPt */
SVTCA[1]	/* SetFreedomAndProjectionVectorToAxis */
PUSHW[ ]	/* 3 values pushed */
1 5 3 
CALL[ ]	/* CallFunction */
IUP[0]	/* InterpolateUntPts */
IUP[1]	/* InterpolateUntPts */";
};
width = 1204;
}
);
note = E;
unicode = 69;
},
{
glyphname = F;
lastChange = "2022-05-04 00:13:31 +0000";
layers = (
{
layerId = m01;
shapes = (
{
closed = 1;
nodes = (
(262,1374,o),
(225,1340,o),
(225,1296,qs),
(225,64,ls),
(225,23,o),
(262,-12,o),
(310,-12,qs),
(313,-12,ls),
(361,-12,o),
(398,23,o),
(398,64,qs),
(398,1374,l),
(300,1374,ls)
);
},
{
closed = 1;
nodes = (
(849,579,ls),
(889,579,o),
(923,617,o),
(923,662,qs),
(923,707,o),
(889,746,o),
(849,746,qs),
(323,746,l),
(323,579,l)
);
},
{
closed = 1;
nodes = (
(962,1208,ls),
(1003,1208,o),
(1036,1246,o),
(1036,1291,qs),
(1036,1336,o),
(1003,1374,o),
(962,1374,qs),
(323,1374,l),
(323,1208,l)
);
}
);
userData = {
assembly = "PUSHW[ ]	/* 1 value pushed */
0 
CALL[ ]	/* CallFunction */
SVTCA[0]	/* SetFreedomAndProjectionVectorToAxis */
PUSHW[ ]	/* 1 value pushed */
0 
RCVT[ ]	/* ReadCVT */
IF[ ]	/* If */
PUSHW[ ]	/* 1 value pushed */
4 
MDAP[1]	/* MoveDirectAbsPt */
ELSE[ ]	/* Else */
PUSHW[ ]	/* 2 values pushed */
4 21 
MIAP[0]	/* MoveIndirectAbsPt */
EIF[ ]	/* EndIf */
PUSHW[ ]	/* 3 values pushed */
23 29 3 
CALL[ ]	/* CallFunction */
PUSHW[ ]	/* 3 values pushed */
14 20 3 
CALL[ ]	/* CallFunction */
PUSHW[ ]	/* 1 value pushed */
23 
SRP0[ ]	/* SetRefPoint0 */
PUSHW[ ]	/* 1 value pushed */
0 
MDRP[10000]	/* MoveDirectRelPt */
SVTCA[1]	/* SetFreedomAndProjectionVectorToAxis */
PUSHW[ ]	/* 3 values pushed */
1 8 3 
CALL[ ]	/* CallFunction */
IUP[0]	/* InterpolateUntPts */
IUP[1]	/* InterpolateUntPts */";
};
width = 1204;
}
);
note = F;
unicode = 70;
},
{
glyphname = G;
lastChange = "2022-05-04 00:13:31 +0000";
layers = (
{
layerId = m01;
shapes = (
{
closed = 1;
nodes = (
(167,263,o),
(308,76,o),
(512,-25,o),
(639,-25,qs),
(691,-25,o),
(806,-8,o),
(914,22,o),
(1006,63,o),
(1037,86,qs),
(1057,100,o),
(1079,135,o),
(1079,162,q),
(943,229,l),
(912,210,o),
(838,178,o),
(760,157,o),
(681,146,o),
(646,146,qs),
(555,146,o),
(413,221,o),
(317,360,o),
(269,557,o),
(269,679,qs),
(269,807,o),
(322,1011,o),
(420,1153,o),
(559,1229,o),
(646,1229,qs),
(712,1229,o),
(861,1183,o),
(934,1135,qs),
(952,1123,o),
(974,1123,qs),
(993,1123,o),
(1028,1146,o),
(1039,1175,qs),
(1044,1191,o),
(1050,1219,o),
(1050,1230,qs),
(1050,1264,o),
(1006,1295,qs),
(969,1321,o),
(879,1361,o),
(783,1386,o),
(685,1400,o),
(641,1400,qs),
(519,1400,o),
(315,1298,o),
(171,1109,o),
(91,844,o),
(91,681,qs),
(91,523,o)
);
},
{
closed = 1;
nodes = (
(614,688,o),
(580,650,o),
(580,604,qs),
(580,559,o),
(614,521,o),
(654,521,qs),
(989,521,l),
(989,688,l),
(654,688,ls)
);
},
{
closed = 1;
nodes = (
(1079,166,l),
(1079,609,ls),
(1079,653,o),
(1046,688,o),
(1005,688,qs),
(907,688,l),
(907,166,l)
);
}
);
userData = {
assembly = "PUSHW[ ]	/* 1 value pushed */
0 
CALL[ ]	/* CallFunction */
SVTCA[0]	/* SetFreedomAndProjectionVectorToAxis */
PUSHW[ ]	/* 1 value pushed */
0 
RCVT[ ]	/* ReadCVT */
IF[ ]	/* If */
PUSHW[ ]	/* 1 value pushed */
47 
MDAP[1]	/* MoveDirectAbsPt */
ELSE[ ]	/* Else */
PUSHW[ ]	/* 2 values pushed */
47 21 
MIAP[0]	/* MoveIndirectAbsPt */
EIF[ ]	/* EndIf */
PUSHW[ ]	/* 3 values pushed */
5 23 3 
CALL[ ]	/* CallFunction */
PUSHW[ ]	/* 3 values pushed */
52 53 3 
CALL[ ]	/* CallFunction */
PUSHW[ ]	/* 1 value pushed */
47 
SRP0[ ]	/* SetRefPoint0 */
PUSHW[ ]	/* 1 value pushed */
33 
MDRP[11100]	/* MoveDirectRelPt */
NPUSHW[ ]	/* 27 values pushed */
7 33 23 33 39 33 55 33 71 33 87 33 103 33 119 33 135 33 151 33 167 33 183 33 199 33 13 
DELTAP1[ ]	/* DeltaExceptionP1 */
NPUSHW[ ]	/* 5 values pushed */
214 33 230 33 2 
DELTAP1[ ]	/* DeltaExceptionP1 */
PUSHW[ ]	/* 1 value pushed */
52 
SRP0[ ]	/* SetRefPoint0 */
PUSHW[ ]	/* 1 value pushed */
61 
MDRP[10000]	/* MoveDirectRelPt */
SVTCA[1]	/* SetFreedomAndProjectionVectorToAxis */
PUSHW[ ]	/* 1 value pushed */
68 
MDAP[1]	/* MoveDirectAbsPt */
PUSHW[ ]	/* 1 value pushed */
61 
MDAP[1]	/* MoveDirectAbsPt */
PUSHW[ ]	/* 1 value pushed */
68 
SRP0[ ]	/* SetRefPoint0 */
PUSHW[ ]	/* 1 value pushed */
0 
MDRP[10000]	/* MoveDirectRelPt */
PUSHW[ ]	/* 1 value pushed */
0 
MDAP[1]	/* MoveDirectAbsPt */
PUSHW[ ]	/* 1 value pushed */
28 
MDRP[11100]	/* MoveDirectRelPt */
NPUSHW[ ]	/* 27 values pushed */
6 28 22 28 38 28 54 28 70 28 86 28 102 28 118 28 134 28 150 28 166 28 182 28 198 28 13 
DELTAP1[ ]	/* DeltaExceptionP1 */
NPUSHW[ ]	/* 5 values pushed */
213 28 229 28 2 
DELTAP1[ ]	/* DeltaExceptionP1 */
PUSHW[ ]	/* 1 value pushed */
61 
SRP0[ ]	/* SetRefPoint0 */
PUSHW[ ]	/* 1 value pushed */
65 
MDRP[11100]	/* MoveDirectRelPt */
PUSHW[ ]	/* 1 value pushed */
39 
MDRP[10000]	/* MoveDirectRelPt */
IUP[0]	/* InterpolateUntPts */
IUP[1]	/* InterpolateUntPts */";
};
width = 1204;
}
);
note = G;
unicode = 71;
},
{
glyphname = H;
lastChange = "2022-05-04 00:13:31 +0000";
layers = (
{
layerId = m01;
shapes = (
{
closed = 1;
nodes = (
(914,1386,o),
(878,1351,o),
(878,1311,qs),
(878,64,ls),
(878,23,o),
(914,-12,o),
(962,-12,qs),
(965,-12,ls),
(1013,-12,o),
(1050,23,o),
(1050,64,qs),
(1050,1311,ls),
(1050,1351,o),
(1013,1386,o),
(965,1386,qs),
(962,1386,ls)
);
},
{
closed = 1;
nodes = (
(192,1386,o),
(155,1351,o),
(155,1311,qs),
(155,64,ls),
(155,23,o),
(192,-12,o),
(241,-12,qs),
(243,-12,ls),
(292,-12,o),
(329,23,o),
(329,64,qs),
(329,1311,ls),
(329,1351,o),
(292,1386,o),
(243,1386,qs),
(241,1386,ls)
);
},
{
closed = 1;
nodes = (
(966,625,l),
(966,792,l),
(240,792,l),
(240,625,l)
);
}
);
userData = {
assembly = "PUSHW[ ]	/* 1 value pushed */
0 
CALL[ ]	/* CallFunction */
SVTCA[0]	/* SetFreedomAndProjectionVectorToAxis */
PUSHW[ ]	/* 1 value pushed */
0 
MDAP[1]	/* MoveDirectAbsPt */
PUSHW[ ]	/* 1 value pushed */
16 
MDAP[1]	/* MoveDirectAbsPt */
PUSHW[ ]	/* 1 value pushed */
0 
RCVT[ ]	/* ReadCVT */
IF[ ]	/* If */
PUSHW[ ]	/* 1 value pushed */
7 
MDAP[1]	/* MoveDirectAbsPt */
ELSE[ ]	/* Else */
PUSHW[ ]	/* 2 values pushed */
7 21 
MIAP[0]	/* MoveIndirectAbsPt */
EIF[ ]	/* EndIf */
PUSHW[ ]	/* 1 value pushed */
0 
RCVT[ ]	/* ReadCVT */
IF[ ]	/* If */
PUSHW[ ]	/* 1 value pushed */
23 
MDAP[1]	/* MoveDirectAbsPt */
ELSE[ ]	/* Else */
PUSHW[ ]	/* 2 values pushed */
23 21 
MIAP[0]	/* MoveIndirectAbsPt */
EIF[ ]	/* EndIf */
PUSHW[ ]	/* 3 values pushed */
33 34 3 
CALL[ ]	/* CallFunction */
SVTCA[1]	/* SetFreedomAndProjectionVectorToAxis */
PUSHW[ ]	/* 1 value pushed */
36 
MDAP[1]	/* MoveDirectAbsPt */
PUSHW[ ]	/* 1 value pushed */
11 
MDAP[1]	/* MoveDirectAbsPt */
PUSHW[ ]	/* 1 value pushed */
4 
MDRP[11100]	/* MoveDirectRelPt */
PUSHW[ ]	/* 1 value pushed */
36 
SRP0[ ]	/* SetRefPoint0 */
PUSHW[ ]	/* 1 value pushed */
27 
MDRP[10000]	/* MoveDirectRelPt */
PUSHW[ ]	/* 1 value pushed */
27 
MDAP[1]	/* MoveDirectAbsPt */
PUSHW[ ]	/* 1 value pushed */
20 
MDRP[11100]	/* MoveDirectRelPt */
IUP[0]	/* InterpolateUntPts */
IUP[1]	/* InterpolateUntPts */";
};
width = 1204;
}
);
note = H;
unicode = 72;
},
{
glyphname = Hbar;
lastChange = "2022-05-04 00:13:31 +0000";
layers = (
{
layerId = m01;
shapes = (
{
closed = 1;
nodes = (
(1055,1311,ls),
(1055,1351,o),
(1018,1386,o),
(969,1386,qs),
(967,1386,ls),
(918,1386,o),
(882,1351,o),
(882,1311,qs),
(882,1128,l),
(333,1128,l),
(333,1311,ls),
(333,1351,o),
(296,1386,o),
(248,1386,qs),
(245,1386,ls),
(197,1386,o),
(160,1351,o),
(160,1311,qs),
(160,1128,l),
(87,1128,ls),
(46,1128,o),
(13,1090,o),
(13,1044,qs),
(13,999,o),
(46,961,o),
(87,961,qs),
(160,961,l),
(160,64,ls),
(160,23,o),
(197,-12,o),
(245,-12,qs),
(248,-12,ls),
(296,-12,o),
(333,23,o),
(333,64,qs),
(333,625,l),
(882,625,l),
(882,64,ls),
(882,23,o),
(918,-12,o),
(967,-12,qs),
(969,-12,ls),
(1018,-12,o),
(1055,23,o),
(1055,64,qs),
(1055,961,l),
(1120,961,ls),
(1159,961,o),
(1193,999,o),
(1193,1044,qs),
(1193,1090,o),
(1159,1128,o),
(1120,1128,qs),
(1055,1128,l)
);
},
{
closed = 1;
nodes = (
(882,961,l),
(882,792,l),
(333,792,l),
(333,961,l)
);
}
);
userData = {
assembly = "PUSHW[ ]	/* 1 value pushed */
0 
CALL[ ]	/* CallFunction */
SVTCA[0]	/* SetFreedomAndProjectionVectorToAxis */
PUSHW[ ]	/* 1 value pushed */
38 
MDAP[1]	/* MoveDirectAbsPt */
PUSHW[ ]	/* 1 value pushed */
48 
MDAP[1]	/* MoveDirectAbsPt */
PUSHW[ ]	/* 1 value pushed */
0 
RCVT[ ]	/* ReadCVT */
IF[ ]	/* If */
PUSHW[ ]	/* 1 value pushed */
11 
MDAP[1]	/* MoveDirectAbsPt */
ELSE[ ]	/* Else */
PUSHW[ ]	/* 2 values pushed */
11 21 
MIAP[0]	/* MoveIndirectAbsPt */
EIF[ ]	/* EndIf */
PUSHW[ ]	/* 1 value pushed */
0 
RCVT[ ]	/* ReadCVT */
IF[ ]	/* If */
PUSHW[ ]	/* 1 value pushed */
21 
MDAP[1]	/* MoveDirectAbsPt */
ELSE[ ]	/* Else */
PUSHW[ ]	/* 2 values pushed */
21 21 
MIAP[0]	/* MoveIndirectAbsPt */
EIF[ ]	/* EndIf */
PUSHW[ ]	/* 3 values pushed */
0 6 3 
CALL[ ]	/* CallFunction */
PUSHW[ ]	/* 3 values pushed */
55 16 3 
CALL[ ]	/* CallFunction */
PUSHW[ ]	/* 1 value pushed */
6 
SRP0[ ]	/* SetRefPoint0 */
PUSHW[ ]	/* 1 value pushed */
26 
MDRP[10000]	/* MoveDirectRelPt */
PUSHW[ ]	/* 1 value pushed */
0 
SRP0[ ]	/* SetRefPoint0 */
PUSHW[ ]	/* 1 value pushed */
33 
MDRP[10000]	/* MoveDirectRelPt */
PUSHW[ ]	/* 1 value pushed */
0 
SRP0[ ]	/* SetRefPoint0 */
PUSHW[ ]	/* 1 value pushed */
43 
MDRP[10000]	/* MoveDirectRelPt */
PUSHW[ ]	/* 1 value pushed */
6 
SRP0[ ]	/* SetRefPoint0 */
PUSHW[ ]	/* 1 value pushed */
56 
MDRP[10000]	/* MoveDirectRelPt */
SVTCA[1]	/* SetFreedomAndProjectionVectorToAxis */
PUSHW[ ]	/* 1 value pushed */
58 
MDAP[1]	/* MoveDirectAbsPt */
PUSHW[ ]	/* 1 value pushed */
15 
MDAP[1]	/* MoveDirectAbsPt */
PUSHW[ ]	/* 1 value pushed */
8 
MDRP[11100]	/* MoveDirectRelPt */
PUSHW[ ]	/* 1 value pushed */
58 
SRP0[ ]	/* SetRefPoint0 */
PUSHW[ ]	/* 1 value pushed */
25 
MDRP[10000]	/* MoveDirectRelPt */
PUSHW[ ]	/* 1 value pushed */
25 
MDAP[1]	/* MoveDirectAbsPt */
PUSHW[ ]	/* 1 value pushed */
18 
MDRP[11100]	/* MoveDirectRelPt */
PUSHW[ ]	/* 1 value pushed */
25 
SRP0[ ]	/* SetRefPoint0 */
PUSHW[ ]	/* 1 value pushed */
34 
MDRP[10000]	/* MoveDirectRelPt */
PUSHW[ ]	/* 1 value pushed */
18 
SRP0[ ]	/* SetRefPoint0 */
PUSHW[ ]	/* 1 value pushed */
42 
MDRP[10000]	/* MoveDirectRelPt */
PUSHW[ ]	/* 1 value pushed */
15 
SRP0[ ]	/* SetRefPoint0 */
PUSHW[ ]	/* 1 value pushed */
44 
MDRP[10000]	/* MoveDirectRelPt */
PUSHW[ ]	/* 1 value pushed */
8 
SRP0[ ]	/* SetRefPoint0 */
PUSHW[ ]	/* 1 value pushed */
52 
MDRP[10000]	/* MoveDirectRelPt */
PUSHW[ ]	/* 1 value pushed */
18 
SRP0[ ]	/* SetRefPoint0 */
PUSHW[ ]	/* 1 value pushed */
54 
MDRP[10000]	/* MoveDirectRelPt */
PUSHW[ ]	/* 1 value pushed */
15 
SRP0[ ]	/* SetRefPoint0 */
PUSHW[ ]	/* 1 value pushed */
55 
MDRP[10000]	/* MoveDirectRelPt */
IUP[0]	/* InterpolateUntPts */
IUP[1]	/* InterpolateUntPts */";
};
width = 1204;
}
);
note = Hbar;
unicode = 294;
},
{
glyphname = I;
lastChange = "2022-05-04 00:13:31 +0000";
layers = (
{
layerId = m01;
shapes = (
{
closed = 1;
nodes = (
(689,73,l),
(689,1310,l),
(516,1310,l),
(516,73,l)
);
},
{
closed = 1;
nodes = (
(215,167,o),
(181,129,o),
(181,83,qs),
(181,38,o),
(215,0,o),
(256,0,qs),
(951,0,ls),
(991,0,o),
(1025,38,o),
(1025,83,qs),
(1025,129,o),
(991,167,o),
(951,167,qs),
(256,167,ls)
);
},
{
closed = 1;
nodes = (
(235,1374,o),
(200,1336,o),
(200,1291,qs),
(200,1246,o),
(235,1208,o),
(276,1208,qs),
(931,1208,ls),
(971,1208,o),
(1005,1246,o),
(1005,1291,qs),
(1005,1336,o),
(971,1374,o),
(931,1374,qs),
(276,1374,ls)
);
}
);
userData = {
assembly = "PUSHW[ ]	/* 1 value pushed */
0 
CALL[ ]	/* CallFunction */
SVTCA[0]	/* SetFreedomAndProjectionVectorToAxis */
PUSHW[ ]	/* 1 value pushed */
0 
RCVT[ ]	/* ReadCVT */
IF[ ]	/* If */
PUSHW[ ]	/* 1 value pushed */
10 
MDAP[1]	/* MoveDirectAbsPt */
ELSE[ ]	/* Else */
PUSHW[ ]	/* 2 values pushed */
10 21 
MIAP[0]	/* MoveIndirectAbsPt */
EIF[ ]	/* EndIf */
PUSHW[ ]	/* 3 values pushed */
18 24 3 
CALL[ ]	/* CallFunction */
PUSHW[ ]	/* 1 value pushed */
10 
SRP0[ ]	/* SetRefPoint0 */
PUSHW[ ]	/* 1 value pushed */
4 
MDRP[11100]	/* MoveDirectRelPt */
SVTCA[1]	/* SetFreedomAndProjectionVectorToAxis */
PUSHW[ ]	/* 3 values pushed */
1 0 3 
CALL[ ]	/* CallFunction */
IUP[0]	/* InterpolateUntPts */
IUP[1]	/* InterpolateUntPts */";
};
width = 1204;
}
);
note = I;
unicode = 73;
},
{
glyphname = IJ;
lastChange = "2022-05-04 00:13:31 +0000";
layers = (
{
layerId = m01;
shapes = (
{
closed = 1;
nodes = (
(915,1386,o),
(878,1351,o),
(878,1311,qs),
(878,328,ls),
(878,227,o),
(822,146,o),
(764,146,qs),
(727,146,o),
(640,171,o),
(602,193,qs),
(586,201,o),
(569,201,qs),
(550,201,o),
(521,181,o),
(500,151,o),
(489,115,o),
(489,101,qs),
(489,75,o),
(522,36,o),
(577,8,o),
(644,-10,o),
(710,-21,o),
(768,-25,o),
(785,-25,qs),
(844,-25,o),
(943,16,o),
(1013,96,o),
(1051,215,o),
(1051,293,qs),
(1051,1311,ls),
(1051,1351,o),
(1014,1386,o),
(966,1386,qs),
(963,1386,ls)
);
},
{
closed = 1;
nodes = (
(197,1386,o),
(160,1351,o),
(160,1311,qs),
(160,64,ls),
(160,23,o),
(197,-12,o),
(245,-12,qs),
(248,-12,ls),
(296,-12,o),
(332,23,o),
(332,64,qs),
(332,1311,ls),
(332,1351,o),
(296,1386,o),
(248,1386,qs),
(245,1386,ls)
);
}
);
userData = {
assembly = "PUSHW[ ]	/* 1 value pushed */
0 
CALL[ ]	/* CallFunction */
SVTCA[0]	/* SetFreedomAndProjectionVectorToAxis */
PUSHW[ ]	/* 1 value pushed */
0 
MDAP[1]	/* MoveDirectAbsPt */
PUSHW[ ]	/* 1 value pushed */
34 
MDAP[1]	/* MoveDirectAbsPt */
PUSHW[ ]	/* 1 value pushed */
26 
MDAP[1]	/* MoveDirectAbsPt */
PUSHW[ ]	/* 1 value pushed */
0 
RCVT[ ]	/* ReadCVT */
IF[ ]	/* If */
PUSHW[ ]	/* 1 value pushed */
9 
MDAP[1]	/* MoveDirectAbsPt */
ELSE[ ]	/* Else */
PUSHW[ ]	/* 2 values pushed */
9 21 
MIAP[0]	/* MoveIndirectAbsPt */
EIF[ ]	/* EndIf */
PUSHW[ ]	/* 1 value pushed */
0 
RCVT[ ]	/* ReadCVT */
IF[ ]	/* If */
PUSHW[ ]	/* 1 value pushed */
41 
MDAP[1]	/* MoveDirectAbsPt */
ELSE[ ]	/* Else */
PUSHW[ ]	/* 2 values pushed */
41 21 
MIAP[0]	/* MoveIndirectAbsPt */
EIF[ ]	/* EndIf */
SVTCA[1]	/* SetFreedomAndProjectionVectorToAxis */
PUSHW[ ]	/* 1 value pushed */
50 
MDAP[1]	/* MoveDirectAbsPt */
PUSHW[ ]	/* 1 value pushed */
29 
MDAP[1]	/* MoveDirectAbsPt */
PUSHW[ ]	/* 1 value pushed */
4 
MDRP[11100]	/* MoveDirectRelPt */
PUSHW[ ]	/* 1 value pushed */
50 
SRP0[ ]	/* SetRefPoint0 */
PUSHW[ ]	/* 1 value pushed */
45 
MDRP[10000]	/* MoveDirectRelPt */
PUSHW[ ]	/* 1 value pushed */
45 
MDAP[1]	/* MoveDirectAbsPt */
PUSHW[ ]	/* 1 value pushed */
38 
MDRP[11100]	/* MoveDirectRelPt */
IUP[0]	/* InterpolateUntPts */
IUP[1]	/* InterpolateUntPts */";
};
width = 1204;
}
);
note = IJ;
unicode = 306;
},
{
glyphname = J;
lastChange = "2022-05-04 00:13:31 +0000";
layers = (
{
layerId = m01;
shapes = (
{
closed = 1;
nodes = (
(778,286,o),
(676,146,o),
(567,146,qs),
(498,146,o),
(355,203,o),
(293,257,qs),
(285,264,o),
(264,273,o),
(251,273,qs),
(234,273,o),
(203,252,o),
(178,221,o),
(164,184,o),
(164,168,qs),
(164,151,o),
(182,123,o),
(199,107,qs),
(233,76,o),
(317,28,o),
(415,-7,o),
(519,-25,o),
(572,-25,qs),
(751,-25,o),
(952,184,o),
(952,386,qs),
(952,1296,ls),
(952,1340,o),
(915,1374,o),
(878,1374,qs),
(778,1374,l),
(778,420,ls)
);
},
{
closed = 1;
nodes = (
(394,1374,o),
(359,1336,o),
(359,1291,qs),
(359,1246,o),
(394,1208,o),
(434,1208,qs),
(859,1208,l),
(859,1374,l),
(434,1374,ls)
);
}
);
userData = {
assembly = "PUSHW[ ]	/* 1 value pushed */
0 
CALL[ ]	/* CallFunction */
SVTCA[0]	/* SetFreedomAndProjectionVectorToAxis */
PUSHW[ ]	/* 1 value pushed */
0 
RCVT[ ]	/* ReadCVT */
IF[ ]	/* If */
PUSHW[ ]	/* 1 value pushed */
8 
MDAP[1]	/* MoveDirectAbsPt */
ELSE[ ]	/* Else */
PUSHW[ ]	/* 2 values pushed */
8 21 
MIAP[0]	/* MoveIndirectAbsPt */
EIF[ ]	/* EndIf */
PUSHW[ ]	/* 3 values pushed */
31 32 3 
CALL[ ]	/* CallFunction */
PUSHW[ ]	/* 1 value pushed */
31 
SRP0[ ]	/* SetRefPoint0 */
PUSHW[ ]	/* 1 value pushed */
0 
MDRP[10000]	/* MoveDirectRelPt */
PUSHW[ ]	/* 1 value pushed */
8 
SRP0[ ]	/* SetRefPoint0 */
PUSHW[ ]	/* 1 value pushed */
27 
MDRP[11100]	/* MoveDirectRelPt */
NPUSHW[ ]	/* 27 values pushed */
7 27 23 27 39 27 55 27 71 27 87 27 103 27 119 27 135 27 151 27 167 27 183 27 199 27 13 
DELTAP1[ ]	/* DeltaExceptionP1 */
NPUSHW[ ]	/* 5 values pushed */
214 27 230 27 2 
DELTAP1[ ]	/* DeltaExceptionP1 */
SVTCA[1]	/* SetFreedomAndProjectionVectorToAxis */
PUSHW[ ]	/* 3 values pushed */
4 0 3 
CALL[ ]	/* CallFunction */
IUP[0]	/* InterpolateUntPts */
IUP[1]	/* InterpolateUntPts */";
};
width = 1204;
}
);
note = J;
unicode = 74;
},
{
glyphname = K;
lastChange = "2022-05-04 00:13:31 +0000";
layers = (
{
layerId = m01;
shapes = (
{
closed = 1;
nodes = (
(1047,1267,ls),
(1072,1296,o),
(1072,1317,qs),
(1072,1332,o),
(1048,1362,o),
(1013,1385,o),
(974,1399,o),
(958,1399,qs),
(929,1399,o),
(912,1379,qs),
(223,522,l),
(347,402,l)
);
},
{
closed = 1;
nodes = (
(233,1386,o),
(196,1351,o),
(196,1311,qs),
(196,64,ls),
(196,23,o),
(233,-12,o),
(281,-12,qs),
(284,-12,ls),
(332,-12,o),
(369,23,o),
(369,64,qs),
(369,1311,ls),
(369,1351,o),
(332,1386,o),
(284,1386,qs),
(281,1386,ls)
);
},
{
closed = 1;
nodes = (
(937,-6,o),
(962,-22,o),
(978,-22,qs),
(993,-22,o),
(1033,-8,o),
(1068,15,o),
(1092,45,o),
(1092,60,qs),
(1092,76,o),
(1073,107,qs),
(613,812,l),
(468,714,l),
(927,7,ls)
);
}
);
userData = {
assembly = "PUSHW[ ]	/* 1 value pushed */
0 
CALL[ ]	/* CallFunction */
SVTCA[0]	/* SetFreedomAndProjectionVectorToAxis */
PUSHW[ ]	/* 1 value pushed */
3 
MDAP[1]	/* MoveDirectAbsPt */
PUSHW[ ]	/* 1 value pushed */
12 
MDAP[1]	/* MoveDirectAbsPt */
PUSHW[ ]	/* 1 value pushed */
1 
MDAP[1]	/* MoveDirectAbsPt */
PUSHW[ ]	/* 1 value pushed */
0 
RCVT[ ]	/* ReadCVT */
IF[ ]	/* If */
PUSHW[ ]	/* 1 value pushed */
19 
MDAP[1]	/* MoveDirectAbsPt */
ELSE[ ]	/* Else */
PUSHW[ ]	/* 2 values pushed */
19 21 
MIAP[0]	/* MoveIndirectAbsPt */
EIF[ ]	/* EndIf */
PUSHW[ ]	/* 1 value pushed */
0 
RCVT[ ]	/* ReadCVT */
IF[ ]	/* If */
PUSHW[ ]	/* 1 value pushed */
37 
MDAP[1]	/* MoveDirectAbsPt */
ELSE[ ]	/* Else */
PUSHW[ ]	/* 2 values pushed */
37 21 
MIAP[0]	/* MoveIndirectAbsPt */
EIF[ ]	/* EndIf */
SVTCA[1]	/* SetFreedomAndProjectionVectorToAxis */
PUSHW[ ]	/* 3 values pushed */
16 23 3 
CALL[ ]	/* CallFunction */
IUP[0]	/* InterpolateUntPts */
IUP[1]	/* InterpolateUntPts */";
};
width = 1204;
}
);
note = K;
unicode = 75;
},
{
glyphname = L;
lastChange = "2022-05-04 00:13:31 +0000";
layers = (
{
layerId = m01;
shapes = (
{
closed = 1;
nodes = (
(262,1386,o),
(225,1351,o),
(225,1311,qs),
(225,79,ls),
(225,35,o),
(258,0,o),
(300,0,qs),
(398,0,l),
(398,1311,ls),
(398,1351,o),
(361,1386,o),
(313,1386,qs),
(310,1386,ls)
);
},
{
closed = 1;
nodes = (
(962,0,ls),
(1003,0,o),
(1036,38,o),
(1036,83,qs),
(1036,129,o),
(1003,167,o),
(962,167,qs),
(328,167,l),
(328,0,l)
);
}
);
userData = {
assembly = "PUSHW[ ]	/* 1 value pushed */
0 
CALL[ ]	/* CallFunction */
SVTCA[0]	/* SetFreedomAndProjectionVectorToAxis */
PUSHW[ ]	/* 1 value pushed */
0 
MDAP[1]	/* MoveDirectAbsPt */
PUSHW[ ]	/* 1 value pushed */
0 
RCVT[ ]	/* ReadCVT */
IF[ ]	/* If */
PUSHW[ ]	/* 1 value pushed */
4 
MDAP[1]	/* MoveDirectAbsPt */
ELSE[ ]	/* Else */
PUSHW[ ]	/* 2 values pushed */
4 21 
MIAP[0]	/* MoveIndirectAbsPt */
EIF[ ]	/* EndIf */
PUSHW[ ]	/* 1 value pushed */
0 
RCVT[ ]	/* ReadCVT */
IF[ ]	/* If */
PUSHW[ ]	/* 1 value pushed */
20 
MDAP[1]	/* MoveDirectAbsPt */
ELSE[ ]	/* Else */
PUSHW[ ]	/* 2 values pushed */
20 21 
MIAP[0]	/* MoveIndirectAbsPt */
EIF[ ]	/* EndIf */
PUSHW[ ]	/* 1 value pushed */
4 
SRP0[ ]	/* SetRefPoint0 */
PUSHW[ ]	/* 1 value pushed */
13 
MDRP[11100]	/* MoveDirectRelPt */
PUSHW[ ]	/* 1 value pushed */
14 
MDRP[10000]	/* MoveDirectRelPt */
SVTCA[1]	/* SetFreedomAndProjectionVectorToAxis */
PUSHW[ ]	/* 3 values pushed */
4 8 3 
CALL[ ]	/* CallFunction */
IUP[0]	/* InterpolateUntPts */
IUP[1]	/* InterpolateUntPts */";
};
width = 1204;
}
);
note = L;
unicode = 76;
},
{
glyphname = Lslash;
lastChange = "2022-05-04 00:13:31 +0000";
layers = (
{
layerId = m01;
shapes = (
{
closed = 1;
nodes = (
(60,526,o),
(43,501,o),
(43,487,qs),
(43,474,o),
(57,441,o),
(81,413,o),
(111,394,o),
(126,394,qs),
(146,394,o),
(173,415,qs),
(175,417,o),
(225,456,o),
(303,519,o),
(403,597,o),
(507,681,o),
(606,760,o),
(683,821,o),
(732,859,o),
(733,860,qs),
(751,877,o),
(769,901,o),
(769,915,qs),
(769,929,o),
(755,961,o),
(732,989,o),
(702,1009,o),
(687,1009,qs),
(666,1009,o),
(641,990,qs),
(79,542,ls)
);
},
{
closed = 1;
nodes = (
(322,1386,o),
(285,1351,o),
(285,1311,qs),
(285,79,ls),
(285,35,o),
(318,0,o),
(359,0,qs),
(459,0,l),
(459,1311,ls),
(459,1351,o),
(421,1386,o),
(373,1386,qs),
(371,1386,ls)
);
},
{
closed = 1;
nodes = (
(962,0,ls),
(1003,0,o),
(1036,38,o),
(1036,83,qs),
(1036,129,o),
(1003,167,o),
(962,167,qs),
(388,167,l),
(388,0,l)
);
}
);
userData = {
assembly = "PUSHW[ ]	/* 1 value pushed */
0 
CALL[ ]	/* CallFunction */
SVTCA[0]	/* SetFreedomAndProjectionVectorToAxis */
PUSHW[ ]	/* 1 value pushed */
30 
MDAP[1]	/* MoveDirectAbsPt */
PUSHW[ ]	/* 1 value pushed */
0 
RCVT[ ]	/* ReadCVT */
IF[ ]	/* If */
PUSHW[ ]	/* 1 value pushed */
34 
MDAP[1]	/* MoveDirectAbsPt */
ELSE[ ]	/* Else */
PUSHW[ ]	/* 2 values pushed */
34 21 
MIAP[0]	/* MoveIndirectAbsPt */
EIF[ ]	/* EndIf */
PUSHW[ ]	/* 1 value pushed */
0 
RCVT[ ]	/* ReadCVT */
IF[ ]	/* If */
PUSHW[ ]	/* 1 value pushed */
50 
MDAP[1]	/* MoveDirectAbsPt */
ELSE[ ]	/* Else */
PUSHW[ ]	/* 2 values pushed */
50 21 
MIAP[0]	/* MoveIndirectAbsPt */
EIF[ ]	/* EndIf */
PUSHW[ ]	/* 1 value pushed */
34 
SRP0[ ]	/* SetRefPoint0 */
PUSHW[ ]	/* 1 value pushed */
43 
MDRP[11100]	/* MoveDirectRelPt */
PUSHW[ ]	/* 1 value pushed */
44 
MDRP[10000]	/* MoveDirectRelPt */
SVTCA[1]	/* SetFreedomAndProjectionVectorToAxis */
PUSHW[ ]	/* 3 values pushed */
34 38 3 
CALL[ ]	/* CallFunction */
IUP[0]	/* InterpolateUntPts */
IUP[1]	/* InterpolateUntPts */";
};
width = 1204;
}
);
note = Lslash;
unicode = 321;
},
{
glyphname = M;
lastChange = "2022-05-04 00:13:31 +0000";
layers = (
{
layerId = m01;
shapes = (
{
closed = 1;
nodes = (
(921,1386,o),
(870,1350,o),
(853,1311,qs),
(824,1238,o),
(786,1139,o),
(761,1077,o),
(747,1041,o),
(738,1019,o),
(731,1003,o),
(726,990,qs),
(723,982,o),
(704,934,o),
(680,872,o),
(652,801,o),
(626,738,o),
(607,689,o),
(603,680,q),
(352,1311,ls),
(336,1350,o),
(288,1386,o),
(245,1386,qs),
(243,1386,ls),
(204,1386,o),
(156,1355,o),
(155,1311,qs),
(126,64,l),
(126,59,ls),
(126,22,o),
(162,-12,o),
(211,-12,qs),
(213,-12,ls),
(262,-12,o),
(298,23,o),
(299,64,qs),
(303,286,o),
(313,726,o),
(318,948,q),
(500,489,ls),
(516,449,o),
(562,415,o),
(603,415,qs),
(644,415,o),
(690,448,o),
(706,489,qs),
(713,507,o),
(733,558,o),
(761,628,o),
(797,718,o),
(820,777,qs),
(836,816,o),
(853,861,o),
(866,894,o),
(878,924,o),
(887,948,q),
(907,64,ls),
(908,23,o),
(944,-12,o),
(992,-12,qs),
(995,-12,ls),
(1043,-12,o),
(1079,22,o),
(1079,59,qs),
(1079,64,ls),
(1072,377,o),
(1057,997,o),
(1050,1311,qs),
(1049,1355,o),
(1004,1386,o),
(963,1386,qs),
(961,1386,ls)
);
}
);
userData = {
assembly = "PUSHW[ ]	/* 1 value pushed */
0 
CALL[ ]	/* CallFunction */
SVTCA[0]	/* SetFreedomAndProjectionVectorToAxis */
PUSHW[ ]	/* 1 value pushed */
0 
MDAP[1]	/* MoveDirectAbsPt */
PUSHW[ ]	/* 1 value pushed */
47 
MDAP[1]	/* MoveDirectAbsPt */
PUSHW[ ]	/* 1 value pushed */
0 
RCVT[ ]	/* ReadCVT */
IF[ ]	/* If */
PUSHW[ ]	/* 1 value pushed */
10 
MDAP[1]	/* MoveDirectAbsPt */
ELSE[ ]	/* Else */
PUSHW[ ]	/* 2 values pushed */
10 21 
MIAP[0]	/* MoveIndirectAbsPt */
EIF[ ]	/* EndIf */
PUSHW[ ]	/* 1 value pushed */
0 
RCVT[ ]	/* ReadCVT */
IF[ ]	/* If */
PUSHW[ ]	/* 1 value pushed */
38 
MDAP[1]	/* MoveDirectAbsPt */
ELSE[ ]	/* Else */
PUSHW[ ]	/* 2 values pushed */
38 21 
MIAP[0]	/* MoveIndirectAbsPt */
EIF[ ]	/* EndIf */
PUSHW[ ]	/* 3 values pushed */
15 10 0 
SRP1[ ]	/* SetRefPoint1 */
SRP2[ ]	/* SetRefPoint2 */
IP[ ]	/* InterpolatePts */
PUSHW[ ]	/* 3 values pushed */
32 10 0 
SRP1[ ]	/* SetRefPoint1 */
SRP2[ ]	/* SetRefPoint2 */
IP[ ]	/* InterpolatePts */
PUSHW[ ]	/* 3 values pushed */
52 10 0 
SRP1[ ]	/* SetRefPoint1 */
SRP2[ ]	/* SetRefPoint2 */
IP[ ]	/* InterpolatePts */
IUP[0]	/* InterpolateUntPts */
IUP[1]	/* InterpolateUntPts */";
};
width = 1204;
}
);
note = M;
unicode = 77;
},
{
glyphname = N;
lastChange = "2022-05-04 00:13:31 +0000";
layers = (
{
layerId = m01;
shapes = (
{
closed = 1;
nodes = (
(916,1386,o),
(880,1351,o),
(880,1311,qs),
(880,332,l),
(893,332,l),
(889,332,l),
(900,332,l),
(340,1354,ls),
(322,1386,o),
(269,1386,qs),
(242,1386,ls),
(193,1386,o),
(155,1351,o),
(155,1311,qs),
(155,64,ls),
(155,23,o),
(191,-12,o),
(240,-12,qs),
(241,-12,ls),
(289,-12,o),
(325,23,o),
(325,64,qs),
(325,1066,l),
(313,1066,l),
(317,1066,l),
(306,1066,l),
(870,38,ls),
(886,8,o),
(929,-25,o),
(967,-25,qs),
(1009,-25,o),
(1050,13,o),
(1050,43,qs),
(1050,1311,ls),
(1050,1351,o),
(1014,1386,o),
(966,1386,qs),
(965,1386,ls)
);
}
);
userData = {
assembly = "PUSHW[ ]	/* 1 value pushed */
0 
CALL[ ]	/* CallFunction */
SVTCA[0]	/* SetFreedomAndProjectionVectorToAxis */
PUSHW[ ]	/* 1 value pushed */
0 
MDAP[1]	/* MoveDirectAbsPt */
PUSHW[ ]	/* 1 value pushed */
26 
MDAP[1]	/* MoveDirectAbsPt */
PUSHW[ ]	/* 1 value pushed */
0 
RCVT[ ]	/* ReadCVT */
IF[ ]	/* If */
PUSHW[ ]	/* 1 value pushed */
7 
MDAP[1]	/* MoveDirectAbsPt */
ELSE[ ]	/* Else */
PUSHW[ ]	/* 2 values pushed */
7 21 
MIAP[0]	/* MoveIndirectAbsPt */
EIF[ ]	/* EndIf */
PUSHW[ ]	/* 1 value pushed */
0 
RCVT[ ]	/* ReadCVT */
IF[ ]	/* If */
PUSHW[ ]	/* 1 value pushed */
18 
MDAP[1]	/* MoveDirectAbsPt */
ELSE[ ]	/* Else */
PUSHW[ ]	/* 2 values pushed */
18 21 
MIAP[0]	/* MoveIndirectAbsPt */
EIF[ ]	/* EndIf */
PUSHW[ ]	/* 3 values pushed */
11 7 0 
SRP1[ ]	/* SetRefPoint1 */
SRP2[ ]	/* SetRefPoint2 */
IP[ ]	/* InterpolatePts */
PUSHW[ ]	/* 3 values pushed */
30 7 0 
SRP1[ ]	/* SetRefPoint1 */
SRP2[ ]	/* SetRefPoint2 */
IP[ ]	/* InterpolatePts */
SVTCA[1]	/* SetFreedomAndProjectionVectorToAxis */
PUSHW[ ]	/* 1 value pushed */
38 
MDAP[1]	/* MoveDirectAbsPt */
PUSHW[ ]	/* 1 value pushed */
33 
MDAP[1]	/* MoveDirectAbsPt */
PUSHW[ ]	/* 1 value pushed */
4 
MDRP[11100]	/* MoveDirectRelPt */
PUSHW[ ]	/* 1 value pushed */
33 
SRP0[ ]	/* SetRefPoint0 */
PUSHW[ ]	/* 1 value pushed */
10 
MDRP[10000]	/* MoveDirectRelPt */
PUSHW[ ]	/* 1 value pushed */
10 
MDAP[1]	/* MoveDirectAbsPt */
PUSHW[ ]	/* 1 value pushed */
38 
SRP0[ ]	/* SetRefPoint0 */
PUSHW[ ]	/* 1 value pushed */
22 
MDRP[10000]	/* MoveDirectRelPt */
PUSHW[ ]	/* 1 value pushed */
22 
MDAP[1]	/* MoveDirectAbsPt */
PUSHW[ ]	/* 1 value pushed */
15 
MDRP[11100]	/* MoveDirectRelPt */
PUSHW[ ]	/* 3 values pushed */
11 22 15 
SRP1[ ]	/* SetRefPoint1 */
SRP2[ ]	/* SetRefPoint2 */
IP[ ]	/* InterpolatePts */
PUSHW[ ]	/* 1 value pushed */
12 
MDRP[10000]	/* MoveDirectRelPt */
PUSHW[ ]	/* 1 value pushed */
12 
MDAP[1]	/* MoveDirectAbsPt */
PUSHW[ ]	/* 1 value pushed */
15 
SRP0[ ]	/* SetRefPoint0 */
PUSHW[ ]	/* 1 value pushed */
29 
MDRP[10000]	/* MoveDirectRelPt */
PUSHW[ ]	/* 1 value pushed */
29 
MDAP[1]	/* MoveDirectAbsPt */
PUSHW[ ]	/* 3 values pushed */
30 33 4 
SRP1[ ]	/* SetRefPoint1 */
SRP2[ ]	/* SetRefPoint2 */
IP[ ]	/* InterpolatePts */
PUSHW[ ]	/* 1 value pushed */
33 
SRP0[ ]	/* SetRefPoint0 */
PUSHW[ ]	/* 1 value pushed */
31 
MDRP[10000]	/* MoveDirectRelPt */
PUSHW[ ]	/* 1 value pushed */
31 
MDAP[1]	/* MoveDirectAbsPt */
IUP[0]	/* InterpolateUntPts */
IUP[1]	/* InterpolateUntPts */";
};
width = 1204;
}
);
note = N;
unicode = 78;
},
{
glyphname = Eng;
lastChange = "2022-05-04 00:13:31 +0000";
layers = (
{
layerId = m01;
shapes = (
{
closed = 1;
nodes = (
(916,1386,o),
(880,1351,o),
(880,1311,qs),
(880,332,l),
(893,332,l),
(889,332,l),
(900,332,l),
(340,1354,ls),
(322,1386,o),
(269,1386,qs),
(242,1386,ls),
(193,1386,o),
(155,1351,o),
(155,1311,qs),
(155,64,ls),
(155,23,o),
(191,-12,o),
(240,-12,qs),
(241,-12,ls),
(289,-12,o),
(325,23,o),
(325,64,qs),
(325,1066,l),
(313,1066,l),
(317,1066,l),
(307,1066,l),
(879,22,l),
(878,22,l),
(878,-124,ls),
(878,-223,o),
(821,-306,o),
(764,-306,qs),
(727,-306,o),
(638,-279,o),
(597,-259,qs),
(588,-255,o),
(573,-252,o),
(567,-252,qs),
(547,-252,o),
(516,-274,o),
(497,-305,o),
(487,-339,o),
(487,-351,qs),
(487,-375,o),
(521,-412,o),
(574,-440,o),
(640,-459,o),
(706,-470,o),
(765,-475,o),
(785,-475,qs),
(844,-475,o),
(941,-433,o),
(1011,-353,o),
(1050,-234,o),
(1050,-156,qs),
(1050,1311,ls),
(1050,1351,o),
(1014,1386,o),
(967,1386,qs),
(965,1386,ls)
);
}
);
userData = {
assembly = "PUSHW[ ]	/* 1 value pushed */
0 
CALL[ ]	/* CallFunction */
SVTCA[0]	/* SetFreedomAndProjectionVectorToAxis */
PUSHW[ ]	/* 1 value pushed */
0 
MDAP[1]	/* MoveDirectAbsPt */
PUSHW[ ]	/* 1 value pushed */
48 
MDAP[1]	/* MoveDirectAbsPt */
PUSHW[ ]	/* 1 value pushed */
0 
RCVT[ ]	/* ReadCVT */
IF[ ]	/* If */
PUSHW[ ]	/* 1 value pushed */
40 
MDAP[1]	/* MoveDirectAbsPt */
ELSE[ ]	/* Else */
PUSHW[ ]	/* 2 values pushed */
40 21 
MIAP[0]	/* MoveIndirectAbsPt */
EIF[ ]	/* EndIf */
PUSHW[ ]	/* 3 values pushed */
27 9 3 
CALL[ ]	/* CallFunction */
PUSHW[ ]	/* 3 values pushed */
33 40 0 
SRP1[ ]	/* SetRefPoint1 */
SRP2[ ]	/* SetRefPoint2 */
IP[ ]	/* InterpolatePts */
PUSHW[ ]	/* 3 values pushed */
52 40 0 
SRP1[ ]	/* SetRefPoint1 */
SRP2[ ]	/* SetRefPoint2 */
IP[ ]	/* InterpolatePts */
SVTCA[1]	/* SetFreedomAndProjectionVectorToAxis */
PUSHW[ ]	/* 1 value pushed */
60 
MDAP[1]	/* MoveDirectAbsPt */
PUSHW[ ]	/* 1 value pushed */
55 
MDAP[1]	/* MoveDirectAbsPt */
PUSHW[ ]	/* 1 value pushed */
4 
MDRP[11100]	/* MoveDirectRelPt */
PUSHW[ ]	/* 1 value pushed */
55 
SRP0[ ]	/* SetRefPoint0 */
PUSHW[ ]	/* 1 value pushed */
30 
MDRP[10000]	/* MoveDirectRelPt */
PUSHW[ ]	/* 1 value pushed */
30 
MDAP[1]	/* MoveDirectAbsPt */
PUSHW[ ]	/* 1 value pushed */
55 
SRP0[ ]	/* SetRefPoint0 */
PUSHW[ ]	/* 1 value pushed */
32 
MDRP[10000]	/* MoveDirectRelPt */
PUSHW[ ]	/* 1 value pushed */
32 
MDAP[1]	/* MoveDirectAbsPt */
PUSHW[ ]	/* 1 value pushed */
60 
SRP0[ ]	/* SetRefPoint0 */
PUSHW[ ]	/* 1 value pushed */
44 
MDRP[10000]	/* MoveDirectRelPt */
PUSHW[ ]	/* 1 value pushed */
44 
MDAP[1]	/* MoveDirectAbsPt */
PUSHW[ ]	/* 1 value pushed */
37 
MDRP[11100]	/* MoveDirectRelPt */
PUSHW[ ]	/* 3 values pushed */
33 44 37 
SRP1[ ]	/* SetRefPoint1 */
SRP2[ ]	/* SetRefPoint2 */
IP[ ]	/* InterpolatePts */
PUSHW[ ]	/* 1 value pushed */
34 
MDRP[10000]	/* MoveDirectRelPt */
PUSHW[ ]	/* 1 value pushed */
34 
MDAP[1]	/* MoveDirectAbsPt */
PUSHW[ ]	/* 1 value pushed */
37 
SRP0[ ]	/* SetRefPoint0 */
PUSHW[ ]	/* 1 value pushed */
51 
MDRP[10000]	/* MoveDirectRelPt */
PUSHW[ ]	/* 1 value pushed */
51 
MDAP[1]	/* MoveDirectAbsPt */
PUSHW[ ]	/* 3 values pushed */
52 55 4 
SRP1[ ]	/* SetRefPoint1 */
SRP2[ ]	/* SetRefPoint2 */
IP[ ]	/* InterpolatePts */
PUSHW[ ]	/* 1 value pushed */
55 
SRP0[ ]	/* SetRefPoint0 */
PUSHW[ ]	/* 1 value pushed */
53 
MDRP[10000]	/* MoveDirectRelPt */
PUSHW[ ]	/* 1 value pushed */
53 
MDAP[1]	/* MoveDirectAbsPt */
IUP[0]	/* InterpolateUntPts */
IUP[1]	/* InterpolateUntPts */";
};
width = 1204;
}
);
note = Eng;
unicode = 330;
},
{
glyphname = O;
lastChange = "2022-05-04 00:13:31 +0000";
layers = (
{
layerId = m01;
shapes = (
{
closed = 1;
nodes = (
(148,263,o),
(287,76,o),
(484,-25,o),
(603,-25,qs),
(723,-25,o),
(918,76,o),
(1057,263,o),
(1134,526,o),
(1134,687,qs),
(1134,848,o),
(1057,1110,o),
(918,1298,o),
(723,1400,o),
(603,1400,qs),
(484,1400,o),
(287,1298,o),
(148,1110,o),
(72,848,o),
(72,687,qs),
(72,526,o)
);
},
{
closed = 1;
nodes = (
(907,360,o),
(814,220,o),
(683,146,o),
(603,146,qs),
(523,146,o),
(393,220,o),
(300,360,o),
(249,560,o),
(249,687,qs),
(249,813,o),
(300,1013,o),
(393,1153,o),
(523,1229,o),
(603,1229,qs),
(683,1229,o),
(814,1153,o),
(907,1013,o),
(956,813,o),
(956,687,qs),
(956,560,o)
);
}
);
userData = {
assembly = "PUSHW[ ]	/* 1 value pushed */
0 
CALL[ ]	/* CallFunction */
SVTCA[0]	/* SetFreedomAndProjectionVectorToAxis */
PUSHW[ ]	/* 1 value pushed */
0 
RCVT[ ]	/* ReadCVT */
IF[ ]	/* If */
PUSHW[ ]	/* 1 value pushed */
15 
MDAP[1]	/* MoveDirectAbsPt */
ELSE[ ]	/* Else */
PUSHW[ ]	/* 2 values pushed */
15 21 
MIAP[0]	/* MoveIndirectAbsPt */
EIF[ ]	/* EndIf */
PUSHW[ ]	/* 3 values pushed */
5 25 3 
CALL[ ]	/* CallFunction */
PUSHW[ ]	/* 1 value pushed */
15 
SRP0[ ]	/* SetRefPoint0 */
PUSHW[ ]	/* 1 value pushed */
35 
MDRP[11100]	/* MoveDirectRelPt */
NPUSHW[ ]	/* 27 values pushed */
7 35 23 35 39 35 55 35 71 35 87 35 103 35 119 35 135 35 151 35 167 35 183 35 199 35 13 
DELTAP1[ ]	/* DeltaExceptionP1 */
NPUSHW[ ]	/* 5 values pushed */
214 35 230 35 2 
DELTAP1[ ]	/* DeltaExceptionP1 */
SVTCA[1]	/* SetFreedomAndProjectionVectorToAxis */
PUSHW[ ]	/* 1 value pushed */
40 
MDAP[1]	/* MoveDirectAbsPt */
PUSHW[ ]	/* 1 value pushed */
20 
MDAP[1]	/* MoveDirectAbsPt */
PUSHW[ ]	/* 1 value pushed */
40 
SRP0[ ]	/* SetRefPoint0 */
PUSHW[ ]	/* 1 value pushed */
0 
MDRP[10000]	/* MoveDirectRelPt */
PUSHW[ ]	/* 1 value pushed */
0 
MDAP[1]	/* MoveDirectAbsPt */
NPUSHW[ ]	/* 5 values pushed */
218 20 234 20 2 
DELTAP1[ ]	/* DeltaExceptionP1 */
NPUSHW[ ]	/* 27 values pushed */
9 20 25 20 41 20 57 20 73 20 89 20 105 20 121 20 137 20 153 20 169 20 185 20 201 20 13 
DELTAP1[ ]	/* DeltaExceptionP1 */
PUSHW[ ]	/* 1 value pushed */
20 
SRP0[ ]	/* SetRefPoint0 */
PUSHW[ ]	/* 1 value pushed */
10 
MDRP[11100]	/* MoveDirectRelPt */
PUSHW[ ]	/* 1 value pushed */
0 
SRP0[ ]	/* SetRefPoint0 */
PUSHW[ ]	/* 1 value pushed */
30 
MDRP[11100]	/* MoveDirectRelPt */
NPUSHW[ ]	/* 27 values pushed */
6 30 22 30 38 30 54 30 70 30 86 30 102 30 118 30 134 30 150 30 166 30 182 30 198 30 13 
DELTAP1[ ]	/* DeltaExceptionP1 */
NPUSHW[ ]	/* 5 values pushed */
213 30 229 30 2 
DELTAP1[ ]	/* DeltaExceptionP1 */
IUP[0]	/* InterpolateUntPts */
IUP[1]	/* InterpolateUntPts */";
};
width = 1204;
}
);
note = O;
unicode = 79;
},
{
glyphname = Oslash;
lastChange = "2022-05-04 00:13:31 +0000";
layers = (
{
layerId = m01;
shapes = (
{
closed = 1;
nodes = (
(821,1356,o),
(685,1400,o),
(608,1400,qs),
(489,1400,o),
(292,1298,o),
(153,1110,o),
(76,848,o),
(76,687,qs),
(76,531,o),
(146,280,o),
(211,186,q),
(120,35,ls),
(103,3,o),
(103,-13,qs),
(103,-28,o),
(124,-57,o),
(153,-80,o),
(186,-95,o),
(198,-95,qs),
(234,-95,o),
(255,-58,qs),
(273,-28,o),
(309,34,o),
(328,65,q),
(448,-25,o),
(608,-25,qs),
(727,-25,o),
(923,76,o),
(1062,263,o),
(1138,526,o),
(1138,687,qs),
(1138,845,o),
(1065,1102,o),
(998,1196,q),
(1085,1342,ls),
(1103,1371,o),
(1103,1389,qs),
(1103,1405,o),
(1083,1433,o),
(1054,1457,o),
(1021,1472,o),
(1010,1472,qs),
(990,1472,o),
(963,1453,o),
(951,1435,q),
(880,1315,l)
);
},
{
closed = 1;
nodes = (
(284,425,o),
(254,588,o),
(254,687,qs),
(254,813,o),
(305,1013,o),
(397,1153,o),
(528,1229,o),
(608,1229,qs),
(712,1229,o),
(791,1166,q),
(313,359,l)
);
},
{
closed = 1;
nodes = (
(911,360,o),
(819,220,o),
(688,146,o),
(608,146,qs),
(499,146,o),
(417,215,q),
(537,419,o),
(777,821,o),
(897,1025,q),
(927,959,o),
(961,789,o),
(961,687,qs),
(961,560,o)
);
}
);
userData = {
assembly = "PUSHW[ ]	/* 1 value pushed */
0 
CALL[ ]	/* CallFunction */
SVTCA[0]	/* SetFreedomAndProjectionVectorToAxis */
PUSHW[ ]	/* 1 value pushed */
0 
RCVT[ ]	/* ReadCVT */
IF[ ]	/* If */
PUSHW[ ]	/* 1 value pushed */
19 
MDAP[1]	/* MoveDirectAbsPt */
ELSE[ ]	/* Else */
PUSHW[ ]	/* 2 values pushed */
19 21 
MIAP[0]	/* MoveIndirectAbsPt */
EIF[ ]	/* EndIf */
PUSHW[ ]	/* 1 value pushed */
0 
RCVT[ ]	/* ReadCVT */
IF[ ]	/* If */
PUSHW[ ]	/* 1 value pushed */
31 
MDAP[1]	/* MoveDirectAbsPt */
ELSE[ ]	/* Else */
PUSHW[ ]	/* 2 values pushed */
31 21 
MIAP[0]	/* MoveIndirectAbsPt */
EIF[ ]	/* EndIf */
PUSHW[ ]	/* 3 values pushed */
42 48 3 
CALL[ ]	/* CallFunction */
PUSHW[ ]	/* 1 value pushed */
19 
SRP0[ ]	/* SetRefPoint0 */
PUSHW[ ]	/* 1 value pushed */
65 
MDRP[11100]	/* MoveDirectRelPt */
NPUSHW[ ]	/* 27 values pushed */
7 65 23 65 39 65 55 65 71 65 87 65 103 65 119 65 135 65 151 65 167 65 183 65 199 65 13 
DELTAP1[ ]	/* DeltaExceptionP1 */
NPUSHW[ ]	/* 5 values pushed */
214 65 230 65 2 
DELTAP1[ ]	/* DeltaExceptionP1 */
SVTCA[1]	/* SetFreedomAndProjectionVectorToAxis */
PUSHW[ ]	/* 1 value pushed */
70 
MDAP[1]	/* MoveDirectAbsPt */
PUSHW[ ]	/* 1 value pushed */
57 
MDAP[1]	/* MoveDirectAbsPt */
NPUSHW[ ]	/* 5 values pushed */
218 57 234 57 2 
DELTAP1[ ]	/* DeltaExceptionP1 */
NPUSHW[ ]	/* 27 values pushed */
9 57 25 57 41 57 57 57 73 57 89 57 105 57 121 57 137 57 153 57 169 57 185 57 201 57 13 
DELTAP1[ ]	/* DeltaExceptionP1 */
PUSHW[ ]	/* 1 value pushed */
0 
MDRP[10000]	/* MoveDirectRelPt */
PUSHW[ ]	/* 1 value pushed */
0 
MDAP[1]	/* MoveDirectAbsPt */
PUSHW[ ]	/* 1 value pushed */
57 
SRP0[ ]	/* SetRefPoint0 */
PUSHW[ ]	/* 1 value pushed */
14 
MDRP[11100]	/* MoveDirectRelPt */
PUSHW[ ]	/* 1 value pushed */
70 
SRP0[ ]	/* SetRefPoint0 */
PUSHW[ ]	/* 1 value pushed */
37 
MDRP[10000]	/* MoveDirectRelPt */
PUSHW[ ]	/* 1 value pushed */
37 
MDAP[1]	/* MoveDirectAbsPt */
PUSHW[ ]	/* 1 value pushed */
53 
MDRP[11100]	/* MoveDirectRelPt */
NPUSHW[ ]	/* 27 values pushed */
6 53 22 53 38 53 54 53 70 53 86 53 102 53 118 53 134 53 150 53 166 53 182 53 198 53 13 
DELTAP1[ ]	/* DeltaExceptionP1 */
NPUSHW[ ]	/* 5 values pushed */
213 53 229 53 2 
DELTAP1[ ]	/* DeltaExceptionP1 */
PUSHW[ ]	/* 1 value pushed */
24 
MDRP[10000]	/* MoveDirectRelPt */
PUSHW[ ]	/* 1 value pushed */
24 
MDAP[1]	/* MoveDirectAbsPt */
PUSHW[ ]	/* 3 values pushed */
56 37 14 
SRP1[ ]	/* SetRefPoint1 */
SRP2[ ]	/* SetRefPoint2 */
IP[ ]	/* InterpolatePts */
PUSHW[ ]	/* 3 values pushed */
60 37 14 
SRP1[ ]	/* SetRefPoint1 */
SRP2[ ]	/* SetRefPoint2 */
IP[ ]	/* InterpolatePts */
IUP[0]	/* InterpolateUntPts */
IUP[1]	/* InterpolateUntPts */";
};
width = 1204;
}
);
note = Oslash;
unicode = 216;
},
{
glyphname = OE;
lastChange = "2022-05-04 00:13:31 +0000";
layers = (
{
layerId = m01;
shapes = (
{
closed = 1;
nodes = (
(139,271,o),
(274,94,o),
(467,0,o),
(585,0,qs),
(613,0,l),
(603,157,l),
(522,157,o),
(389,226,o),
(294,359,o),
(242,555,o),
(242,682,qs),
(242,809,o),
(294,1005,o),
(387,1139,o),
(514,1212,o),
(589,1216,qs),
(603,1216,l),
(613,1374,l),
(585,1374,ls),
(467,1374,o),
(274,1281,o),
(139,1103,o),
(65,848,o),
(65,687,qs),
(65,526,o)
);
},
{
closed = 1;
nodes = (
(1062,0,ls),
(1102,0,o),
(1137,38,o),
(1137,83,qs),
(1137,129,o),
(1102,167,o),
(1062,167,qs),
(657,167,l),
(657,0,l)
);
},
{
closed = 1;
nodes = (
(563,31,l),
(592,0,l),
(736,0,l),
(736,1374,l),
(592,1374,l),
(563,1337,l)
);
},
{
closed = 1;
nodes = (
(968,625,ls),
(1009,625,o),
(1043,663,o),
(1043,709,qs),
(1043,754,o),
(1009,792,o),
(968,792,qs),
(657,792,l),
(657,625,l)
);
},
{
closed = 1;
nodes = (
(1042,1208,ls),
(1083,1208,o),
(1117,1246,o),
(1117,1291,qs),
(1117,1336,o),
(1083,1374,o),
(1042,1374,qs),
(657,1374,l),
(657,1208,l)
);
}
);
userData = {
assembly = "PUSHW[ ]	/* 1 value pushed */
0 
CALL[ ]	/* CallFunction */
SVTCA[0]	/* SetFreedomAndProjectionVectorToAxis */
PUSHW[ ]	/* 1 value pushed */
0 
RCVT[ ]	/* ReadCVT */
IF[ ]	/* If */
PUSHW[ ]	/* 1 value pushed */
19 
MDAP[1]	/* MoveDirectAbsPt */
ELSE[ ]	/* Else */
PUSHW[ ]	/* 2 values pushed */
19 21 
MIAP[0]	/* MoveIndirectAbsPt */
EIF[ ]	/* EndIf */
PUSHW[ ]	/* 1 value pushed */
0 
RCVT[ ]	/* ReadCVT */
IF[ ]	/* If */
PUSHW[ ]	/* 1 value pushed */
32 
MDAP[1]	/* MoveDirectAbsPt */
ELSE[ ]	/* Else */
PUSHW[ ]	/* 2 values pushed */
32 21 
MIAP[0]	/* MoveIndirectAbsPt */
EIF[ ]	/* EndIf */
PUSHW[ ]	/* 1 value pushed */
0 
RCVT[ ]	/* ReadCVT */
IF[ ]	/* If */
PUSHW[ ]	/* 1 value pushed */
36 
MDAP[1]	/* MoveDirectAbsPt */
ELSE[ ]	/* Else */
PUSHW[ ]	/* 2 values pushed */
36 21 
MIAP[0]	/* MoveIndirectAbsPt */
EIF[ ]	/* EndIf */
PUSHW[ ]	/* 3 values pushed */
50 56 3 
CALL[ ]	/* CallFunction */
PUSHW[ ]	/* 3 values pushed */
41 47 3 
CALL[ ]	/* CallFunction */
PUSHW[ ]	/* 1 value pushed */
50 
SRP0[ ]	/* SetRefPoint0 */
PUSHW[ ]	/* 1 value pushed */
5 
MDRP[10000]	/* MoveDirectRelPt */
PUSHW[ ]	/* 1 value pushed */
56 
SRP0[ ]	/* SetRefPoint0 */
PUSHW[ ]	/* 1 value pushed */
7 
MDRP[10000]	/* MoveDirectRelPt */
PUSHW[ ]	/* 1 value pushed */
7 
MDAP[1]	/* MoveDirectAbsPt */
PUSHW[ ]	/* 1 value pushed */
19 
SRP0[ ]	/* SetRefPoint0 */
PUSHW[ ]	/* 1 value pushed */
18 
MDRP[11100]	/* MoveDirectRelPt */
PUSHW[ ]	/* 1 value pushed */
25 
MDRP[10000]	/* MoveDirectRelPt */
PUSHW[ ]	/* 1 value pushed */
26 
MDRP[10000]	/* MoveDirectRelPt */
PUSHW[ ]	/* 1 value pushed */
50 
SRP0[ ]	/* SetRefPoint0 */
PUSHW[ ]	/* 1 value pushed */
34 
MDRP[10000]	/* MoveDirectRelPt */
SVTCA[1]	/* SetFreedomAndProjectionVectorToAxis */
PUSHW[ ]	/* 1 value pushed */
58 
MDAP[1]	/* MoveDirectAbsPt */
PUSHW[ ]	/* 1 value pushed */
38 
MDAP[1]	/* MoveDirectAbsPt */
PUSHW[ ]	/* 1 value pushed */
58 
SRP0[ ]	/* SetRefPoint0 */
PUSHW[ ]	/* 1 value pushed */
0 
MDRP[10000]	/* MoveDirectRelPt */
PUSHW[ ]	/* 1 value pushed */
0 
MDAP[1]	/* MoveDirectAbsPt */
PUSHW[ ]	/* 1 value pushed */
13 
MDRP[11100]	/* MoveDirectRelPt */
NPUSHW[ ]	/* 27 values pushed */
6 13 22 13 38 13 54 13 70 13 86 13 102 13 118 13 134 13 150 13 166 13 182 13 198 13 13 
DELTAP1[ ]	/* DeltaExceptionP1 */
NPUSHW[ ]	/* 5 values pushed */
213 13 229 13 2 
DELTAP1[ ]	/* DeltaExceptionP1 */
PUSHW[ ]	/* 1 value pushed */
38 
SRP0[ ]	/* SetRefPoint0 */
PUSHW[ ]	/* 1 value pushed */
36 
MDRP[11100]	/* MoveDirectRelPt */
IUP[0]	/* InterpolateUntPts */
IUP[1]	/* InterpolateUntPts */";
};
width = 1204;
}
);
note = OE;
unicode = 338;
},
{
glyphname = P;
lastChange = "2022-05-04 00:13:31 +0000";
layers = (
{
layerId = m01;
shapes = (
{
closed = 1;
nodes = (
(608,1208,ls),
(748,1208,o),
(892,1053,o),
(892,912,qs),
(892,773,o),
(748,622,o),
(608,622,qs),
(317,622,l),
(317,455,l),
(629,455,ls),
(736,455,o),
(901,521,o),
(1012,641,o),
(1069,811,o),
(1069,912,qs),
(1069,1015,o),
(1012,1185,o),
(901,1307,o),
(736,1374,o),
(629,1374,qs),
(317,1374,l),
(317,1208,l)
);
},
{
closed = 1;
nodes = (
(249,1374,o),
(215,1340,o),
(215,1296,qs),
(215,64,ls),
(215,23,o),
(252,-12,o),
(301,-12,qs),
(303,-12,ls),
(352,-12,o),
(389,23,o),
(389,64,qs),
(389,1374,l),
(289,1374,ls)
);
}
);
userData = {
assembly = "PUSHW[ ]	/* 1 value pushed */
0 
CALL[ ]	/* CallFunction */
SVTCA[0]	/* SetFreedomAndProjectionVectorToAxis */
PUSHW[ ]	/* 1 value pushed */
0 
RCVT[ ]	/* ReadCVT */
IF[ ]	/* If */
PUSHW[ ]	/* 1 value pushed */
26 
MDAP[1]	/* MoveDirectAbsPt */
ELSE[ ]	/* Else */
PUSHW[ ]	/* 2 values pushed */
26 21 
MIAP[0]	/* MoveIndirectAbsPt */
EIF[ ]	/* EndIf */
PUSHW[ ]	/* 3 values pushed */
1 20 3 
CALL[ ]	/* CallFunction */
PUSHW[ ]	/* 3 values pushed */
14 11 3 
CALL[ ]	/* CallFunction */
PUSHW[ ]	/* 1 value pushed */
1 
SRP0[ ]	/* SetRefPoint0 */
PUSHW[ ]	/* 1 value pushed */
22 
MDRP[10000]	/* MoveDirectRelPt */
SVTCA[1]	/* SetFreedomAndProjectionVectorToAxis */
PUSHW[ ]	/* 1 value pushed */
35 
MDAP[1]	/* MoveDirectAbsPt */
PUSHW[ ]	/* 1 value pushed */
17 
MDAP[1]	/* MoveDirectAbsPt */
NPUSHW[ ]	/* 5 values pushed */
218 17 234 17 2 
DELTAP1[ ]	/* DeltaExceptionP1 */
NPUSHW[ ]	/* 27 values pushed */
9 17 25 17 41 17 57 17 73 17 89 17 105 17 121 17 137 17 153 17 169 17 185 17 201 17 13 
DELTAP1[ ]	/* DeltaExceptionP1 */
PUSHW[ ]	/* 1 value pushed */
6 
MDRP[11100]	/* MoveDirectRelPt */
PUSHW[ ]	/* 1 value pushed */
35 
SRP0[ ]	/* SetRefPoint0 */
PUSHW[ ]	/* 1 value pushed */
30 
MDRP[10000]	/* MoveDirectRelPt */
PUSHW[ ]	/* 1 value pushed */
30 
MDAP[1]	/* MoveDirectAbsPt */
PUSHW[ ]	/* 1 value pushed */
23 
MDRP[11100]	/* MoveDirectRelPt */
IUP[0]	/* InterpolateUntPts */
IUP[1]	/* InterpolateUntPts */";
};
width = 1204;
}
);
note = P;
unicode = 80;
},
{
glyphname = Thorn;
lastChange = "2022-05-04 00:13:31 +0000";
layers = (
{
layerId = m01;
shapes = (
{
closed = 1;
nodes = (
(647,929,ls),
(706,929,o),
(792,894,o),
(850,831,o),
(878,745,o),
(878,692,qs),
(878,580,o),
(758,461,o),
(647,461,qs),
(308,461,l),
(308,294,l),
(668,294,ls),
(764,294,o),
(910,355,o),
(1009,462,o),
(1058,608,o),
(1058,692,qs),
(1058,778,o),
(1009,925,o),
(910,1033,o),
(764,1095,o),
(668,1095,qs),
(308,1095,l),
(308,929,l)
);
},
{
closed = 1;
nodes = (
(252,1386,o),
(215,1351,o),
(215,1311,qs),
(215,64,ls),
(215,23,o),
(252,-12,o),
(301,-12,qs),
(303,-12,ls),
(352,-12,o),
(389,23,o),
(389,64,qs),
(389,1311,ls),
(389,1351,o),
(352,1386,o),
(303,1386,qs),
(301,1386,ls)
);
}
);
userData = {
assembly = "PUSHW[ ]	/* 1 value pushed */
0 
CALL[ ]	/* CallFunction */
SVTCA[0]	/* SetFreedomAndProjectionVectorToAxis */
PUSHW[ ]	/* 1 value pushed */
24 
MDAP[1]	/* MoveDirectAbsPt */
PUSHW[ ]	/* 1 value pushed */
0 
RCVT[ ]	/* ReadCVT */
IF[ ]	/* If */
PUSHW[ ]	/* 1 value pushed */
31 
MDAP[1]	/* MoveDirectAbsPt */
ELSE[ ]	/* Else */
PUSHW[ ]	/* 2 values pushed */
31 21 
MIAP[0]	/* MoveIndirectAbsPt */
EIF[ ]	/* EndIf */
PUSHW[ ]	/* 3 values pushed */
14 11 3 
CALL[ ]	/* CallFunction */
PUSHW[ ]	/* 3 values pushed */
1 22 3 
CALL[ ]	/* CallFunction */
SVTCA[1]	/* SetFreedomAndProjectionVectorToAxis */
PUSHW[ ]	/* 1 value pushed */
40 
MDAP[1]	/* MoveDirectAbsPt */
PUSHW[ ]	/* 1 value pushed */
17 
MDAP[1]	/* MoveDirectAbsPt */
NPUSHW[ ]	/* 5 values pushed */
218 17 234 17 2 
DELTAP1[ ]	/* DeltaExceptionP1 */
NPUSHW[ ]	/* 27 values pushed */
9 17 25 17 41 17 57 17 73 17 89 17 105 17 121 17 137 17 153 17 169 17 185 17 201 17 13 
DELTAP1[ ]	/* DeltaExceptionP1 */
PUSHW[ ]	/* 1 value pushed */
6 
MDRP[11100]	/* MoveDirectRelPt */
PUSHW[ ]	/* 1 value pushed */
40 
SRP0[ ]	/* SetRefPoint0 */
PUSHW[ ]	/* 1 value pushed */
35 
MDRP[10000]	/* MoveDirectRelPt */
PUSHW[ ]	/* 1 value pushed */
35 
MDAP[1]	/* MoveDirectAbsPt */
PUSHW[ ]	/* 1 value pushed */
28 
MDRP[11100]	/* MoveDirectRelPt */
IUP[0]	/* InterpolateUntPts */
IUP[1]	/* InterpolateUntPts */";
};
width = 1204;
}
);
note = Thorn;
unicode = 222;
},
{
glyphname = Q;
lastChange = "2022-05-04 00:13:31 +0000";
layers = (
{
layerId = m01;
shapes = (
{
closed = 1;
nodes = (
(153,263,o),
(292,76,o),
(489,-25,o),
(608,-25,qs),
(650,-25,o),
(728,-13,o),
(765,0,q),
(852,-156,ls),
(873,-195,o),
(910,-195,qs),
(923,-195,o),
(959,-179,o),
(991,-155,o),
(1014,-124,o),
(1014,-109,qs),
(1014,-93,o),
(997,-63,qs),
(916,87,l),
(1021,177,o),
(1138,485,o),
(1138,687,qs),
(1138,848,o),
(1062,1110,o),
(923,1298,o),
(727,1400,o),
(608,1400,qs),
(489,1400,o),
(292,1298,o),
(153,1110,o),
(76,848,o),
(76,687,qs),
(76,526,o)
);
},
{
closed = 1;
nodes = (
(587,325,o),
(592,318,qs),
(624,259,ls),
(629,251,o),
(636,237,o),
(640,229,qs),
(650,210,o),
(670,174,o),
(681,154,q),
(648,146,o),
(608,146,qs),
(528,146,o),
(397,220,o),
(305,360,o),
(254,560,o),
(254,687,qs),
(254,813,o),
(305,1013,o),
(397,1153,o),
(528,1229,o),
(608,1229,qs),
(688,1229,o),
(819,1153,o),
(911,1013,o),
(961,813,o),
(961,687,qs),
(961,537,o),
(892,314,o),
(829,244,q),
(828,247,o),
(826,250,o),
(824,252,qs),
(756,379,l),
(721,441,ls),
(710,461,o),
(683,481,o),
(663,481,qs),
(651,481,o),
(615,465,o),
(582,440,o),
(559,410,o),
(559,394,qs),
(559,377,o),
(575,347,qs),
(580,340,o)
);
}
);
userData = {
assembly = "PUSHW[ ]	/* 1 value pushed */
0 
CALL[ ]	/* CallFunction */
SVTCA[0]	/* SetFreedomAndProjectionVectorToAxis */
PUSHW[ ]	/* 1 value pushed */
0 
RCVT[ ]	/* ReadCVT */
IF[ ]	/* If */
PUSHW[ ]	/* 1 value pushed */
24 
MDAP[1]	/* MoveDirectAbsPt */
ELSE[ ]	/* Else */
PUSHW[ ]	/* 2 values pushed */
24 21 
MIAP[0]	/* MoveIndirectAbsPt */
EIF[ ]	/* EndIf */
PUSHW[ ]	/* 1 value pushed */
0 
RCVT[ ]	/* ReadCVT */
IF[ ]	/* If */
PUSHW[ ]	/* 1 value pushed */
27 
MDAP[1]	/* MoveDirectAbsPt */
ELSE[ ]	/* Else */
PUSHW[ ]	/* 2 values pushed */
27 21 
MIAP[0]	/* MoveIndirectAbsPt */
EIF[ ]	/* EndIf */
PUSHW[ ]	/* 3 values pushed */
5 55 3 
CALL[ ]	/* CallFunction */
PUSHW[ ]	/* 1 value pushed */
27 
SRP0[ ]	/* SetRefPoint0 */
PUSHW[ ]	/* 1 value pushed */
65 
MDRP[11100]	/* MoveDirectRelPt */
NPUSHW[ ]	/* 27 values pushed */
7 65 23 65 39 65 55 65 71 65 87 65 103 65 119 65 135 65 151 65 167 65 183 65 199 65 13 
DELTAP1[ ]	/* DeltaExceptionP1 */
NPUSHW[ ]	/* 5 values pushed */
214 65 230 65 2 
DELTAP1[ ]	/* DeltaExceptionP1 */
SVTCA[1]	/* SetFreedomAndProjectionVectorToAxis */
PUSHW[ ]	/* 1 value pushed */
77 
MDAP[1]	/* MoveDirectAbsPt */
PUSHW[ ]	/* 1 value pushed */
50 
MDAP[1]	/* MoveDirectAbsPt */
PUSHW[ ]	/* 1 value pushed */
77 
SRP0[ ]	/* SetRefPoint0 */
PUSHW[ ]	/* 1 value pushed */
0 
MDRP[10000]	/* MoveDirectRelPt */
PUSHW[ ]	/* 1 value pushed */
0 
MDAP[1]	/* MoveDirectAbsPt */
NPUSHW[ ]	/* 5 values pushed */
218 50 234 50 2 
DELTAP1[ ]	/* DeltaExceptionP1 */
NPUSHW[ ]	/* 27 values pushed */
9 50 25 50 41 50 57 50 73 50 89 50 105 50 121 50 137 50 153 50 169 50 185 50 201 50 13 
DELTAP1[ ]	/* DeltaExceptionP1 */
PUSHW[ ]	/* 1 value pushed */
50 
SRP0[ ]	/* SetRefPoint0 */
PUSHW[ ]	/* 1 value pushed */
10 
MDRP[11100]	/* MoveDirectRelPt */
PUSHW[ ]	/* 3 values pushed */
47 0 10 
SRP1[ ]	/* SetRefPoint1 */
SRP2[ ]	/* SetRefPoint2 */
IP[ ]	/* InterpolatePts */
PUSHW[ ]	/* 1 value pushed */
0 
SRP0[ ]	/* SetRefPoint0 */
PUSHW[ ]	/* 1 value pushed */
60 
MDRP[11100]	/* MoveDirectRelPt */
NPUSHW[ ]	/* 27 values pushed */
6 60 22 60 38 60 54 60 70 60 86 60 102 60 118 60 134 60 150 60 166 60 182 60 198 60 13 
DELTAP1[ ]	/* DeltaExceptionP1 */
NPUSHW[ ]	/* 5 values pushed */
213 60 229 60 2 
DELTAP1[ ]	/* DeltaExceptionP1 */
IUP[0]	/* InterpolateUntPts */
IUP[1]	/* InterpolateUntPts */";
};
width = 1204;
}
);
note = Q;
unicode = 81;
},
{
glyphname = R;
lastChange = "2022-05-04 00:13:31 +0000";
layers = (
{
layerId = m01;
shapes = (
{
closed = 1;
nodes = (
(588,1208,ls),
(721,1208,o),
(852,1081,o),
(852,959,qs),
(852,714,o),
(588,714,qs),
(316,714,l),
(316,548,l),
(609,548,ls),
(712,548,o),
(870,606,o),
(976,713,o),
(1029,865,o),
(1029,959,qs),
(1029,1053,o),
(976,1205,o),
(870,1315,o),
(712,1374,o),
(609,1374,qs),
(316,1374,l),
(316,1208,l)
);
},
{
closed = 1;
nodes = (
(249,1374,o),
(215,1340,o),
(215,1296,qs),
(215,64,ls),
(215,23,o),
(252,-12,o),
(301,-12,qs),
(303,-12,ls),
(352,-12,o),
(389,23,o),
(389,64,qs),
(389,1374,l),
(289,1374,ls)
);
},
{
closed = 1;
nodes = (
(888,0,o),
(915,-17,o),
(932,-17,qs),
(946,-17,o),
(985,-6,o),
(1020,16,o),
(1046,44,o),
(1046,59,qs),
(1046,66,o),
(1040,86,o),
(1031,102,qs),
(721,653,l),
(547,619,l),
(880,15,ls)
);
}
);
userData = {
assembly = "PUSHW[ ]	/* 1 value pushed */
0 
CALL[ ]	/* CallFunction */
SVTCA[0]	/* SetFreedomAndProjectionVectorToAxis */
PUSHW[ ]	/* 1 value pushed */
0 
RCVT[ ]	/* ReadCVT */
IF[ ]	/* If */
PUSHW[ ]	/* 1 value pushed */
25 
MDAP[1]	/* MoveDirectAbsPt */
ELSE[ ]	/* Else */
PUSHW[ ]	/* 2 values pushed */
25 21 
MIAP[0]	/* MoveIndirectAbsPt */
EIF[ ]	/* EndIf */
PUSHW[ ]	/* 1 value pushed */
0 
RCVT[ ]	/* ReadCVT */
IF[ ]	/* If */
PUSHW[ ]	/* 1 value pushed */
44 
MDAP[1]	/* MoveDirectAbsPt */
ELSE[ ]	/* Else */
PUSHW[ ]	/* 2 values pushed */
44 21 
MIAP[0]	/* MoveIndirectAbsPt */
EIF[ ]	/* EndIf */
PUSHW[ ]	/* 3 values pushed */
1 19 3 
CALL[ ]	/* CallFunction */
PUSHW[ ]	/* 3 values pushed */
14 11 3 
CALL[ ]	/* CallFunction */
PUSHW[ ]	/* 1 value pushed */
1 
SRP0[ ]	/* SetRefPoint0 */
PUSHW[ ]	/* 1 value pushed */
21 
MDRP[10000]	/* MoveDirectRelPt */
PUSHW[ ]	/* 3 values pushed */
34 11 14 
SRP1[ ]	/* SetRefPoint1 */
SRP2[ ]	/* SetRefPoint2 */
IP[ ]	/* InterpolatePts */
SVTCA[1]	/* SetFreedomAndProjectionVectorToAxis */
PUSHW[ ]	/* 1 value pushed */
48 
MDAP[1]	/* MoveDirectAbsPt */
PUSHW[ ]	/* 1 value pushed */
16 
MDAP[1]	/* MoveDirectAbsPt */
NPUSHW[ ]	/* 5 values pushed */
218 16 234 16 2 
DELTAP1[ ]	/* DeltaExceptionP1 */
NPUSHW[ ]	/* 27 values pushed */
9 16 25 16 41 16 57 16 73 16 89 16 105 16 121 16 137 16 153 16 169 16 185 16 201 16 13 
DELTAP1[ ]	/* DeltaExceptionP1 */
PUSHW[ ]	/* 1 value pushed */
6 
MDRP[11100]	/* MoveDirectRelPt */
PUSHW[ ]	/* 1 value pushed */
48 
SRP0[ ]	/* SetRefPoint0 */
PUSHW[ ]	/* 1 value pushed */
29 
MDRP[10000]	/* MoveDirectRelPt */
PUSHW[ ]	/* 1 value pushed */
29 
MDAP[1]	/* MoveDirectAbsPt */
PUSHW[ ]	/* 1 value pushed */
22 
MDRP[11100]	/* MoveDirectRelPt */
PUSHW[ ]	/* 1 value pushed */
6 
SRP0[ ]	/* SetRefPoint0 */
PUSHW[ ]	/* 1 value pushed */
36 
MDRP[10000]	/* MoveDirectRelPt */
PUSHW[ ]	/* 1 value pushed */
36 
MDAP[1]	/* MoveDirectAbsPt */
PUSHW[ ]	/* 3 values pushed */
34 29 36 
SRP1[ ]	/* SetRefPoint1 */
SRP2[ ]	/* SetRefPoint2 */
IP[ ]	/* InterpolatePts */
IUP[0]	/* InterpolateUntPts */
IUP[1]	/* InterpolateUntPts */";
};
width = 1204;
}
);
note = R;
unicode = 82;
},
{
glyphname = S;
lastChange = "2022-05-04 00:13:31 +0000";
layers = (
{
layerId = m01;
shapes = (
{
closed = 1;
nodes = (
(223,769,o),
(339,690,o),
(489,647,o),
(567,630,qs),
(622,617,o),
(725,592,o),
(769,570,qs),
(820,544,o),
(881,457,o),
(881,381,qs),
(881,329,o),
(849,242,o),
(783,181,o),
(683,146,o),
(616,146,qs),
(516,146,o),
(340,215,o),
(270,269,qs),
(254,281,o),
(230,281,qs),
(212,281,o),
(181,259,o),
(159,227,o),
(147,190,o),
(147,174,qs),
(147,154,o),
(168,125,o),
(188,109,qs),
(225,80,o),
(323,30,o),
(437,-6,o),
(560,-25,o),
(623,-25,qs),
(731,-25,o),
(894,34,o),
(1004,142,o),
(1058,294,o),
(1058,387,qs),
(1058,465,o),
(1021,581,o),
(956,667,o),
(870,725,o),
(769,765,o),
(660,792,o),
(606,802,qs),
(547,815,o),
(441,842,o),
(399,866,qs),
(367,886,o),
(330,947,o),
(330,1005,qs),
(330,1107,o),
(455,1229,o),
(578,1229,qs),
(661,1229,o),
(830,1173,o),
(902,1122,qs),
(919,1110,o),
(941,1110,qs),
(960,1110,o),
(990,1131,o),
(1011,1163,o),
(1021,1200,o),
(1021,1216,qs),
(1021,1239,o),
(1000,1268,o),
(980,1284,qs),
(946,1310,o),
(853,1351,o),
(748,1383,o),
(633,1400,o),
(578,1400,qs),
(481,1400,o),
(324,1345,o),
(213,1242,o),
(153,1094,o),
(153,1000,qs),
(153,896,o)
);
}
);
userData = {
assembly = "PUSHW[ ]	/* 1 value pushed */
0 
CALL[ ]	/* CallFunction */
SVTCA[0]	/* SetFreedomAndProjectionVectorToAxis */
PUSHW[ ]	/* 1 value pushed */
0 
RCVT[ ]	/* ReadCVT */
IF[ ]	/* If */
PUSHW[ ]	/* 1 value pushed */
44 
MDAP[1]	/* MoveDirectAbsPt */
ELSE[ ]	/* Else */
PUSHW[ ]	/* 2 values pushed */
44 21 
MIAP[0]	/* MoveIndirectAbsPt */
EIF[ ]	/* EndIf */
PUSHW[ ]	/* 3 values pushed */
5 23 3 
CALL[ ]	/* CallFunction */
PUSHW[ ]	/* 1 value pushed */
44 
SRP0[ ]	/* SetRefPoint0 */
PUSHW[ ]	/* 1 value pushed */
62 
MDRP[11100]	/* MoveDirectRelPt */
NPUSHW[ ]	/* 27 values pushed */
7 62 23 62 39 62 55 62 71 62 87 62 103 62 119 62 135 62 151 62 167 62 183 62 199 62 13 
DELTAP1[ ]	/* DeltaExceptionP1 */
NPUSHW[ ]	/* 5 values pushed */
214 62 230 62 2 
DELTAP1[ ]	/* DeltaExceptionP1 */
SVTCA[1]	/* SetFreedomAndProjectionVectorToAxis */
PUSHW[ ]	/* 1 value pushed */
78 
MDAP[1]	/* MoveDirectAbsPt */
PUSHW[ ]	/* 1 value pushed */
67 
MDAP[1]	/* MoveDirectAbsPt */
PUSHW[ ]	/* 1 value pushed */
78 
SRP0[ ]	/* SetRefPoint0 */
PUSHW[ ]	/* 1 value pushed */
0 
MDRP[10000]	/* MoveDirectRelPt */
PUSHW[ ]	/* 1 value pushed */
0 
MDAP[1]	/* MoveDirectAbsPt */
PUSHW[ ]	/* 1 value pushed */
26 
MDRP[11100]	/* MoveDirectRelPt */
NPUSHW[ ]	/* 27 values pushed */
6 26 22 26 38 26 54 26 70 26 86 26 102 26 118 26 134 26 150 26 166 26 182 26 198 26 13 
DELTAP1[ ]	/* DeltaExceptionP1 */
NPUSHW[ ]	/* 5 values pushed */
213 26 229 26 2 
DELTAP1[ ]	/* DeltaExceptionP1 */
NPUSHW[ ]	/* 5 values pushed */
218 67 234 67 2 
DELTAP1[ ]	/* DeltaExceptionP1 */
NPUSHW[ ]	/* 27 values pushed */
9 67 25 67 41 67 57 67 73 67 89 67 105 67 121 67 137 67 153 67 169 67 185 67 201 67 13 
DELTAP1[ ]	/* DeltaExceptionP1 */
PUSHW[ ]	/* 1 value pushed */
67 
SRP0[ ]	/* SetRefPoint0 */
PUSHW[ ]	/* 1 value pushed */
39 
MDRP[11100]	/* MoveDirectRelPt */
PUSHW[ ]	/* 1 value pushed */
0 
SRP0[ ]	/* SetRefPoint0 */
PUSHW[ ]	/* 1 value pushed */
52 
MDRP[10000]	/* MoveDirectRelPt */
PUSHW[ ]	/* 1 value pushed */
52 
MDAP[1]	/* MoveDirectAbsPt */
IUP[0]	/* InterpolateUntPts */
IUP[1]	/* InterpolateUntPts */";
};
width = 1204;
}
);
note = S;
unicode = 83;
},
{
glyphname = T;
lastChange = "2022-05-04 00:13:31 +0000";
layers = (
{
layerId = m01;
shapes = (
{
closed = 1;
nodes = (
(516,23,o),
(553,-12,o),
(602,-12,qs),
(604,-12,ls),
(653,-12,o),
(689,23,o),
(689,64,qs),
(689,1298,l),
(516,1298,l),
(516,64,ls)
);
},
{
closed = 1;
nodes = (
(138,1374,o),
(104,1336,o),
(104,1291,qs),
(104,1246,o),
(138,1208,o),
(178,1208,qs),
(1028,1208,ls),
(1069,1208,o),
(1102,1246,o),
(1102,1291,qs),
(1102,1336,o),
(1069,1374,o),
(1028,1374,qs),
(178,1374,ls)
);
}
);
userData = {
assembly = "PUSHW[ ]	/* 1 value pushed */
0 
CALL[ ]	/* CallFunction */
SVTCA[0]	/* SetFreedomAndProjectionVectorToAxis */
PUSHW[ ]	/* 1 value pushed */
0 
RCVT[ ]	/* ReadCVT */
IF[ ]	/* If */
PUSHW[ ]	/* 1 value pushed */
5 
MDAP[1]	/* MoveDirectAbsPt */
ELSE[ ]	/* Else */
PUSHW[ ]	/* 2 values pushed */
5 21 
MIAP[0]	/* MoveIndirectAbsPt */
EIF[ ]	/* EndIf */
PUSHW[ ]	/* 3 values pushed */
10 16 3 
CALL[ ]	/* CallFunction */
SVTCA[1]	/* SetFreedomAndProjectionVectorToAxis */
PUSHW[ ]	/* 3 values pushed */
1 0 3 
CALL[ ]	/* CallFunction */
IUP[0]	/* InterpolateUntPts */
IUP[1]	/* InterpolateUntPts */";
};
width = 1204;
}
);
note = T;
unicode = 84;
},
{
glyphname = Tbar;
lastChange = "2022-05-04 00:13:31 +0000";
layers = (
{
layerId = m01;
shapes = (
{
closed = 1;
nodes = (
(694,1208,l),
(1033,1208,ls),
(1073,1208,o),
(1107,1246,o),
(1107,1291,qs),
(1107,1336,o),
(1073,1374,o),
(1033,1374,qs),
(183,1374,ls),
(142,1374,o),
(109,1336,o),
(109,1291,qs),
(109,1246,o),
(142,1208,o),
(183,1208,qs),
(521,1208,l),
(521,683,l),
(325,683,ls),
(285,683,o),
(250,645,o),
(250,600,qs),
(250,555,o),
(285,516,o),
(325,516,qs),
(521,516,l),
(521,64,ls),
(521,23,o),
(558,-12,o),
(607,-12,qs),
(609,-12,ls),
(658,-12,o),
(694,23,o),
(694,64,qs),
(694,516,l),
(881,516,ls),
(922,516,o),
(955,555,o),
(955,600,qs),
(955,645,o),
(922,683,o),
(881,683,qs),
(694,683,l)
);
}
);
userData = {
assembly = "PUSHW[ ]	/* 1 value pushed */
0 
CALL[ ]	/* CallFunction */
SVTCA[0]	/* SetFreedomAndProjectionVectorToAxis */
PUSHW[ ]	/* 1 value pushed */
0 
RCVT[ ]	/* ReadCVT */
IF[ ]	/* If */
PUSHW[ ]	/* 1 value pushed */
11 
MDAP[1]	/* MoveDirectAbsPt */
ELSE[ ]	/* Else */
PUSHW[ ]	/* 2 values pushed */
11 21 
MIAP[0]	/* MoveIndirectAbsPt */
EIF[ ]	/* EndIf */
PUSHW[ ]	/* 3 values pushed */
32 26 3 
CALL[ ]	/* CallFunction */
PUSHW[ ]	/* 3 values pushed */
0 6 3 
CALL[ ]	/* CallFunction */
PUSHW[ ]	/* 1 value pushed */
6 
SRP0[ ]	/* SetRefPoint0 */
PUSHW[ ]	/* 1 value pushed */
16 
MDRP[10000]	/* MoveDirectRelPt */
PUSHW[ ]	/* 1 value pushed */
0 
SRP0[ ]	/* SetRefPoint0 */
PUSHW[ ]	/* 1 value pushed */
23 
MDRP[10000]	/* MoveDirectRelPt */
PUSHW[ ]	/* 1 value pushed */
26 
SRP0[ ]	/* SetRefPoint0 */
PUSHW[ ]	/* 1 value pushed */
39 
MDRP[10000]	/* MoveDirectRelPt */
SVTCA[1]	/* SetFreedomAndProjectionVectorToAxis */
PUSHW[ ]	/* 3 values pushed */
8 15 3 
CALL[ ]	/* CallFunction */
PUSHW[ ]	/* 1 value pushed */
15 
SRP0[ ]	/* SetRefPoint0 */
PUSHW[ ]	/* 1 value pushed */
24 
MDRP[10000]	/* MoveDirectRelPt */
PUSHW[ ]	/* 1 value pushed */
8 
SRP0[ ]	/* SetRefPoint0 */
PUSHW[ ]	/* 1 value pushed */
40 
MDRP[10000]	/* MoveDirectRelPt */
IUP[0]	/* InterpolateUntPts */
IUP[1]	/* InterpolateUntPts */";
};
width = 1204;
}
);
note = Tbar;
unicode = 358;
},
{
glyphname = U;
lastChange = "2022-05-04 00:13:31 +0000";
layers = (
{
layerId = m01;
shapes = (
{
closed = 1;
nodes = (
(914,1386,o),
(878,1351,o),
(878,1311,qs),
(878,501,ls),
(878,320,o),
(733,146,o),
(603,146,qs),
(472,146,o),
(329,320,o),
(329,501,qs),
(329,1311,ls),
(329,1351,o),
(292,1386,o),
(243,1386,qs),
(241,1386,ls),
(192,1386,o),
(155,1351,o),
(155,1311,qs),
(155,478,ls),
(155,354,o),
(221,166,o),
(339,39,o),
(504,-25,o),
(603,-25,qs),
(703,-25,o),
(867,39,o),
(985,166,o),
(1050,354,o),
(1050,478,qs),
(1050,1311,ls),
(1050,1351,o),
(1013,1386,o),
(965,1386,qs),
(962,1386,ls)
);
}
);
userData = {
assembly = "PUSHW[ ]	/* 1 value pushed */
0 
CALL[ ]	/* CallFunction */
SVTCA[0]	/* SetFreedomAndProjectionVectorToAxis */
PUSHW[ ]	/* 1 value pushed */
0 
MDAP[1]	/* MoveDirectAbsPt */
PUSHW[ ]	/* 1 value pushed */
18 
MDAP[1]	/* MoveDirectAbsPt */
PUSHW[ ]	/* 1 value pushed */
0 
RCVT[ ]	/* ReadCVT */
IF[ ]	/* If */
PUSHW[ ]	/* 1 value pushed */
9 
MDAP[1]	/* MoveDirectAbsPt */
ELSE[ ]	/* Else */
PUSHW[ ]	/* 2 values pushed */
9 21 
MIAP[0]	/* MoveIndirectAbsPt */
EIF[ ]	/* EndIf */
PUSHW[ ]	/* 1 value pushed */
26 
MDRP[11100]	/* MoveDirectRelPt */
NPUSHW[ ]	/* 27 values pushed */
7 26 23 26 39 26 55 26 71 26 87 26 103 26 119 26 135 26 151 26 167 26 183 26 199 26 13 
DELTAP1[ ]	/* DeltaExceptionP1 */
NPUSHW[ ]	/* 5 values pushed */
214 26 230 26 2 
DELTAP1[ ]	/* DeltaExceptionP1 */
SVTCA[1]	/* SetFreedomAndProjectionVectorToAxis */
PUSHW[ ]	/* 1 value pushed */
34 
MDAP[1]	/* MoveDirectAbsPt */
PUSHW[ ]	/* 1 value pushed */
29 
MDAP[1]	/* MoveDirectAbsPt */
PUSHW[ ]	/* 1 value pushed */
4 
MDRP[11100]	/* MoveDirectRelPt */
PUSHW[ ]	/* 1 value pushed */
34 
SRP0[ ]	/* SetRefPoint0 */
PUSHW[ ]	/* 1 value pushed */
14 
MDRP[10000]	/* MoveDirectRelPt */
PUSHW[ ]	/* 1 value pushed */
14 
MDAP[1]	/* MoveDirectAbsPt */
PUSHW[ ]	/* 1 value pushed */
23 
MDRP[11100]	/* MoveDirectRelPt */
IUP[0]	/* InterpolateUntPts */
IUP[1]	/* InterpolateUntPts */";
};
width = 1204;
}
);
note = U;
unicode = 85;
},
{
glyphname = V;
lastChange = "2022-05-04 00:13:31 +0000";
layers = (
{
layerId = m01;
shapes = (
{
closed = 1;
nodes = (
(688,521,o),
(601,248,q),
(256,1333,ls),
(239,1386,o),
(192,1386,qs),
(177,1386,o),
(139,1377,o),
(104,1357,o),
(81,1329,o),
(81,1311,qs),
(81,1298,o),
(87,1277,qs),
(483,50,ls),
(497,9,o),
(552,-25,o),
(601,-25,qs),
(650,-25,o),
(706,9,o),
(719,50,qs),
(819,358,o),
(1015,969,o),
(1114,1277,qs),
(1119,1289,o),
(1121,1305,o),
(1121,1310,qs),
(1121,1329,o),
(1097,1357,o),
(1062,1377,o),
(1024,1386,o),
(1010,1386,qs),
(987,1386,o),
(954,1361,o),
(946,1333,qs),
(859,1061,o)
);
}
);
userData = {
assembly = "PUSHW[ ]	/* 1 value pushed */
0 
CALL[ ]	/* CallFunction */
SVTCA[0]	/* SetFreedomAndProjectionVectorToAxis */
PUSHW[ ]	/* 1 value pushed */
3 
MDAP[1]	/* MoveDirectAbsPt */
PUSHW[ ]	/* 1 value pushed */
28 
MDAP[1]	/* MoveDirectAbsPt */
PUSHW[ ]	/* 1 value pushed */
0 
RCVT[ ]	/* ReadCVT */
IF[ ]	/* If */
PUSHW[ ]	/* 1 value pushed */
17 
MDAP[1]	/* MoveDirectAbsPt */
ELSE[ ]	/* Else */
PUSHW[ ]	/* 2 values pushed */
17 21 
MIAP[0]	/* MoveIndirectAbsPt */
EIF[ ]	/* EndIf */
PUSHW[ ]	/* 3 values pushed */
31 17 3 
SRP1[ ]	/* SetRefPoint1 */
SRP2[ ]	/* SetRefPoint2 */
IP[ ]	/* InterpolatePts */
IUP[0]	/* InterpolateUntPts */
IUP[1]	/* InterpolateUntPts */";
};
width = 1204;
}
);
note = V;
unicode = 86;
},
{
glyphname = W;
lastChange = "2022-05-04 00:13:31 +0000";
layers = (
{
layerId = m01;
shapes = (
{
closed = 1;
nodes = (
(937,965,o),
(924,845,qs),
(911,723,o),
(883,479,o),
(871,359,q),
(684,978,ls),
(679,1000,o),
(639,1025,o),
(599,1025,qs),
(559,1025,o),
(520,1002,o),
(513,978,qs),
(506,956,o),
(487,894,o),
(467,826,o),
(446,757,o),
(430,701,o),
(418,662,o),
(417,659,qs),
(391,573,o),
(349,432,o),
(328,359,q),
(222,1319,ls),
(219,1354,o),
(184,1386,o),
(145,1386,qs),
(132,1386,o),
(98,1381,o),
(68,1367,o),
(47,1343,o),
(47,1322,qs),
(47,1317,o),
(49,1308,o),
(50,1303,qs),
(50,1299,ls),
(87,984,o),
(160,365,o),
(197,50,qs),
(203,7,o),
(251,-25,o),
(292,-25,qs),
(384,-25,o),
(406,50,qs),
(430,132,o),
(481,302,o),
(504,375,qs),
(512,402,o),
(520,427,o),
(526,447,o),
(534,472,o),
(550,525,o),
(577,615,o),
(599,689,q),
(791,50,ls),
(804,13,o),
(857,-25,o),
(905,-25,qs),
(947,-25,o),
(995,7,o),
(1000,50,qs),
(1015,175,ls),
(1027,267,o),
(1051,481,o),
(1077,699,o),
(1102,914,o),
(1124,1101,o),
(1142,1253,o),
(1147,1299,qs),
(1147,1303,ls),
(1149,1308,o),
(1150,1317,o),
(1150,1322,qs),
(1150,1342,o),
(1130,1367,o),
(1101,1381,o),
(1068,1386,o),
(1054,1386,qs),
(1013,1386,o),
(980,1354,o),
(976,1319,qs),
(963,1200,o)
);
}
);
userData = {
assembly = "PUSHW[ ]	/* 1 value pushed */
0 
CALL[ ]	/* CallFunction */
SVTCA[0]	/* SetFreedomAndProjectionVectorToAxis */
PUSHW[ ]	/* 1 value pushed */
3 
MDAP[1]	/* MoveDirectAbsPt */
PUSHW[ ]	/* 1 value pushed */
54 
MDAP[1]	/* MoveDirectAbsPt */
PUSHW[ ]	/* 1 value pushed */
68 
MDAP[1]	/* MoveDirectAbsPt */
PUSHW[ ]	/* 1 value pushed */
74 
MDAP[1]	/* MoveDirectAbsPt */
PUSHW[ ]	/* 1 value pushed */
0 
RCVT[ ]	/* ReadCVT */
IF[ ]	/* If */
PUSHW[ ]	/* 1 value pushed */
23 
MDAP[1]	/* MoveDirectAbsPt */
ELSE[ ]	/* Else */
PUSHW[ ]	/* 2 values pushed */
23 21 
MIAP[0]	/* MoveIndirectAbsPt */
EIF[ ]	/* EndIf */
PUSHW[ ]	/* 1 value pushed */
0 
RCVT[ ]	/* ReadCVT */
IF[ ]	/* If */
PUSHW[ ]	/* 1 value pushed */
39 
MDAP[1]	/* MoveDirectAbsPt */
ELSE[ ]	/* Else */
PUSHW[ ]	/* 2 values pushed */
39 21 
MIAP[0]	/* MoveIndirectAbsPt */
EIF[ ]	/* EndIf */
PUSHW[ ]	/* 3 values pushed */
27 23 3 
SRP1[ ]	/* SetRefPoint1 */
SRP2[ ]	/* SetRefPoint2 */
IP[ ]	/* InterpolatePts */
PUSHW[ ]	/* 3 values pushed */
58 23 3 
SRP1[ ]	/* SetRefPoint1 */
SRP2[ ]	/* SetRefPoint2 */
IP[ ]	/* InterpolatePts */
PUSHW[ ]	/* 3 values pushed */
75 23 3 
SRP1[ ]	/* SetRefPoint1 */
SRP2[ ]	/* SetRefPoint2 */
IP[ ]	/* InterpolatePts */
IUP[0]	/* InterpolateUntPts */
IUP[1]	/* InterpolateUntPts */";
};
width = 1204;
}
);
note = W;
unicode = 87;
},
{
glyphname = X;
lastChange = "2022-05-04 00:13:31 +0000";
layers = (
{
layerId = m01;
shapes = (
{
closed = 1;
nodes = (
(822,1234,o),
(777,1154,o),
(738,1085,o),
(724,1059,qs),
(681,984,o),
(597,836,o),
(555,761,q),
(556,761,l),
(515,717,l),
(147,103,ls),
(138,89,o),
(131,66,o),
(131,58,qs),
(131,42,o),
(156,14,o),
(192,-7,o),
(233,-19,o),
(247,-19,qs),
(283,-19,o),
(303,17,qs),
(342,82,o),
(374,140,o),
(386,161,o),
(388,163,o),
(399,184,o),
(433,242,o),
(470,307,qs),
(491,344,o),
(545,439,o),
(596,526,o),
(633,591,o),
(637,597,q),
(637,597,l),
(679,644,l),
(1048,1271,ls),
(1064,1299,o),
(1064,1317,qs),
(1064,1333,o),
(1039,1361,o),
(1002,1381,o),
(961,1393,o),
(947,1393,qs),
(931,1393,o),
(903,1377,o),
(892,1357,qs),
(870,1318,o)
);
},
{
closed = 1;
nodes = (
(564,622,l),
(567,622,l),
(563,622,l),
(915,17,l),
(924,-2,o),
(954,-19,o),
(970,-19,qs),
(985,-19,o),
(1026,-7,o),
(1062,14,o),
(1087,43,o),
(1087,59,qs),
(1087,78,o),
(1071,103,qs),
(698,723,l),
(665,758,l),
(661,758,l),
(666,758,l),
(327,1357,l),
(303,1393,o),
(270,1393,qs),
(256,1393,o),
(215,1381,o),
(179,1361,o),
(153,1333,o),
(153,1317,qs),
(153,1300,o),
(170,1271,qs),
(528,661,l)
);
}
);
userData = {
assembly = "PUSHW[ ]	/* 1 value pushed */
0 
CALL[ ]	/* CallFunction */
SVTCA[0]	/* SetFreedomAndProjectionVectorToAxis */
PUSHW[ ]	/* 1 value pushed */
3 
MDAP[1]	/* MoveDirectAbsPt */
PUSHW[ ]	/* 1 value pushed */
53 
MDAP[1]	/* MoveDirectAbsPt */
PUSHW[ ]	/* 1 value pushed */
0 
RCVT[ ]	/* ReadCVT */
IF[ ]	/* If */
PUSHW[ ]	/* 1 value pushed */
27 
MDAP[1]	/* MoveDirectAbsPt */
ELSE[ ]	/* Else */
PUSHW[ ]	/* 2 values pushed */
27 21 
MIAP[0]	/* MoveIndirectAbsPt */
EIF[ ]	/* EndIf */
PUSHW[ ]	/* 1 value pushed */
0 
RCVT[ ]	/* ReadCVT */
IF[ ]	/* If */
PUSHW[ ]	/* 1 value pushed */
67 
MDAP[1]	/* MoveDirectAbsPt */
ELSE[ ]	/* Else */
PUSHW[ ]	/* 2 values pushed */
67 21 
MIAP[0]	/* MoveIndirectAbsPt */
EIF[ ]	/* EndIf */
SVTCA[1]	/* SetFreedomAndProjectionVectorToAxis */
PUSHW[ ]	/* 3 values pushed */
62 32 3 
CALL[ ]	/* CallFunction */
NPUSHW[ ]	/* 27 values pushed */
6 62 22 62 38 62 54 62 70 62 86 62 102 62 118 62 134 62 150 62 166 62 182 62 198 62 13 
DELTAP1[ ]	/* DeltaExceptionP1 */
NPUSHW[ ]	/* 5 values pushed */
213 62 229 62 2 
DELTAP1[ ]	/* DeltaExceptionP1 */
IUP[0]	/* InterpolateUntPts */
IUP[1]	/* InterpolateUntPts */";
};
width = 1204;
}
);
note = X;
unicode = 88;
},
{
glyphname = Y;
lastChange = "2022-05-04 00:13:31 +0000";
layers = (
{
layerId = m01;
shapes = (
{
closed = 1;
nodes = (
(516,23,o),
(553,-12,o),
(602,-12,qs),
(604,-12,ls),
(653,-12,o),
(689,23,o),
(689,64,qs),
(689,639,l),
(516,639,l),
(516,64,ls)
);
},
{
closed = 1;
nodes = (
(662,519,l),
(1083,1269,ls),
(1099,1298,o),
(1099,1314,qs),
(1099,1330,o),
(1075,1358,o),
(1039,1379,o),
(999,1391,o),
(984,1391,qs),
(951,1391,o),
(930,1357,q),
(542,658,l)
);
},
{
closed = 1;
nodes = (
(667,651,l),
(276,1357,ls),
(256,1391,o),
(221,1391,qs),
(206,1391,o),
(167,1379,o),
(131,1358,o),
(107,1330,o),
(107,1315,qs),
(107,1300,o),
(124,1269,qs),
(533,537,l)
);
}
);
userData = {
assembly = "PUSHW[ ]	/* 1 value pushed */
0 
CALL[ ]	/* CallFunction */
SVTCA[0]	/* SetFreedomAndProjectionVectorToAxis */
PUSHW[ ]	/* 1 value pushed */
12 
MDAP[1]	/* MoveDirectAbsPt */
PUSHW[ ]	/* 1 value pushed */
29 
MDAP[1]	/* MoveDirectAbsPt */
PUSHW[ ]	/* 1 value pushed */
0 
RCVT[ ]	/* ReadCVT */
IF[ ]	/* If */
PUSHW[ ]	/* 1 value pushed */
5 
MDAP[1]	/* MoveDirectAbsPt */
ELSE[ ]	/* Else */
PUSHW[ ]	/* 2 values pushed */
5 21 
MIAP[0]	/* MoveIndirectAbsPt */
EIF[ ]	/* EndIf */
PUSHW[ ]	/* 3 values pushed */
20 5 12 
SRP1[ ]	/* SetRefPoint1 */
SRP2[ ]	/* SetRefPoint2 */
IP[ ]	/* InterpolatePts */
SVTCA[1]	/* SetFreedomAndProjectionVectorToAxis */
PUSHW[ ]	/* 3 values pushed */
1 0 3 
CALL[ ]	/* CallFunction */
PUSHW[ ]	/* 3 values pushed */
20 0 1 
SRP1[ ]	/* SetRefPoint1 */
SRP2[ ]	/* SetRefPoint2 */
IP[ ]	/* InterpolatePts */
IUP[0]	/* InterpolateUntPts */
IUP[1]	/* InterpolateUntPts */";
};
width = 1204;
}
);
note = Y;
unicode = 89;
},
{
glyphname = Z;
lastChange = "2022-05-04 00:13:31 +0000";
layers = (
{
layerId = m01;
shapes = (
{
closed = 1;
nodes = (
(804,1217,l),
(164,129,ls),
(156,116,o),
(148,93,o),
(148,73,qs),
(148,32,o),
(185,0,o),
(222,0,qs),
(387,0,l),
(386,157,l),
(383,157,l),
(1026,1251,ls),
(1032,1261,o),
(1037,1283,o),
(1037,1299,qs),
(1037,1340,o),
(1003,1374,o),
(963,1374,qs),
(801,1374,l),
(801,1217,l)
);
},
{
closed = 1;
nodes = (
(981,0,ls),
(1021,0,o),
(1055,38,o),
(1055,83,qs),
(1055,129,o),
(1021,167,o),
(981,167,qs),
(289,167,l),
(289,0,l)
);
},
{
closed = 1;
nodes = (
(208,1374,o),
(174,1336,o),
(174,1291,qs),
(174,1246,o),
(208,1208,o),
(248,1208,qs),
(889,1208,l),
(889,1374,l),
(248,1374,ls)
);
}
);
userData = {
assembly = "PUSHW[ ]	/* 1 value pushed */
0 
CALL[ ]	/* CallFunction */
SVTCA[0]	/* SetFreedomAndProjectionVectorToAxis */
PUSHW[ ]	/* 1 value pushed */
0 
RCVT[ ]	/* ReadCVT */
IF[ ]	/* If */
PUSHW[ ]	/* 1 value pushed */
10 
MDAP[1]	/* MoveDirectAbsPt */
ELSE[ ]	/* Else */
PUSHW[ ]	/* 2 values pushed */
10 21 
MIAP[0]	/* MoveIndirectAbsPt */
EIF[ ]	/* EndIf */
PUSHW[ ]	/* 1 value pushed */
0 
RCVT[ ]	/* ReadCVT */
IF[ ]	/* If */
PUSHW[ ]	/* 1 value pushed */
27 
MDAP[1]	/* MoveDirectAbsPt */
ELSE[ ]	/* Else */
PUSHW[ ]	/* 2 values pushed */
27 21 
MIAP[0]	/* MoveIndirectAbsPt */
EIF[ ]	/* EndIf */
PUSHW[ ]	/* 3 values pushed */
29 30 3 
CALL[ ]	/* CallFunction */
PUSHW[ ]	/* 1 value pushed */
29 
SRP0[ ]	/* SetRefPoint0 */
PUSHW[ ]	/* 1 value pushed */
0 
MDRP[10000]	/* MoveDirectRelPt */
PUSHW[ ]	/* 1 value pushed */
10 
SRP0[ ]	/* SetRefPoint0 */
PUSHW[ ]	/* 1 value pushed */
8 
MDRP[11100]	/* MoveDirectRelPt */
PUSHW[ ]	/* 1 value pushed */
30 
SRP0[ ]	/* SetRefPoint0 */
PUSHW[ ]	/* 1 value pushed */
18 
MDRP[10000]	/* MoveDirectRelPt */
PUSHW[ ]	/* 1 value pushed */
18 
MDAP[1]	/* MoveDirectAbsPt */
PUSHW[ ]	/* 1 value pushed */
8 
SRP0[ ]	/* SetRefPoint0 */
PUSHW[ ]	/* 1 value pushed */
20 
MDRP[10000]	/* MoveDirectRelPt */
PUSHW[ ]	/* 1 value pushed */
21 
MDRP[10000]	/* MoveDirectRelPt */
SVTCA[1]	/* SetFreedomAndProjectionVectorToAxis */
PUSHW[ ]	/* 3 values pushed */
24 14 3 
CALL[ ]	/* CallFunction */
NPUSHW[ ]	/* 27 values pushed */
6 24 22 24 38 24 54 24 70 24 86 24 102 24 118 24 134 24 150 24 166 24 182 24 198 24 13 
DELTAP1[ ]	/* DeltaExceptionP1 */
NPUSHW[ ]	/* 5 values pushed */
213 24 229 24 2 
DELTAP1[ ]	/* DeltaExceptionP1 */
IUP[0]	/* InterpolateUntPts */
IUP[1]	/* InterpolateUntPts */";
};
width = 1204;
}
);
note = Z;
unicode = 90;
},
{
glyphname = a;
lastChange = "2022-05-04 00:13:31 +0000";
layers = (
{
layerId = m01;
shapes = (
{
closed = 1;
nodes = (
(207,963,o),
(192,946,o),
(181,931,o),
(177,926,qs),
(154,894,o),
(174,843,o),
(220,817,qs),
(245,804,o),
(299,821,o),
(322,844,qs),
(351,873,o),
(413,905,o),
(479,923,o),
(547,927,o),
(580,927,qs),
(652,927,o),
(749,902,o),
(809,848,o),
(836,765,o),
(836,710,qs),
(836,310,l),
(843,236,o),
(846,161,qs),
(846,64,ls),
(846,22,o),
(883,-12,o),
(927,-12,qs),
(930,-12,ls),
(974,-12,o),
(1010,22,o),
(1010,64,qs),
(1010,710,ls),
(1010,900,o),
(806,1095,o),
(587,1095,qs),
(542,1095,o),
(442,1084,o),
(345,1057,o),
(259,1015,o),
(229,985,qs),
(223,980,o)
);
},
{
closed = 1;
nodes = (
(188,111,o),
(278,22,o),
(406,-25,o),
(487,-25,qs),
(630,-25,o),
(821,64,o),
(883,159,q),
(871,367,l),
(741,138,o),
(497,138,qs),
(410,138,o),
(316,230,o),
(316,317,qs),
(316,354,o),
(349,423,o),
(409,476,o),
(499,507,o),
(556,507,qs),
(675,507,o),
(829,459,o),
(875,408,q),
(877,567,l),
(851,594,o),
(791,633,o),
(712,659,o),
(614,670,o),
(551,670,qs),
(456,670,o),
(303,616,o),
(196,520,o),
(139,391,o),
(139,318,qs),
(139,239,o)
);
}
);
userData = {
assembly = "PUSHW[ ]	/* 1 value pushed */
0 
CALL[ ]	/* CallFunction */
SVTCA[0]	/* SetFreedomAndProjectionVectorToAxis */
PUSHW[ ]	/* 1 value pushed */
0 
RCVT[ ]	/* ReadCVT */
IF[ ]	/* If */
PUSHW[ ]	/* 1 value pushed */
12 
MDAP[1]	/* MoveDirectAbsPt */
ELSE[ ]	/* Else */
PUSHW[ ]	/* 2 values pushed */
12 21 
MIAP[0]	/* MoveIndirectAbsPt */
EIF[ ]	/* EndIf */
PUSHW[ ]	/* 1 value pushed */
0 
RCVT[ ]	/* ReadCVT */
IF[ ]	/* If */
PUSHW[ ]	/* 1 value pushed */
69 
MDAP[1]	/* MoveDirectAbsPt */
ELSE[ ]	/* Else */
PUSHW[ ]	/* 2 values pushed */
69 21 
MIAP[0]	/* MoveIndirectAbsPt */
EIF[ ]	/* EndIf */
PUSHW[ ]	/* 3 values pushed */
5 25 3 
CALL[ ]	/* CallFunction */
PUSHW[ ]	/* 3 values pushed */
46 55 3 
CALL[ ]	/* CallFunction */
PUSHW[ ]	/* 1 value pushed */
69 
SRP0[ ]	/* SetRefPoint0 */
PUSHW[ ]	/* 1 value pushed */
63 
MDRP[11100]	/* MoveDirectRelPt */
NPUSHW[ ]	/* 27 values pushed */
7 63 23 63 39 63 55 63 71 63 87 63 103 63 119 63 135 63 151 63 167 63 183 63 199 63 13 
DELTAP1[ ]	/* DeltaExceptionP1 */
NPUSHW[ ]	/* 5 values pushed */
214 63 230 63 2 
DELTAP1[ ]	/* DeltaExceptionP1 */
SVTCA[1]	/* SetFreedomAndProjectionVectorToAxis */
PUSHW[ ]	/* 1 value pushed */
74 
MDAP[1]	/* MoveDirectAbsPt */
PUSHW[ ]	/* 1 value pushed */
19 
MDAP[1]	/* MoveDirectAbsPt */
PUSHW[ ]	/* 1 value pushed */
9 
MDRP[11100]	/* MoveDirectRelPt */
PUSHW[ ]	/* 1 value pushed */
19 
SRP0[ ]	/* SetRefPoint0 */
PUSHW[ ]	/* 1 value pushed */
16 
MDRP[10000]	/* MoveDirectRelPt */
PUSHW[ ]	/* 1 value pushed */
16 
MDAP[1]	/* MoveDirectAbsPt */
PUSHW[ ]	/* 1 value pushed */
74 
SRP0[ ]	/* SetRefPoint0 */
PUSHW[ ]	/* 1 value pushed */
41 
MDRP[10000]	/* MoveDirectRelPt */
PUSHW[ ]	/* 1 value pushed */
41 
MDAP[1]	/* MoveDirectAbsPt */
PUSHW[ ]	/* 1 value pushed */
60 
MDRP[11100]	/* MoveDirectRelPt */
NPUSHW[ ]	/* 27 values pushed */
6 60 22 60 38 60 54 60 70 60 86 60 102 60 118 60 134 60 150 60 166 60 182 60 198 60 13 
DELTAP1[ ]	/* DeltaExceptionP1 */
NPUSHW[ ]	/* 5 values pushed */
213 60 229 60 2 
DELTAP1[ ]	/* DeltaExceptionP1 */
PUSHW[ ]	/* 1 value pushed */
30 
MDRP[10000]	/* MoveDirectRelPt */
PUSHW[ ]	/* 1 value pushed */
30 
MDAP[1]	/* MoveDirectAbsPt */
PUSHW[ ]	/* 3 values pushed */
52 19 9 
SRP1[ ]	/* SetRefPoint1 */
SRP2[ ]	/* SetRefPoint2 */
IP[ ]	/* InterpolatePts */
PUSHW[ ]	/* 3 values pushed */
65 19 9 
SRP1[ ]	/* SetRefPoint1 */
SRP2[ ]	/* SetRefPoint2 */
IP[ ]	/* InterpolatePts */
IUP[0]	/* InterpolateUntPts */
IUP[1]	/* InterpolateUntPts */";
};
width = 1204;
}
);
note = a;
unicode = 97;
},
{
glyphname = aogonek;
lastChange = "2022-05-04 00:13:31 +0000";
layers = (
{
layerId = m01;
shapes = (
{
closed = 1;
nodes = (
(207,948,o),
(207,926,qs),
(207,910,o),
(219,874,o),
(240,845,o),
(269,826,o),
(285,826,qs),
(296,826,o),
(315,833,o),
(321,836,qs),
(394,879,o),
(550,927,o),
(626,927,qs),
(738,927,o),
(836,821,o),
(836,710,qs),
(836,618,l),
(770,645,o),
(628,670,o),
(555,670,qs),
(469,670,o),
(317,632,o),
(205,548,o),
(139,413,o),
(139,318,qs),
(139,235,o),
(191,107,o),
(283,20,o),
(411,-25,o),
(487,-25,qs),
(593,-25,o),
(772,53,o),
(846,123,q),
(846,37,l),
(852,37,l),
(757,-51,o),
(646,-232,o),
(646,-330,qs),
(646,-377,o),
(674,-457,o),
(729,-515,o),
(811,-547,o),
(864,-547,qs),
(902,-547,o),
(990,-530,o),
(1022,-516,qs),
(1047,-506,o),
(1064,-479,o),
(1064,-456,qs),
(1064,-442,o),
(1059,-415,o),
(1047,-391,o),
(1026,-376,o),
(1010,-376,qs),
(1005,-376,o),
(1003,-377,q),
(998,-377,l),
(975,-383,o),
(912,-389,o),
(900,-389,qs),
(864,-389,o),
(826,-350,o),
(826,-300,qs),
(826,-267,o),
(843,-200,o),
(882,-126,o),
(945,-43,o),
(990,5,qs),
(1000,17,o),
(1011,44,o),
(1011,64,qs),
(1011,710,ls),
(1011,901,o),
(817,1095,o),
(633,1095,qs),
(580,1095,o),
(471,1079,o),
(369,1051,o),
(281,1013,o),
(249,990,qs),
(229,977,o)
);
},
{
closed = 1;
nodes = (
(836,455,l),
(836,329,l),
(839,329,l),
(768,242,o),
(594,138,o),
(498,138,qs),
(409,138,o),
(316,232,o),
(316,317,qs),
(316,371,o),
(351,442,o),
(416,487,o),
(505,507,o),
(558,507,qs),
(624,507,o),
(777,482,o),
(846,455,q),
(848,455,l)
);
}
);
userData = {
assembly = "PUSHW[ ]	/* 1 value pushed */
0 
CALL[ ]	/* CallFunction */
SVTCA[0]	/* SetFreedomAndProjectionVectorToAxis */
PUSHW[ ]	/* 1 value pushed */
0 
RCVT[ ]	/* ReadCVT */
IF[ ]	/* If */
PUSHW[ ]	/* 1 value pushed */
50 
MDAP[1]	/* MoveDirectAbsPt */
ELSE[ ]	/* Else */
PUSHW[ ]	/* 2 values pushed */
50 21 
MIAP[0]	/* MoveIndirectAbsPt */
EIF[ ]	/* EndIf */
PUSHW[ ]	/* 3 values pushed */
20 37 3 
CALL[ ]	/* CallFunction */
PUSHW[ ]	/* 3 values pushed */
5 67 3 
CALL[ ]	/* CallFunction */
PUSHW[ ]	/* 3 values pushed */
60 84 3 
CALL[ ]	/* CallFunction */
PUSHW[ ]	/* 1 value pushed */
20 
SRP0[ ]	/* SetRefPoint0 */
PUSHW[ ]	/* 1 value pushed */
23 
MDRP[10000]	/* MoveDirectRelPt */
PUSHW[ ]	/* 1 value pushed */
23 
MDAP[1]	/* MoveDirectAbsPt */
PUSHW[ ]	/* 1 value pushed */
20 
SRP0[ ]	/* SetRefPoint0 */
PUSHW[ ]	/* 1 value pushed */
26 
MDRP[10000]	/* MoveDirectRelPt */
PUSHW[ ]	/* 1 value pushed */
26 
MDAP[1]	/* MoveDirectAbsPt */
PUSHW[ ]	/* 1 value pushed */
50 
SRP0[ ]	/* SetRefPoint0 */
PUSHW[ ]	/* 1 value pushed */
92 
MDRP[11100]	/* MoveDirectRelPt */
NPUSHW[ ]	/* 27 values pushed */
7 92 23 92 39 92 55 92 71 92 87 92 103 92 119 92 135 92 151 92 167 92 183 92 199 92 13 
DELTAP1[ ]	/* DeltaExceptionP1 */
NPUSHW[ ]	/* 5 values pushed */
214 92 230 92 2 
DELTAP1[ ]	/* DeltaExceptionP1 */
PUSHW[ ]	/* 3 values pushed */
47 50 92 
SRP1[ ]	/* SetRefPoint1 */
SRP2[ ]	/* SetRefPoint2 */
IP[ ]	/* InterpolatePts */
PUSHW[ ]	/* 3 values pushed */
63 84 60 
SRP1[ ]	/* SetRefPoint1 */
SRP2[ ]	/* SetRefPoint2 */
IP[ ]	/* InterpolatePts */
SVTCA[1]	/* SetFreedomAndProjectionVectorToAxis */
PUSHW[ ]	/* 3 values pushed */
89 55 3 
CALL[ ]	/* CallFunction */
PUSHW[ ]	/* 3 values pushed */
8 64 3 
CALL[ ]	/* CallFunction */
PUSHW[ ]	/* 1 value pushed */
64 
SRP0[ ]	/* SetRefPoint0 */
PUSHW[ ]	/* 1 value pushed */
17 
MDRP[10000]	/* MoveDirectRelPt */
PUSHW[ ]	/* 1 value pushed */
17 
MDAP[1]	/* MoveDirectAbsPt */
PUSHW[ ]	/* 1 value pushed */
64 
SRP0[ ]	/* SetRefPoint0 */
PUSHW[ ]	/* 1 value pushed */
42 
MDRP[11100]	/* MoveDirectRelPt */
PUSHW[ ]	/* 1 value pushed */
64 
SRP0[ ]	/* SetRefPoint0 */
PUSHW[ ]	/* 1 value pushed */
46 
MDRP[10000]	/* MoveDirectRelPt */
PUSHW[ ]	/* 1 value pushed */
46 
MDAP[1]	/* MoveDirectAbsPt */
PUSHW[ ]	/* 3 values pushed */
47 64 8 
SRP1[ ]	/* SetRefPoint1 */
SRP2[ ]	/* SetRefPoint2 */
IP[ ]	/* InterpolatePts */
NPUSHW[ ]	/* 27 values pushed */
6 89 22 89 38 89 54 89 70 89 86 89 102 89 118 89 134 89 150 89 166 89 182 89 198 89 13 
DELTAP1[ ]	/* DeltaExceptionP1 */
NPUSHW[ ]	/* 5 values pushed */
213 89 229 89 2 
DELTAP1[ ]	/* DeltaExceptionP1 */
PUSHW[ ]	/* 1 value pushed */
64 
SRP0[ ]	/* SetRefPoint0 */
PUSHW[ ]	/* 1 value pushed */
96 
MDRP[10000]	/* MoveDirectRelPt */
PUSHW[ ]	/* 1 value pushed */
17 
SRP0[ ]	/* SetRefPoint0 */
PUSHW[ ]	/* 1 value pushed */
97 
MDRP[10000]	/* MoveDirectRelPt */
PUSHW[ ]	/* 1 value pushed */
97 
MDAP[1]	/* MoveDirectAbsPt */
IUP[0]	/* InterpolateUntPts */
IUP[1]	/* InterpolateUntPts */";
};
width = 1204;
}
);
note = aogonek;
unicode = 261;
},
{
glyphname = ae;
lastChange = "2022-05-04 00:13:31 +0000";
layers = (
{
layerId = m01;
shapes = (
{
closed = 1;
nodes = (
(589,1031,o),
(479,1095,o),
(402,1095,qs),
(362,1095,o),
(284,1078,o),
(212,1046,o),
(148,1000,o),
(124,973,qs),
(96,941,o),
(96,918,qs),
(96,904,o),
(111,871,o),
(120,859,qs),
(142,830,o),
(181,830,qs),
(193,830,o),
(219,838,o),
(229,848,qs),
(274,889,o),
(359,927,o),
(397,927,qs),
(433,927,o),
(479,896,o),
(505,836,o),
(515,751,o),
(515,697,qs),
(515,672,l),
(527,672,ls),
(421,672,o),
(247,622,o),
(124,525,o),
(56,380,o),
(56,284,qs),
(56,211,o),
(94,96,o),
(164,16,o),
(264,-25,o),
(324,-25,qs),
(408,-25,o),
(547,52,o),
(595,124,q),
(637,46,o),
(757,-25,o),
(836,-25,qs),
(914,-25,o),
(1053,38,o),
(1102,97,qs),
(1116,113,o),
(1134,145,o),
(1134,161,qs),
(1134,177,o),
(1119,210,o),
(1093,235,o),
(1061,252,o),
(1043,252,qs),
(1014,252,o),
(998,233,qs),
(958,185,o),
(882,142,o),
(843,142,qs),
(811,142,o),
(755,176,o),
(714,261,o),
(690,402,o),
(688,509,q),
(676,509,l),
(1071,509,ls),
(1109,509,o),
(1145,541,o),
(1145,578,qs),
(1145,581,ls),
(1143,697,o),
(1108,887,o),
(1035,1021,o),
(921,1095,o),
(838,1095,qs),
(764,1095,o),
(646,1028,o),
(608,961,q),
(615,961,l),
(619,973,l)
);
},
{
closed = 1;
nodes = (
(515,338,o),
(486,243,o),
(438,176,o),
(372,138,o),
(335,138,qs),
(283,138,o),
(232,212,o),
(232,281,qs),
(232,390,o),
(366,508,o),
(515,509,q),
(515,394,ls)
);
},
{
closed = 1;
nodes = (
(694,672,l),
(705,804,o),
(778,927,o),
(837,927,qs),
(870,927,o),
(915,892,o),
(945,826,o),
(962,731,o),
(966,672,q),
(978,672,l)
);
}
);
userData = {
assembly = "PUSHW[ ]	/* 1 value pushed */
0 
CALL[ ]	/* CallFunction */
SVTCA[0]	/* SetFreedomAndProjectionVectorToAxis */
PUSHW[ ]	/* 1 value pushed */
0 
RCVT[ ]	/* ReadCVT */
IF[ ]	/* If */
PUSHW[ ]	/* 1 value pushed */
36 
MDAP[1]	/* MoveDirectAbsPt */
ELSE[ ]	/* Else */
PUSHW[ ]	/* 2 values pushed */
36 21 
MIAP[0]	/* MoveIndirectAbsPt */
EIF[ ]	/* EndIf */
PUSHW[ ]	/* 1 value pushed */
0 
RCVT[ ]	/* ReadCVT */
IF[ ]	/* If */
PUSHW[ ]	/* 1 value pushed */
42 
MDAP[1]	/* MoveDirectAbsPt */
ELSE[ ]	/* Else */
PUSHW[ ]	/* 2 values pushed */
42 21 
MIAP[0]	/* MoveIndirectAbsPt */
EIF[ ]	/* EndIf */
PUSHW[ ]	/* 3 values pushed */
77 59 3 
CALL[ ]	/* CallFunction */
PUSHW[ ]	/* 3 values pushed */
102 13 3 
CALL[ ]	/* CallFunction */
PUSHW[ ]	/* 3 values pushed */
1 59 77 
SRP1[ ]	/* SetRefPoint1 */
SRP2[ ]	/* SetRefPoint2 */
IP[ ]	/* InterpolatePts */
PUSHW[ ]	/* 1 value pushed */
77 
SRP0[ ]	/* SetRefPoint0 */
PUSHW[ ]	/* 1 value pushed */
4 
MDRP[10000]	/* MoveDirectRelPt */
PUSHW[ ]	/* 1 value pushed */
13 
SRP0[ ]	/* SetRefPoint0 */
PUSHW[ ]	/* 1 value pushed */
15 
MDRP[10000]	/* MoveDirectRelPt */
PUSHW[ ]	/* 1 value pushed */
36 
SRP0[ ]	/* SetRefPoint0 */
PUSHW[ ]	/* 1 value pushed */
20 
MDRP[11100]	/* MoveDirectRelPt */
NPUSHW[ ]	/* 27 values pushed */
7 20 23 20 39 20 55 20 71 20 87 20 103 20 119 20 135 20 151 20 167 20 183 20 199 20 13 
DELTAP1[ ]	/* DeltaExceptionP1 */
NPUSHW[ ]	/* 5 values pushed */
214 20 230 20 2 
DELTAP1[ ]	/* DeltaExceptionP1 */
PUSHW[ ]	/* 3 values pushed */
39 36 20 
SRP1[ ]	/* SetRefPoint1 */
SRP2[ ]	/* SetRefPoint2 */
IP[ ]	/* InterpolatePts */
PUSHW[ ]	/* 1 value pushed */
102 
SRP0[ ]	/* SetRefPoint0 */
PUSHW[ ]	/* 1 value pushed */
52 
MDRP[10000]	/* MoveDirectRelPt */
PUSHW[ ]	/* 1 value pushed */
13 
SRP0[ ]	/* SetRefPoint0 */
PUSHW[ ]	/* 1 value pushed */
81 
MDRP[10000]	/* MoveDirectRelPt */
PUSHW[ ]	/* 1 value pushed */
20 
SRP0[ ]	/* SetRefPoint0 */
PUSHW[ ]	/* 1 value pushed */
87 
MDRP[10000]	/* MoveDirectRelPt */
PUSHW[ ]	/* 1 value pushed */
59 
SRP0[ ]	/* SetRefPoint0 */
PUSHW[ ]	/* 1 value pushed */
98 
MDRP[10000]	/* MoveDirectRelPt */
SVTCA[1]	/* SetFreedomAndProjectionVectorToAxis */
PUSHW[ ]	/* 3 values pushed */
84 47 3 
CALL[ ]	/* CallFunction */
NPUSHW[ ]	/* 27 values pushed */
6 84 22 84 38 84 54 84 70 84 86 84 102 84 118 84 134 84 150 84 166 84 182 84 198 84 13 
DELTAP1[ ]	/* DeltaExceptionP1 */
NPUSHW[ ]	/* 5 values pushed */
213 84 229 84 2 
DELTAP1[ ]	/* DeltaExceptionP1 */
IUP[0]	/* InterpolateUntPts */
IUP[1]	/* InterpolateUntPts */";
};
width = 1204;
}
);
note = ae;
unicode = 230;
},
{
glyphname = b;
lastChange = "2022-05-04 00:13:31 +0000";
layers = (
{
layerId = m01;
shapes = (
{
closed = 1;
nodes = (
(185,1531,o),
(149,1496,o),
(149,1455,qs),
(149,64,ls),
(149,23,o),
(183,-12,o),
(229,-12,qs),
(232,-12,ls),
(278,-12,o),
(311,23,o),
(311,64,qs),
(311,141,l),
(372,61,o),
(550,-25,o),
(650,-25,qs),
(742,-25,o),
(908,51,o),
(1033,196,o),
(1107,404,o),
(1107,535,qs),
(1107,666,o),
(1034,874,o),
(909,1019,o),
(743,1095,o),
(651,1095,qs),
(551,1095,o),
(379,1010,o),
(322,933,q),
(322,1455,ls),
(322,1496,o),
(285,1531,o),
(236,1531,qs),
(234,1531,ls)
);
},
{
closed = 1;
nodes = (
(887,307,o),
(809,204,o),
(701,146,o),
(635,146,qs),
(572,146,o),
(459,198,o),
(373,299,o),
(322,443,o),
(322,535,qs),
(322,628,o),
(373,771,o),
(459,872,o),
(572,924,o),
(635,924,qs),
(701,924,o),
(809,866,o),
(887,763,o),
(930,621,o),
(930,535,qs),
(930,450,o)
);
}
);
userData = {
assembly = "PUSHW[ ]	/* 1 value pushed */
0 
CALL[ ]	/* CallFunction */
SVTCA[0]	/* SetFreedomAndProjectionVectorToAxis */
PUSHW[ ]	/* 1 value pushed */
0 
RCVT[ ]	/* ReadCVT */
IF[ ]	/* If */
PUSHW[ ]	/* 1 value pushed */
17 
MDAP[1]	/* MoveDirectAbsPt */
ELSE[ ]	/* Else */
PUSHW[ ]	/* 2 values pushed */
17 21 
MIAP[0]	/* MoveIndirectAbsPt */
EIF[ ]	/* EndIf */
PUSHW[ ]	/* 1 value pushed */
0 
RCVT[ ]	/* ReadCVT */
IF[ ]	/* If */
PUSHW[ ]	/* 1 value pushed */
24 
MDAP[1]	/* MoveDirectAbsPt */
ELSE[ ]	/* Else */
PUSHW[ ]	/* 2 values pushed */
24 21 
MIAP[0]	/* MoveIndirectAbsPt */
EIF[ ]	/* EndIf */
PUSHW[ ]	/* 3 values pushed */
7 38 3 
CALL[ ]	/* CallFunction */
PUSHW[ ]	/* 3 values pushed */
4 38 7 
SRP1[ ]	/* SetRefPoint1 */
SRP2[ ]	/* SetRefPoint2 */
IP[ ]	/* InterpolatePts */
PUSHW[ ]	/* 1 value pushed */
17 
SRP0[ ]	/* SetRefPoint0 */
PUSHW[ ]	/* 1 value pushed */
48 
MDRP[11100]	/* MoveDirectRelPt */
NPUSHW[ ]	/* 27 values pushed */
7 48 23 48 39 48 55 48 71 48 87 48 103 48 119 48 135 48 151 48 167 48 183 48 199 48 13 
DELTAP1[ ]	/* DeltaExceptionP1 */
NPUSHW[ ]	/* 5 values pushed */
214 48 230 48 2 
DELTAP1[ ]	/* DeltaExceptionP1 */
PUSHW[ ]	/* 3 values pushed */
20 17 48 
SRP1[ ]	/* SetRefPoint1 */
SRP2[ ]	/* SetRefPoint2 */
IP[ ]	/* InterpolatePts */
SVTCA[1]	/* SetFreedomAndProjectionVectorToAxis */
PUSHW[ ]	/* 1 value pushed */
53 
MDAP[1]	/* MoveDirectAbsPt */
PUSHW[ ]	/* 1 value pushed */
33 
MDAP[1]	/* MoveDirectAbsPt */
PUSHW[ ]	/* 1 value pushed */
53 
SRP0[ ]	/* SetRefPoint0 */
PUSHW[ ]	/* 1 value pushed */
28 
MDRP[10000]	/* MoveDirectRelPt */
PUSHW[ ]	/* 1 value pushed */
28 
MDAP[1]	/* MoveDirectAbsPt */
PUSHW[ ]	/* 1 value pushed */
43 
MDRP[11100]	/* MoveDirectRelPt */
PUSHW[ ]	/* 1 value pushed */
3 
MDRP[10000]	/* MoveDirectRelPt */
NPUSHW[ ]	/* 5 values pushed */
218 33 234 33 2 
DELTAP1[ ]	/* DeltaExceptionP1 */
NPUSHW[ ]	/* 27 values pushed */
9 33 25 33 41 33 57 33 73 33 89 33 105 33 121 33 137 33 153 33 169 33 185 33 201 33 13 
DELTAP1[ ]	/* DeltaExceptionP1 */
PUSHW[ ]	/* 1 value pushed */
33 
SRP0[ ]	/* SetRefPoint0 */
PUSHW[ ]	/* 1 value pushed */
12 
MDRP[11100]	/* MoveDirectRelPt */
PUSHW[ ]	/* 3 values pushed */
4 28 12 
SRP1[ ]	/* SetRefPoint1 */
SRP2[ ]	/* SetRefPoint2 */
IP[ ]	/* InterpolatePts */
PUSHW[ ]	/* 1 value pushed */
43 
SRP0[ ]	/* SetRefPoint0 */
PUSHW[ ]	/* 1 value pushed */
20 
MDRP[10000]	/* MoveDirectRelPt */
PUSHW[ ]	/* 1 value pushed */
20 
MDAP[1]	/* MoveDirectAbsPt */
IUP[0]	/* InterpolateUntPts */
IUP[1]	/* InterpolateUntPts */";
};
width = 1204;
}
);
note = b;
unicode = 98;
},
{
glyphname = c;
lastChange = "2022-05-04 00:13:31 +0000";
layers = (
{
layerId = m01;
shapes = (
{
closed = 1;
nodes = (
(197,210,o),
(325,59,o),
(506,-25,o),
(617,-25,qs),
(675,-25,o),
(793,-3,o),
(902,37,o),
(997,91,o),
(1032,123,qs),
(1048,139,o),
(1069,169,o),
(1069,189,qs),
(1069,204,o),
(1057,240,o),
(1035,271,o),
(1004,292,o),
(985,292,qs),
(962,292,o),
(943,274,qs),
(872,211,o),
(703,146,o),
(625,146,qs),
(551,146,o),
(433,204,o),
(351,308,o),
(308,450,o),
(308,535,qs),
(308,619,o),
(351,762,o),
(433,866,o),
(551,924,o),
(626,924,qs),
(701,924,o),
(860,867,o),
(926,812,q),
(929,812,l),
(925,812,l),
(946,797,o),
(967,797,qs),
(984,797,o),
(1014,817,o),
(1035,848,o),
(1047,885,o),
(1047,900,qs),
(1047,922,o),
(1026,952,o),
(1007,968,qs),
(976,995,o),
(889,1041,o),
(787,1076,o),
(676,1095,o),
(621,1095,qs),
(508,1095,o),
(325,1011,o),
(197,860,o),
(127,655,o),
(127,535,qs),
(127,415,o)
);
}
);
userData = {
assembly = "PUSHW[ ]	/* 1 value pushed */
0 
CALL[ ]	/* CallFunction */
SVTCA[0]	/* SetFreedomAndProjectionVectorToAxis */
PUSHW[ ]	/* 1 value pushed */
0 
RCVT[ ]	/* ReadCVT */
IF[ ]	/* If */
PUSHW[ ]	/* 1 value pushed */
53 
MDAP[1]	/* MoveDirectAbsPt */
ELSE[ ]	/* Else */
PUSHW[ ]	/* 2 values pushed */
53 21 
MIAP[0]	/* MoveIndirectAbsPt */
EIF[ ]	/* EndIf */
PUSHW[ ]	/* 3 values pushed */
5 25 3 
CALL[ ]	/* CallFunction */
PUSHW[ ]	/* 1 value pushed */
53 
SRP0[ ]	/* SetRefPoint0 */
PUSHW[ ]	/* 1 value pushed */
35 
MDRP[11100]	/* MoveDirectRelPt */
NPUSHW[ ]	/* 27 values pushed */
7 35 23 35 39 35 55 35 71 35 87 35 103 35 119 35 135 35 151 35 167 35 183 35 199 35 13 
DELTAP1[ ]	/* DeltaExceptionP1 */
NPUSHW[ ]	/* 5 values pushed */
214 35 230 35 2 
DELTAP1[ ]	/* DeltaExceptionP1 */
SVTCA[1]	/* SetFreedomAndProjectionVectorToAxis */
PUSHW[ ]	/* 3 values pushed */
30 0 3 
CALL[ ]	/* CallFunction */
NPUSHW[ ]	/* 27 values pushed */
6 30 22 30 38 30 54 30 70 30 86 30 102 30 118 30 134 30 150 30 166 30 182 30 198 30 13 
DELTAP1[ ]	/* DeltaExceptionP1 */
NPUSHW[ ]	/* 5 values pushed */
213 30 229 30 2 
DELTAP1[ ]	/* DeltaExceptionP1 */
IUP[0]	/* InterpolateUntPts */
IUP[1]	/* InterpolateUntPts */";
};
width = 1204;
}
);
note = c;
unicode = 99;
},
{
glyphname = d;
lastChange = "2022-05-04 00:13:31 +0000";
layers = (
{
layerId = m01;
shapes = (
{
closed = 1;
nodes = (
(918,1531,o),
(881,1496,o),
(881,1455,qs),
(881,933,l),
(824,1010,o),
(652,1095,o),
(552,1095,qs),
(461,1095,o),
(292,1019,o),
(162,874,o),
(85,666,o),
(85,535,qs),
(85,404,o),
(162,196,o),
(292,51,o),
(462,-25,o),
(553,-25,qs),
(653,-25,o),
(833,61,o),
(892,141,q),
(892,64,ls),
(892,23,o),
(925,-12,o),
(973,-12,qs),
(974,-12,ls),
(1020,-12,o),
(1056,23,o),
(1056,64,qs),
(1056,1455,ls),
(1056,1496,o),
(1018,1531,o),
(969,1531,qs),
(968,1531,ls)
);
},
{
closed = 1;
nodes = (
(830,299,o),
(745,198,o),
(632,146,o),
(570,146,qs),
(504,146,o),
(391,204,o),
(308,307,o),
(262,450,o),
(262,535,qs),
(262,621,o),
(308,763,o),
(391,866,o),
(504,924,o),
(570,924,qs),
(632,924,o),
(745,872,o),
(830,771,o),
(881,628,o),
(881,535,qs),
(881,443,o)
);
}
);
userData = {
assembly = "PUSHW[ ]	/* 1 value pushed */
0 
CALL[ ]	/* CallFunction */
SVTCA[0]	/* SetFreedomAndProjectionVectorToAxis */
PUSHW[ ]	/* 1 value pushed */
0 
RCVT[ ]	/* ReadCVT */
IF[ ]	/* If */
PUSHW[ ]	/* 1 value pushed */
7 
MDAP[1]	/* MoveDirectAbsPt */
ELSE[ ]	/* Else */
PUSHW[ ]	/* 2 values pushed */
7 21 
MIAP[0]	/* MoveIndirectAbsPt */
EIF[ ]	/* EndIf */
PUSHW[ ]	/* 1 value pushed */
0 
RCVT[ ]	/* ReadCVT */
IF[ ]	/* If */
PUSHW[ ]	/* 1 value pushed */
15 
MDAP[1]	/* MoveDirectAbsPt */
ELSE[ ]	/* Else */
PUSHW[ ]	/* 2 values pushed */
15 21 
MIAP[0]	/* MoveIndirectAbsPt */
EIF[ ]	/* EndIf */
PUSHW[ ]	/* 3 values pushed */
25 38 3 
CALL[ ]	/* CallFunction */
PUSHW[ ]	/* 1 value pushed */
15 
SRP0[ ]	/* SetRefPoint0 */
PUSHW[ ]	/* 1 value pushed */
48 
MDRP[11100]	/* MoveDirectRelPt */
NPUSHW[ ]	/* 27 values pushed */
7 48 23 48 39 48 55 48 71 48 87 48 103 48 119 48 135 48 151 48 167 48 183 48 199 48 13 
DELTAP1[ ]	/* DeltaExceptionP1 */
NPUSHW[ ]	/* 5 values pushed */
214 48 230 48 2 
DELTAP1[ ]	/* DeltaExceptionP1 */
PUSHW[ ]	/* 3 values pushed */
12 15 48 
SRP1[ ]	/* SetRefPoint1 */
SRP2[ ]	/* SetRefPoint2 */
IP[ ]	/* InterpolatePts */
PUSHW[ ]	/* 3 values pushed */
28 38 25 
SRP1[ ]	/* SetRefPoint1 */
SRP2[ ]	/* SetRefPoint2 */
IP[ ]	/* InterpolatePts */
SVTCA[1]	/* SetFreedomAndProjectionVectorToAxis */
PUSHW[ ]	/* 1 value pushed */
53 
MDAP[1]	/* MoveDirectAbsPt */
PUSHW[ ]	/* 1 value pushed */
29 
MDAP[1]	/* MoveDirectAbsPt */
PUSHW[ ]	/* 1 value pushed */
3 
MDRP[11100]	/* MoveDirectRelPt */
PUSHW[ ]	/* 1 value pushed */
29 
SRP0[ ]	/* SetRefPoint0 */
PUSHW[ ]	/* 1 value pushed */
11 
MDRP[10000]	/* MoveDirectRelPt */
PUSHW[ ]	/* 1 value pushed */
11 
MDAP[1]	/* MoveDirectAbsPt */
PUSHW[ ]	/* 3 values pushed */
12 29 3 
SRP1[ ]	/* SetRefPoint1 */
SRP2[ ]	/* SetRefPoint2 */
IP[ ]	/* InterpolatePts */
PUSHW[ ]	/* 1 value pushed */
53 
SRP0[ ]	/* SetRefPoint0 */
PUSHW[ ]	/* 1 value pushed */
20 
MDRP[10000]	/* MoveDirectRelPt */
PUSHW[ ]	/* 1 value pushed */
20 
MDAP[1]	/* MoveDirectAbsPt */
PUSHW[ ]	/* 1 value pushed */
29 
SRP0[ ]	/* SetRefPoint0 */
PUSHW[ ]	/* 1 value pushed */
33 
MDRP[10000]	/* MoveDirectRelPt */
PUSHW[ ]	/* 1 value pushed */
20 
SRP0[ ]	/* SetRefPoint0 */
PUSHW[ ]	/* 1 value pushed */
43 
MDRP[11100]	/* MoveDirectRelPt */
NPUSHW[ ]	/* 27 values pushed */
6 43 22 43 38 43 54 43 70 43 86 43 102 43 118 43 134 43 150 43 166 43 182 43 198 43 13 
DELTAP1[ ]	/* DeltaExceptionP1 */
NPUSHW[ ]	/* 5 values pushed */
213 43 229 43 2 
DELTAP1[ ]	/* DeltaExceptionP1 */
IUP[0]	/* InterpolateUntPts */
IUP[1]	/* InterpolateUntPts */";
};
width = 1204;
}
);
note = d;
unicode = 100;
},
{
glyphname = eth;
lastChange = "2022-05-04 00:13:31 +0000";
layers = (
{
layerId = m01;
shapes = (
{
closed = 1;
nodes = (
(193,188,o),
(322,50,o),
(499,-25,o),
(602,-25,qs),
(705,-25,o),
(881,50,o),
(1010,188,o),
(1083,380,o),
(1083,497,q),
(900,892,l),
(868,919,o),
(802,968,o),
(728,1004,o),
(641,1026,o),
(589,1026,qs),
(492,1026,o),
(322,951,o),
(195,812,o),
(120,617,o),
(120,498,qs),
(120,381,o)
);
},
{
closed = 1;
nodes = (
(859,289,o),
(780,197,o),
(670,146,o),
(602,146,qs),
(534,146,o),
(423,197,o),
(344,289,o),
(301,420,o),
(301,500,qs),
(301,580,o),
(344,711,o),
(423,804,o),
(534,855,o),
(602,855,qs),
(670,855,o),
(780,804,o),
(859,711,o),
(902,580,o),
(902,500,qs),
(902,420,o)
);
},
{
closed = 1;
nodes = (
(368,1384,qs),
(485,1317,o),
(689,1149,o),
(839,937,o),
(925,676,o),
(925,514,q),
(1083,499,l),
(1083,680,o),
(996,984,o),
(831,1238,o),
(595,1446,o),
(447,1532,qs),
(437,1538,o),
(418,1542,o),
(410,1542,qs),
(390,1542,o),
(359,1521,o),
(337,1490,o),
(325,1455,o),
(325,1442,qs),
(325,1408,o)
);
},
{
closed = 1;
nodes = (
(316,1232,o),
(292,1205,o),
(292,1183,qs),
(292,1169,o),
(301,1136,o),
(320,1107,o),
(347,1087,o),
(366,1087,qs),
(373,1087,o),
(390,1091,o),
(398,1095,q),
(397,1095,l),
(947,1336,ls),
(974,1348,o),
(998,1374,o),
(998,1396,qs),
(998,1411,o),
(988,1445,o),
(969,1474,o),
(943,1493,o),
(926,1493,qs),
(918,1493,o),
(901,1488,o),
(892,1484,qs),
(343,1244,ls)
);
}
);
userData = {
assembly = "PUSHW[ ]	/* 1 value pushed */
0 
CALL[ ]	/* CallFunction */
SVTCA[0]	/* SetFreedomAndProjectionVectorToAxis */
PUSHW[ ]	/* 1 value pushed */
5 
MDAP[1]	/* MoveDirectAbsPt */
PUSHW[ ]	/* 1 value pushed */
0 
RCVT[ ]	/* ReadCVT */
IF[ ]	/* If */
PUSHW[ ]	/* 1 value pushed */
16 
MDAP[1]	/* MoveDirectAbsPt */
ELSE[ ]	/* Else */
PUSHW[ ]	/* 2 values pushed */
16 21 
MIAP[0]	/* MoveIndirectAbsPt */
EIF[ ]	/* EndIf */
PUSHW[ ]	/* 1 value pushed */
5 
SRP0[ ]	/* SetRefPoint0 */
PUSHW[ ]	/* 1 value pushed */
26 
MDRP[11100]	/* MoveDirectRelPt */
PUSHW[ ]	/* 1 value pushed */
16 
SRP0[ ]	/* SetRefPoint0 */
PUSHW[ ]	/* 1 value pushed */
36 
MDRP[11100]	/* MoveDirectRelPt */
NPUSHW[ ]	/* 27 values pushed */
7 36 23 36 39 36 55 36 71 36 87 36 103 36 119 36 135 36 151 36 167 36 183 36 199 36 13 
DELTAP1[ ]	/* DeltaExceptionP1 */
NPUSHW[ ]	/* 5 values pushed */
214 36 230 36 2 
DELTAP1[ ]	/* DeltaExceptionP1 */
SVTCA[1]	/* SetFreedomAndProjectionVectorToAxis */
PUSHW[ ]	/* 1 value pushed */
87 
MDAP[1]	/* MoveDirectAbsPt */
PUSHW[ ]	/* 1 value pushed */
21 
MDAP[1]	/* MoveDirectAbsPt */
PUSHW[ ]	/* 1 value pushed */
87 
SRP0[ ]	/* SetRefPoint0 */
PUSHW[ ]	/* 1 value pushed */
0 
MDRP[10000]	/* MoveDirectRelPt */
PUSHW[ ]	/* 1 value pushed */
0 
MDAP[1]	/* MoveDirectAbsPt */
PUSHW[ ]	/* 1 value pushed */
21 
SRP0[ ]	/* SetRefPoint0 */
PUSHW[ ]	/* 1 value pushed */
10 
MDRP[10000]	/* MoveDirectRelPt */
PUSHW[ ]	/* 1 value pushed */
10 
MDAP[1]	/* MoveDirectAbsPt */
PUSHW[ ]	/* 1 value pushed */
21 
SRP0[ ]	/* SetRefPoint0 */
PUSHW[ ]	/* 1 value pushed */
54 
MDRP[11100]	/* MoveDirectRelPt */
PUSHW[ ]	/* 1 value pushed */
11 
MDRP[10000]	/* MoveDirectRelPt */
PUSHW[ ]	/* 1 value pushed */
0 
SRP0[ ]	/* SetRefPoint0 */
PUSHW[ ]	/* 1 value pushed */
31 
MDRP[11100]	/* MoveDirectRelPt */
NPUSHW[ ]	/* 27 values pushed */
6 31 22 31 38 31 54 31 70 31 86 31 102 31 118 31 134 31 150 31 166 31 182 31 198 31 13 
DELTAP1[ ]	/* DeltaExceptionP1 */
NPUSHW[ ]	/* 5 values pushed */
213 31 229 31 2 
DELTAP1[ ]	/* DeltaExceptionP1 */
PUSHW[ ]	/* 1 value pushed */
21 
SRP0[ ]	/* SetRefPoint0 */
PUSHW[ ]	/* 1 value pushed */
62 
MDRP[10000]	/* MoveDirectRelPt */
PUSHW[ ]	/* 1 value pushed */
62 
MDAP[1]	/* MoveDirectAbsPt */
PUSHW[ ]	/* 1 value pushed */
31 
SRP0[ ]	/* SetRefPoint0 */
PUSHW[ ]	/* 1 value pushed */
83 
MDRP[10000]	/* MoveDirectRelPt */
PUSHW[ ]	/* 1 value pushed */
83 
MDAP[1]	/* MoveDirectAbsPt */
IUP[0]	/* InterpolateUntPts */
IUP[1]	/* InterpolateUntPts */";
};
width = 1204;
}
);
note = eth;
unicode = 240;
},
{
glyphname = dcaron;
lastChange = "2022-05-04 00:13:31 +0000";
layers = (
{
layerId = m01;
shapes = (
{
closed = 1;
nodes = (
(794,1531,o),
(757,1496,o),
(757,1455,qs),
(757,949,l),
(711,1019,o),
(593,1095,o),
(505,1095,qs),
(418,1095,o),
(276,1019,o),
(174,874,o),
(117,666,o),
(117,535,qs),
(117,404,o),
(174,196,o),
(276,51,o),
(418,-25,o),
(505,-25,qs),
(593,-25,o),
(718,52,o),
(768,125,q),
(768,64,ls),
(768,23,o),
(802,-12,o),
(849,-12,qs),
(851,-12,ls),
(897,-12,o),
(931,23,o),
(931,64,qs),
(931,1455,ls),
(931,1496,o),
(894,1531,o),
(845,1531,qs),
(843,1531,ls)
);
},
{
closed = 1;
nodes = (
(1119,1519,o),
(1109,1482,q),
(1090,1377,o),
(1050,1168,o),
(1029,1063,qs),
(1028,1058,o),
(1028,1051,o),
(1028,1049,qs),
(1028,998,o),
(1099,998,qs),
(1130,998,o),
(1174,1018,o),
(1181,1040,qs),
(1211,1136,o),
(1248,1254,o),
(1271,1323,o),
(1283,1359,o),
(1292,1389,o),
(1304,1425,o),
(1314,1460,qs),
(1320,1480,o),
(1320,1488,qs),
(1320,1502,o),
(1299,1519,o),
(1281,1519,qs),
(1164,1519,ls)
);
},
{
closed = 1;
nodes = (
(628,146,o),
(515,146,qs),
(459,146,o),
(375,204,o),
(321,307,o),
(294,450,o),
(294,535,qs),
(294,621,o),
(321,763,o),
(375,866,o),
(459,924,o),
(515,924,qs),
(628,924,o),
(757,720,o),
(757,535,qs),
(757,350,o)
);
}
);
userData = {
assembly = "PUSHW[ ]	/* 1 value pushed */
0 
CALL[ ]	/* CallFunction */
SVTCA[0]	/* SetFreedomAndProjectionVectorToAxis */
PUSHW[ ]	/* 1 value pushed */
0 
MDAP[1]	/* MoveDirectAbsPt */
PUSHW[ ]	/* 1 value pushed */
33 
MDAP[1]	/* MoveDirectAbsPt */
PUSHW[ ]	/* 1 value pushed */
0 
RCVT[ ]	/* ReadCVT */
IF[ ]	/* If */
PUSHW[ ]	/* 1 value pushed */
7 
MDAP[1]	/* MoveDirectAbsPt */
ELSE[ ]	/* Else */
PUSHW[ ]	/* 2 values pushed */
7 21 
MIAP[0]	/* MoveIndirectAbsPt */
EIF[ ]	/* EndIf */
PUSHW[ ]	/* 1 value pushed */
0 
RCVT[ ]	/* ReadCVT */
IF[ ]	/* If */
PUSHW[ ]	/* 1 value pushed */
15 
MDAP[1]	/* MoveDirectAbsPt */
ELSE[ ]	/* Else */
PUSHW[ ]	/* 2 values pushed */
15 21 
MIAP[0]	/* MoveIndirectAbsPt */
EIF[ ]	/* EndIf */
PUSHW[ ]	/* 3 values pushed */
25 62 3 
CALL[ ]	/* CallFunction */
PUSHW[ ]	/* 1 value pushed */
15 
SRP0[ ]	/* SetRefPoint0 */
PUSHW[ ]	/* 1 value pushed */
72 
MDRP[11100]	/* MoveDirectRelPt */
NPUSHW[ ]	/* 27 values pushed */
7 72 23 72 39 72 55 72 71 72 87 72 103 72 119 72 135 72 151 72 167 72 183 72 199 72 13 
DELTAP1[ ]	/* DeltaExceptionP1 */
NPUSHW[ ]	/* 5 values pushed */
214 72 230 72 2 
DELTAP1[ ]	/* DeltaExceptionP1 */
PUSHW[ ]	/* 3 values pushed */
12 15 72 
SRP1[ ]	/* SetRefPoint1 */
SRP2[ ]	/* SetRefPoint2 */
IP[ ]	/* InterpolatePts */
PUSHW[ ]	/* 3 values pushed */
28 62 25 
SRP1[ ]	/* SetRefPoint1 */
SRP2[ ]	/* SetRefPoint2 */
IP[ ]	/* InterpolatePts */
SVTCA[1]	/* SetFreedomAndProjectionVectorToAxis */
PUSHW[ ]	/* 1 value pushed */
75 
MDAP[1]	/* MoveDirectAbsPt */
PUSHW[ ]	/* 1 value pushed */
29 
MDAP[1]	/* MoveDirectAbsPt */
PUSHW[ ]	/* 1 value pushed */
3 
MDRP[11100]	/* MoveDirectRelPt */
PUSHW[ ]	/* 1 value pushed */
29 
SRP0[ ]	/* SetRefPoint0 */
PUSHW[ ]	/* 1 value pushed */
11 
MDRP[10000]	/* MoveDirectRelPt */
PUSHW[ ]	/* 1 value pushed */
11 
MDAP[1]	/* MoveDirectAbsPt */
PUSHW[ ]	/* 3 values pushed */
12 29 3 
SRP1[ ]	/* SetRefPoint1 */
SRP2[ ]	/* SetRefPoint2 */
IP[ ]	/* InterpolatePts */
PUSHW[ ]	/* 1 value pushed */
75 
SRP0[ ]	/* SetRefPoint0 */
PUSHW[ ]	/* 1 value pushed */
20 
MDRP[10000]	/* MoveDirectRelPt */
PUSHW[ ]	/* 1 value pushed */
20 
MDAP[1]	/* MoveDirectAbsPt */
PUSHW[ ]	/* 1 value pushed */
29 
SRP0[ ]	/* SetRefPoint0 */
PUSHW[ ]	/* 1 value pushed */
59 
MDRP[10000]	/* MoveDirectRelPt */
PUSHW[ ]	/* 1 value pushed */
20 
SRP0[ ]	/* SetRefPoint0 */
PUSHW[ ]	/* 1 value pushed */
67 
MDRP[11100]	/* MoveDirectRelPt */
NPUSHW[ ]	/* 27 values pushed */
6 67 22 67 38 67 54 67 70 67 86 67 102 67 118 67 134 67 150 67 166 67 182 67 198 67 13 
DELTAP1[ ]	/* DeltaExceptionP1 */
NPUSHW[ ]	/* 5 values pushed */
213 67 229 67 2 
DELTAP1[ ]	/* DeltaExceptionP1 */
IUP[0]	/* InterpolateUntPts */
IUP[1]	/* InterpolateUntPts */";
};
width = 1204;
}
);
note = dcaron;
unicode = 271;
},
{
glyphname = dcroat;
lastChange = "2022-05-04 00:13:31 +0000";
layers = (
{
layerId = m01;
shapes = (
{
closed = 1;
nodes = (
(875,1531,o),
(838,1496,o),
(838,1455,qs),
(838,757,l),
(888,814,l),
(830,911,o),
(667,1026,o),
(553,1026,qs),
(465,1026,o),
(314,954,o),
(203,819,o),
(139,624,o),
(139,500,qs),
(139,376,o),
(203,182,o),
(315,46,o),
(465,-25,o),
(552,-25,qs),
(666,-25,o),
(836,94,o),
(899,205,q),
(849,261,l),
(849,64,ls),
(849,23,o),
(882,-12,o),
(930,-12,qs),
(931,-12,ls),
(977,-12,o),
(1012,23,o),
(1012,64,qs),
(1012,1455,ls),
(1012,1496,o),
(975,1531,o),
(926,1531,qs),
(924,1531,ls)
);
},
{
closed = 1;
nodes = (
(798,284,o),
(726,193,o),
(629,146,o),
(571,146,qs),
(509,146,o),
(415,199,o),
(350,293,o),
(316,423,o),
(316,500,qs),
(316,578,o),
(350,707,o),
(415,801,o),
(509,855,o),
(571,855,qs),
(629,855,o),
(726,807,o),
(798,717,o),
(838,585,o),
(838,500,qs),
(838,416,o)
);
},
{
closed = 1;
nodes = (
(560,1332,o),
(527,1293,o),
(527,1248,qs),
(527,1203,o),
(560,1165,o),
(601,1165,qs),
(1138,1165,ls),
(1178,1165,o),
(1211,1203,o),
(1211,1248,qs),
(1211,1293,o),
(1178,1332,o),
(1138,1332,qs),
(601,1332,ls)
);
}
);
userData = {
assembly = "PUSHW[ ]	/* 1 value pushed */
0 
CALL[ ]	/* CallFunction */
SVTCA[0]	/* SetFreedomAndProjectionVectorToAxis */
PUSHW[ ]	/* 1 value pushed */
0 
RCVT[ ]	/* ReadCVT */
IF[ ]	/* If */
PUSHW[ ]	/* 1 value pushed */
7 
MDAP[1]	/* MoveDirectAbsPt */
ELSE[ ]	/* Else */
PUSHW[ ]	/* 2 values pushed */
7 21 
MIAP[0]	/* MoveIndirectAbsPt */
EIF[ ]	/* EndIf */
PUSHW[ ]	/* 1 value pushed */
0 
RCVT[ ]	/* ReadCVT */
IF[ ]	/* If */
PUSHW[ ]	/* 1 value pushed */
16 
MDAP[1]	/* MoveDirectAbsPt */
ELSE[ ]	/* Else */
PUSHW[ ]	/* 2 values pushed */
16 21 
MIAP[0]	/* MoveIndirectAbsPt */
EIF[ ]	/* EndIf */
PUSHW[ ]	/* 3 values pushed */
55 61 3 
CALL[ ]	/* CallFunction */
PUSHW[ ]	/* 3 values pushed */
26 40 3 
CALL[ ]	/* CallFunction */
PUSHW[ ]	/* 1 value pushed */
16 
SRP0[ ]	/* SetRefPoint0 */
PUSHW[ ]	/* 1 value pushed */
50 
MDRP[11100]	/* MoveDirectRelPt */
NPUSHW[ ]	/* 27 values pushed */
7 50 23 50 39 50 55 50 71 50 87 50 103 50 119 50 135 50 151 50 167 50 183 50 199 50 13 
DELTAP1[ ]	/* DeltaExceptionP1 */
NPUSHW[ ]	/* 5 values pushed */
214 50 230 50 2 
DELTAP1[ ]	/* DeltaExceptionP1 */
SVTCA[1]	/* SetFreedomAndProjectionVectorToAxis */
PUSHW[ ]	/* 1 value pushed */
69 
MDAP[1]	/* MoveDirectAbsPt */
PUSHW[ ]	/* 1 value pushed */
35 
MDAP[1]	/* MoveDirectAbsPt */
PUSHW[ ]	/* 1 value pushed */
4 
MDRP[11100]	/* MoveDirectRelPt */
PUSHW[ ]	/* 1 value pushed */
35 
SRP0[ ]	/* SetRefPoint0 */
PUSHW[ ]	/* 1 value pushed */
11 
MDRP[10000]	/* MoveDirectRelPt */
PUSHW[ ]	/* 1 value pushed */
11 
MDAP[1]	/* MoveDirectAbsPt */
PUSHW[ ]	/* 3 values pushed */
12 35 4 
SRP1[ ]	/* SetRefPoint1 */
SRP2[ ]	/* SetRefPoint2 */
IP[ ]	/* InterpolatePts */
PUSHW[ ]	/* 1 value pushed */
69 
SRP0[ ]	/* SetRefPoint0 */
PUSHW[ ]	/* 1 value pushed */
21 
MDRP[10000]	/* MoveDirectRelPt */
PUSHW[ ]	/* 1 value pushed */
21 
MDAP[1]	/* MoveDirectAbsPt */
PUSHW[ ]	/* 1 value pushed */
35 
SRP0[ ]	/* SetRefPoint0 */
PUSHW[ ]	/* 1 value pushed */
30 
MDRP[10000]	/* MoveDirectRelPt */
PUSHW[ ]	/* 1 value pushed */
21 
SRP0[ ]	/* SetRefPoint0 */
PUSHW[ ]	/* 1 value pushed */
45 
MDRP[11100]	/* MoveDirectRelPt */
NPUSHW[ ]	/* 27 values pushed */
6 45 22 45 38 45 54 45 70 45 86 45 102 45 118 45 134 45 150 45 166 45 182 45 198 45 13 
DELTAP1[ ]	/* DeltaExceptionP1 */
NPUSHW[ ]	/* 5 values pushed */
213 45 229 45 2 
DELTAP1[ ]	/* DeltaExceptionP1 */
IUP[0]	/* InterpolateUntPts */
IUP[1]	/* InterpolateUntPts */";
};
width = 1204;
}
);
note = dcroat;
unicode = 273;
},
{
glyphname = e;
lastChange = "2022-05-04 00:13:31 +0000";
layers = (
{
layerId = m01;
shapes = (
{
closed = 1;
nodes = (
(190,195,o),
(309,52,o),
(484,-25,o),
(599,-25,qs),
(654,-25,o),
(771,-8,o),
(881,20,o),
(974,57,o),
(1005,75,qs),
(1033,93,o),
(1055,125,o),
(1055,147,qs),
(1055,164,o),
(1043,201,o),
(1024,233,o),
(996,252,o),
(978,252,qs),
(958,252,o),
(941,242,qs),
(908,219,o),
(824,182,o),
(736,156,o),
(645,142,o),
(603,142,qs),
(460,142,o),
(315,314,o),
(306,492,q),
(293,492,l),
(1010,492,ls),
(1048,492,o),
(1084,520,o),
(1084,564,qs),
(1079,677,o),
(1015,872,o),
(897,1014,o),
(727,1095,o),
(615,1095,qs),
(507,1095,o),
(329,1018,o),
(200,870,o),
(129,655,o),
(129,520,qs),
(129,396,o)
);
},
{
closed = 1;
nodes = (
(343,780,o),
(497,927,o),
(618,927,qs),
(736,927,o),
(880,784,o),
(900,654,q),
(315,654,l)
);
}
);
userData = {
assembly = "PUSHW[ ]	/* 1 value pushed */
0 
CALL[ ]	/* CallFunction */
SVTCA[0]	/* SetFreedomAndProjectionVectorToAxis */
PUSHW[ ]	/* 1 value pushed */
0 
RCVT[ ]	/* ReadCVT */
IF[ ]	/* If */
PUSHW[ ]	/* 1 value pushed */
38 
MDAP[1]	/* MoveDirectAbsPt */
ELSE[ ]	/* Else */
PUSHW[ ]	/* 2 values pushed */
38 21 
MIAP[0]	/* MoveIndirectAbsPt */
EIF[ ]	/* EndIf */
PUSHW[ ]	/* 3 values pushed */
5 46 3 
CALL[ ]	/* CallFunction */
PUSHW[ ]	/* 3 values pushed */
43 13 3 
CALL[ ]	/* CallFunction */
PUSHW[ ]	/* 1 value pushed */
13 
SRP0[ ]	/* SetRefPoint0 */
PUSHW[ ]	/* 1 value pushed */
15 
MDRP[10000]	/* MoveDirectRelPt */
PUSHW[ ]	/* 1 value pushed */
38 
SRP0[ ]	/* SetRefPoint0 */
PUSHW[ ]	/* 1 value pushed */
18 
MDRP[11100]	/* MoveDirectRelPt */
NPUSHW[ ]	/* 27 values pushed */
7 18 23 18 39 18 55 18 71 18 87 18 103 18 119 18 135 18 151 18 167 18 183 18 199 18 13 
DELTAP1[ ]	/* DeltaExceptionP1 */
NPUSHW[ ]	/* 5 values pushed */
214 18 230 18 2 
DELTAP1[ ]	/* DeltaExceptionP1 */
IUP[0]	/* InterpolateUntPts */
IUP[1]	/* InterpolateUntPts */";
};
width = 1204;
}
);
note = e;
unicode = 101;
},
{
glyphname = eogonek;
lastChange = "2022-05-04 00:13:31 +0000";
layers = (
{
layerId = m01;
shapes = (
{
closed = 1;
nodes = (
(190,196,o),
(309,52,o),
(484,-25,o),
(597,-25,qs),
(631,-25,o),
(705,-19,o),
(742,-13,q),
(673,-87,o),
(587,-243,o),
(587,-330,qs),
(587,-427,o),
(701,-547,o),
(804,-547,qs),
(842,-547,o),
(931,-530,o),
(963,-516,qs),
(987,-506,o),
(1005,-479,o),
(1005,-455,qs),
(1005,-442,o),
(999,-415,o),
(987,-391,o),
(966,-376,o),
(949,-376,qs),
(945,-376,o),
(944,-377,q),
(939,-377,l),
(914,-383,o),
(856,-389,o),
(839,-389,qs),
(804,-389,o),
(767,-350,o),
(767,-299,qs),
(767,-267,o),
(783,-203,o),
(820,-133,o),
(879,-53,o),
(922,-6,qs),
(962,39,o),
(998,71,o),
(1005,75,qs),
(1055,104,o),
(1055,147,qs),
(1055,164,o),
(1043,201,o),
(1022,233,o),
(995,252,o),
(978,252,qs),
(958,252,o),
(941,242,qs),
(908,219,o),
(824,182,o),
(736,156,o),
(645,142,o),
(603,142,qs),
(460,142,o),
(315,314,o),
(306,492,q),
(293,492,l),
(1010,492,ls),
(1048,492,o),
(1084,520,o),
(1084,564,qs),
(1079,677,o),
(1015,872,o),
(899,1014,o),
(727,1095,o),
(616,1095,qs),
(508,1095,o),
(329,1017,o),
(200,870,o),
(129,655,o),
(129,520,qs),
(129,397,o)
);
},
{
closed = 1;
nodes = (
(344,780,o),
(497,927,o),
(618,927,qs),
(736,927,o),
(880,784,o),
(900,654,q),
(315,654,l)
);
}
);
userData = {
assembly = "PUSHW[ ]	/* 1 value pushed */
0 
CALL[ ]	/* CallFunction */
SVTCA[0]	/* SetFreedomAndProjectionVectorToAxis */
PUSHW[ ]	/* 1 value pushed */
5 
MDAP[1]	/* MoveDirectAbsPt */
PUSHW[ ]	/* 1 value pushed */
0 
RCVT[ ]	/* ReadCVT */
IF[ ]	/* If */
PUSHW[ ]	/* 1 value pushed */
35 
MDAP[1]	/* MoveDirectAbsPt */
ELSE[ ]	/* Else */
PUSHW[ ]	/* 2 values pushed */
35 21 
MIAP[0]	/* MoveIndirectAbsPt */
EIF[ ]	/* EndIf */
PUSHW[ ]	/* 1 value pushed */
0 
RCVT[ ]	/* ReadCVT */
IF[ ]	/* If */
PUSHW[ ]	/* 1 value pushed */
66 
MDAP[1]	/* MoveDirectAbsPt */
ELSE[ ]	/* Else */
PUSHW[ ]	/* 2 values pushed */
66 21 
MIAP[0]	/* MoveIndirectAbsPt */
EIF[ ]	/* EndIf */
PUSHW[ ]	/* 1 value pushed */
0 
RCVT[ ]	/* ReadCVT */
IF[ ]	/* If */
PUSHW[ ]	/* 1 value pushed */
69 
MDAP[1]	/* MoveDirectAbsPt */
ELSE[ ]	/* Else */
PUSHW[ ]	/* 2 values pushed */
69 21 
MIAP[0]	/* MoveIndirectAbsPt */
EIF[ ]	/* EndIf */
PUSHW[ ]	/* 3 values pushed */
43 60 3 
CALL[ ]	/* CallFunction */
PUSHW[ ]	/* 3 values pushed */
74 13 3 
CALL[ ]	/* CallFunction */
PUSHW[ ]	/* 1 value pushed */
13 
SRP0[ ]	/* SetRefPoint0 */
PUSHW[ ]	/* 1 value pushed */
15 
MDRP[10000]	/* MoveDirectRelPt */
PUSHW[ ]	/* 1 value pushed */
69 
SRP0[ ]	/* SetRefPoint0 */
PUSHW[ ]	/* 1 value pushed */
18 
MDRP[11100]	/* MoveDirectRelPt */
NPUSHW[ ]	/* 27 values pushed */
7 18 23 18 39 18 55 18 71 18 87 18 103 18 119 18 135 18 151 18 167 18 183 18 199 18 13 
DELTAP1[ ]	/* DeltaExceptionP1 */
NPUSHW[ ]	/* 5 values pushed */
214 18 230 18 2 
DELTAP1[ ]	/* DeltaExceptionP1 */
PUSHW[ ]	/* 1 value pushed */
43 
SRP0[ ]	/* SetRefPoint0 */
PUSHW[ ]	/* 1 value pushed */
46 
MDRP[10000]	/* MoveDirectRelPt */
PUSHW[ ]	/* 1 value pushed */
46 
MDAP[1]	/* MoveDirectAbsPt */
PUSHW[ ]	/* 1 value pushed */
43 
SRP0[ ]	/* SetRefPoint0 */
PUSHW[ ]	/* 1 value pushed */
49 
MDRP[10000]	/* MoveDirectRelPt */
PUSHW[ ]	/* 1 value pushed */
49 
MDAP[1]	/* MoveDirectAbsPt */
PUSHW[ ]	/* 1 value pushed */
5 
SRP0[ ]	/* SetRefPoint0 */
PUSHW[ ]	/* 1 value pushed */
77 
MDRP[11100]	/* MoveDirectRelPt */
SVTCA[1]	/* SetFreedomAndProjectionVectorToAxis */
PUSHW[ ]	/* 3 values pushed */
40 63 3 
CALL[ ]	/* CallFunction */
NPUSHW[ ]	/* 5 values pushed */
218 63 234 63 2 
DELTAP1[ ]	/* DeltaExceptionP1 */
NPUSHW[ ]	/* 27 values pushed */
9 63 25 63 41 63 57 63 73 63 89 63 105 63 121 63 137 63 153 63 169 63 185 63 201 63 13 
DELTAP1[ ]	/* DeltaExceptionP1 */
PUSHW[ ]	/* 3 values pushed */
66 63 40 
SRP1[ ]	/* SetRefPoint1 */
SRP2[ ]	/* SetRefPoint2 */
IP[ ]	/* InterpolatePts */
IUP[0]	/* InterpolateUntPts */
IUP[1]	/* InterpolateUntPts */";
};
width = 1204;
}
);
note = eogonek;
unicode = 281;
},
{
glyphname = f;
lastChange = "2022-05-04 00:13:31 +0000";
layers = (
{
layerId = m01;
shapes = (
{
closed = 1;
nodes = (
(425,23,o),
(462,-12,o),
(511,-12,qs),
(513,-12,ls),
(562,-12,o),
(597,23,o),
(597,64,qs),
(597,1105,ls),
(597,1165,o),
(617,1259,o),
(662,1322,o),
(736,1356,o),
(791,1356,qs),
(821,1356,o),
(895,1339,o),
(936,1322,qs),
(940,1321,o),
(938,1321,o),
(937,1321,o),
(945,1320,o),
(959,1317,q),
(999,1319,o),
(1041,1356,o),
(1041,1389,qs),
(1041,1424,o),
(1009,1472,o),
(973,1489,qs),
(939,1505,o),
(837,1525,o),
(785,1525,qs),
(610,1525,o),
(425,1311,o),
(425,1120,qs),
(425,64,ls)
);
},
{
closed = 1;
nodes = (
(200,1070,o),
(167,1032,o),
(167,987,qs),
(167,941,o),
(200,903,o),
(241,903,qs),
(929,903,ls),
(969,903,o),
(1004,941,o),
(1004,987,qs),
(1004,1032,o),
(969,1070,o),
(929,1070,qs),
(241,1070,ls)
);
}
);
userData = {
assembly = "PUSHW[ ]	/* 1 value pushed */
0 
CALL[ ]	/* CallFunction */
SVTCA[0]	/* SetFreedomAndProjectionVectorToAxis */
PUSHW[ ]	/* 1 value pushed */
0 
RCVT[ ]	/* ReadCVT */
IF[ ]	/* If */
PUSHW[ ]	/* 1 value pushed */
29 
MDAP[1]	/* MoveDirectAbsPt */
ELSE[ ]	/* Else */
PUSHW[ ]	/* 2 values pushed */
29 21 
MIAP[0]	/* MoveIndirectAbsPt */
EIF[ ]	/* EndIf */
PUSHW[ ]	/* 3 values pushed */
3 20 3 
CALL[ ]	/* CallFunction */
PUSHW[ ]	/* 3 values pushed */
34 40 3 
CALL[ ]	/* CallFunction */
SVTCA[1]	/* SetFreedomAndProjectionVectorToAxis */
PUSHW[ ]	/* 3 values pushed */
25 0 3 
CALL[ ]	/* CallFunction */
IUP[0]	/* InterpolateUntPts */
IUP[1]	/* InterpolateUntPts */";
};
width = 1204;
}
);
note = f;
unicode = 102;
},
{
glyphname = g;
lastChange = "2022-05-04 00:13:31 +0000";
layers = (
{
layerId = m01;
shapes = (
{
closed = 1;
nodes = (
(185,242,o),
(302,105,o),
(461,32,o),
(553,32,qs),
(652,32,o),
(802,111,o),
(858,184,q),
(858,-20,ls),
(858,-83,o),
(827,-188,o),
(762,-263,o),
(660,-303,o),
(589,-303,qs),
(519,-303,o),
(350,-265,o),
(274,-234,qs),
(269,-232,o),
(256,-229,o),
(250,-229,qs),
(230,-229,o),
(201,-251,o),
(183,-284,o),
(174,-322,o),
(174,-337,qs),
(174,-364,o),
(197,-390,o),
(218,-401,qs),
(248,-416,o),
(338,-442,o),
(440,-463,o),
(547,-475,o),
(594,-475,qs),
(698,-475,o),
(861,-415,o),
(973,-302,o),
(1032,-139,o),
(1032,-35,qs),
(1032,1006,ls),
(1032,1047,o),
(997,1081,o),
(951,1081,qs),
(949,1081,ls),
(902,1081,o),
(868,1047,o),
(868,1006,qs),
(868,929,l),
(809,1009,o),
(653,1095,o),
(551,1095,qs),
(460,1095,o),
(302,1022,o),
(185,886,o),
(119,689,o),
(119,564,qs),
(119,439,o)
);
},
{
closed = 1;
nodes = (
(814,344,o),
(738,252,o),
(632,204,o),
(570,204,qs),
(504,204,o),
(402,257,o),
(332,353,o),
(296,485,o),
(296,564,qs),
(296,643,o),
(332,775,o),
(402,871,o),
(504,924,o),
(570,924,qs),
(632,924,o),
(738,875,o),
(814,784,o),
(858,650,o),
(858,564,qs),
(858,478,o)
);
}
);
userData = {
assembly = "PUSHW[ ]	/* 1 value pushed */
0 
CALL[ ]	/* CallFunction */
SVTCA[0]	/* SetFreedomAndProjectionVectorToAxis */
PUSHW[ ]	/* 3 values pushed */
41 22 3 
CALL[ ]	/* CallFunction */
PUSHW[ ]	/* 3 values pushed */
5 60 3 
CALL[ ]	/* CallFunction */
PUSHW[ ]	/* 3 values pushed */
70 50 3 
CALL[ ]	/* CallFunction */
PUSHW[ ]	/* 3 values pushed */
8 60 5 
SRP1[ ]	/* SetRefPoint1 */
SRP2[ ]	/* SetRefPoint2 */
IP[ ]	/* InterpolatePts */
PUSHW[ ]	/* 1 value pushed */
5 
SRP0[ ]	/* SetRefPoint0 */
PUSHW[ ]	/* 1 value pushed */
12 
MDRP[10000]	/* MoveDirectRelPt */
PUSHW[ ]	/* 1 value pushed */
12 
MDAP[1]	/* MoveDirectAbsPt */
PUSHW[ ]	/* 3 values pushed */
47 50 70 
SRP1[ ]	/* SetRefPoint1 */
SRP2[ ]	/* SetRefPoint2 */
IP[ ]	/* InterpolatePts */
SVTCA[1]	/* SetFreedomAndProjectionVectorToAxis */
PUSHW[ ]	/* 1 value pushed */
75 
MDAP[1]	/* MoveDirectAbsPt */
PUSHW[ ]	/* 1 value pushed */
46 
MDAP[1]	/* MoveDirectAbsPt */
PUSHW[ ]	/* 1 value pushed */
75 
SRP0[ ]	/* SetRefPoint0 */
PUSHW[ ]	/* 1 value pushed */
0 
MDRP[10000]	/* MoveDirectRelPt */
PUSHW[ ]	/* 1 value pushed */
0 
MDAP[1]	/* MoveDirectAbsPt */
PUSHW[ ]	/* 1 value pushed */
46 
SRP0[ ]	/* SetRefPoint0 */
PUSHW[ ]	/* 1 value pushed */
8 
MDRP[10000]	/* MoveDirectRelPt */
PUSHW[ ]	/* 1 value pushed */
8 
MDAP[1]	/* MoveDirectAbsPt */
PUSHW[ ]	/* 1 value pushed */
46 
SRP0[ ]	/* SetRefPoint0 */
PUSHW[ ]	/* 1 value pushed */
17 
MDRP[11100]	/* MoveDirectRelPt */
PUSHW[ ]	/* 1 value pushed */
46 
SRP0[ ]	/* SetRefPoint0 */
PUSHW[ ]	/* 1 value pushed */
55 
MDRP[10000]	/* MoveDirectRelPt */
PUSHW[ ]	/* 1 value pushed */
0 
SRP0[ ]	/* SetRefPoint0 */
PUSHW[ ]	/* 1 value pushed */
65 
MDRP[11100]	/* MoveDirectRelPt */
NPUSHW[ ]	/* 27 values pushed */
6 65 22 65 38 65 54 65 70 65 86 65 102 65 118 65 134 65 150 65 166 65 182 65 198 65 13 
DELTAP1[ ]	/* DeltaExceptionP1 */
NPUSHW[ ]	/* 5 values pushed */
213 65 229 65 2 
DELTAP1[ ]	/* DeltaExceptionP1 */
IUP[0]	/* InterpolateUntPts */
IUP[1]	/* InterpolateUntPts */";
};
width = 1204;
}
);
note = g;
unicode = 103;
},
{
glyphname = h;
lastChange = "2022-05-04 00:13:31 +0000";
layers = (
{
layerId = m01;
shapes = (
{
closed = 1;
nodes = (
(218,1531,o),
(182,1496,o),
(182,1455,qs),
(182,64,ls),
(182,23,o),
(218,-12,o),
(266,-12,qs),
(269,-12,ls),
(317,-12,o),
(354,23,o),
(354,64,qs),
(354,454,ls),
(354,552,o),
(416,724,o),
(515,851,o),
(640,924,o),
(704,924,qs),
(787,924,o),
(866,801,o),
(866,701,qs),
(866,64,ls),
(866,23,o),
(903,-12,o),
(952,-12,qs),
(954,-12,ls),
(1003,-12,o),
(1040,23,o),
(1040,64,qs),
(1040,718,ls),
(1040,805,o),
(995,945,o),
(912,1042,o),
(797,1095,o),
(725,1095,qs),
(613,1095,o),
(425,973,o),
(354,868,q),
(354,1455,ls),
(354,1496,o),
(317,1531,o),
(269,1531,qs),
(266,1531,ls)
);
}
);
userData = {
assembly = "PUSHW[ ]	/* 1 value pushed */
0 
CALL[ ]	/* CallFunction */
SVTCA[0]	/* SetFreedomAndProjectionVectorToAxis */
PUSHW[ ]	/* 1 value pushed */
0 
RCVT[ ]	/* ReadCVT */
IF[ ]	/* If */
PUSHW[ ]	/* 1 value pushed */
16 
MDAP[1]	/* MoveDirectAbsPt */
ELSE[ ]	/* Else */
PUSHW[ ]	/* 2 values pushed */
16 21 
MIAP[0]	/* MoveIndirectAbsPt */
EIF[ ]	/* EndIf */
PUSHW[ ]	/* 1 value pushed */
0 
RCVT[ ]	/* ReadCVT */
IF[ ]	/* If */
PUSHW[ ]	/* 1 value pushed */
33 
MDAP[1]	/* MoveDirectAbsPt */
ELSE[ ]	/* Else */
PUSHW[ ]	/* 2 values pushed */
33 21 
MIAP[0]	/* MoveIndirectAbsPt */
EIF[ ]	/* EndIf */
PUSHW[ ]	/* 3 values pushed */
7 24 3 
CALL[ ]	/* CallFunction */
SVTCA[1]	/* SetFreedomAndProjectionVectorToAxis */
PUSHW[ ]	/* 1 value pushed */
42 
MDAP[1]	/* MoveDirectAbsPt */
PUSHW[ ]	/* 1 value pushed */
20 
MDAP[1]	/* MoveDirectAbsPt */
PUSHW[ ]	/* 1 value pushed */
42 
SRP0[ ]	/* SetRefPoint0 */
PUSHW[ ]	/* 1 value pushed */
37 
MDRP[10000]	/* MoveDirectRelPt */
PUSHW[ ]	/* 1 value pushed */
37 
MDAP[1]	/* MoveDirectAbsPt */
PUSHW[ ]	/* 1 value pushed */
30 
MDRP[11100]	/* MoveDirectRelPt */
PUSHW[ ]	/* 1 value pushed */
3 
MDRP[10000]	/* MoveDirectRelPt */
PUSHW[ ]	/* 1 value pushed */
20 
SRP0[ ]	/* SetRefPoint0 */
PUSHW[ ]	/* 1 value pushed */
13 
MDRP[11100]	/* MoveDirectRelPt */
PUSHW[ ]	/* 3 values pushed */
4 37 13 
SRP1[ ]	/* SetRefPoint1 */
SRP2[ ]	/* SetRefPoint2 */
IP[ ]	/* InterpolatePts */
IUP[0]	/* InterpolateUntPts */
IUP[1]	/* InterpolateUntPts */";
};
width = 1204;
}
);
note = h;
unicode = 104;
},
{
glyphname = hbar;
lastChange = "2022-05-04 00:13:31 +0000";
layers = (
{
layerId = m01;
shapes = (
{
closed = 1;
nodes = (
(237,1531,o),
(201,1496,o),
(201,1455,qs),
(201,64,ls),
(201,23,o),
(237,-12,o),
(286,-12,qs),
(288,-12,ls),
(337,-12,o),
(374,23,o),
(374,64,qs),
(374,408,ls),
(374,501,o),
(431,665,o),
(521,785,o),
(636,855,o),
(694,855,qs),
(772,855,o),
(846,732,o),
(846,631,qs),
(846,64,ls),
(846,23,o),
(883,-12,o),
(932,-12,qs),
(934,-12,ls),
(983,-12,o),
(1020,23,o),
(1020,64,qs),
(1020,648,ls),
(1020,735,o),
(977,875,o),
(897,973,o),
(785,1026,o),
(716,1026,qs),
(599,1026,o),
(397,879,o),
(328,741,q),
(374,687,l),
(374,1455,ls),
(374,1496,o),
(337,1531,o),
(288,1531,qs),
(286,1531,ls)
);
},
{
closed = 1;
nodes = (
(36,1332,o),
(1,1293,o),
(1,1248,qs),
(1,1203,o),
(36,1165,o),
(76,1165,qs),
(614,1165,ls),
(653,1165,o),
(687,1203,o),
(687,1248,qs),
(687,1293,o),
(653,1332,o),
(614,1332,qs),
(76,1332,ls)
);
}
);
userData = {
assembly = "PUSHW[ ]	/* 1 value pushed */
0 
CALL[ ]	/* CallFunction */
SVTCA[0]	/* SetFreedomAndProjectionVectorToAxis */
PUSHW[ ]	/* 1 value pushed */
0 
RCVT[ ]	/* ReadCVT */
IF[ ]	/* If */
PUSHW[ ]	/* 1 value pushed */
17 
MDAP[1]	/* MoveDirectAbsPt */
ELSE[ ]	/* Else */
PUSHW[ ]	/* 2 values pushed */
17 21 
MIAP[0]	/* MoveIndirectAbsPt */
EIF[ ]	/* EndIf */
PUSHW[ ]	/* 1 value pushed */
0 
RCVT[ ]	/* ReadCVT */
IF[ ]	/* If */
PUSHW[ ]	/* 1 value pushed */
34 
MDAP[1]	/* MoveDirectAbsPt */
ELSE[ ]	/* Else */
PUSHW[ ]	/* 2 values pushed */
34 21 
MIAP[0]	/* MoveIndirectAbsPt */
EIF[ ]	/* EndIf */
PUSHW[ ]	/* 3 values pushed */
43 49 3 
CALL[ ]	/* CallFunction */
PUSHW[ ]	/* 3 values pushed */
8 25 3 
CALL[ ]	/* CallFunction */
SVTCA[1]	/* SetFreedomAndProjectionVectorToAxis */
PUSHW[ ]	/* 1 value pushed */
57 
MDAP[1]	/* MoveDirectAbsPt */
PUSHW[ ]	/* 1 value pushed */
21 
MDAP[1]	/* MoveDirectAbsPt */
PUSHW[ ]	/* 1 value pushed */
57 
SRP0[ ]	/* SetRefPoint0 */
PUSHW[ ]	/* 1 value pushed */
38 
MDRP[10000]	/* MoveDirectRelPt */
PUSHW[ ]	/* 1 value pushed */
38 
MDAP[1]	/* MoveDirectAbsPt */
PUSHW[ ]	/* 1 value pushed */
31 
MDRP[11100]	/* MoveDirectRelPt */
PUSHW[ ]	/* 1 value pushed */
3 
MDRP[10000]	/* MoveDirectRelPt */
PUSHW[ ]	/* 1 value pushed */
21 
SRP0[ ]	/* SetRefPoint0 */
PUSHW[ ]	/* 1 value pushed */
14 
MDRP[11100]	/* MoveDirectRelPt */
PUSHW[ ]	/* 3 values pushed */
4 38 14 
SRP1[ ]	/* SetRefPoint1 */
SRP2[ ]	/* SetRefPoint2 */
IP[ ]	/* InterpolatePts */
IUP[0]	/* InterpolateUntPts */
IUP[1]	/* InterpolateUntPts */";
};
width = 1204;
}
);
note = hbar;
unicode = 295;
},
{
glyphname = dotlessi;
lastChange = "2022-05-04 00:13:31 +0000";
layers = (
{
layerId = m01;
shapes = (
{
closed = 1;
nodes = (
(411,1070,o),
(376,1032,o),
(376,987,qs),
(376,941,o),
(411,903,o),
(452,903,qs),
(540,903,l),
(540,167,l),
(551,167,l),
(276,167,ls),
(235,167,o),
(201,129,o),
(201,83,qs),
(201,38,o),
(235,0,o),
(276,0,qs),
(960,0,ls),
(1000,0,o),
(1035,38,o),
(1035,83,qs),
(1035,129,o),
(1000,167,o),
(960,167,qs),
(712,167,l),
(712,991,ls),
(712,1035,o),
(677,1070,o),
(637,1070,qs),
(452,1070,ls)
);
}
);
userData = {
assembly = "PUSHW[ ]	/* 1 value pushed */
0 
CALL[ ]	/* CallFunction */
SVTCA[0]	/* SetFreedomAndProjectionVectorToAxis */
PUSHW[ ]	/* 1 value pushed */
0 
RCVT[ ]	/* ReadCVT */
IF[ ]	/* If */
PUSHW[ ]	/* 1 value pushed */
11 
MDAP[1]	/* MoveDirectAbsPt */
ELSE[ ]	/* Else */
PUSHW[ ]	/* 2 values pushed */
11 21 
MIAP[0]	/* MoveIndirectAbsPt */
EIF[ ]	/* EndIf */
PUSHW[ ]	/* 3 values pushed */
0 21 3 
CALL[ ]	/* CallFunction */
PUSHW[ ]	/* 1 value pushed */
11 
SRP0[ ]	/* SetRefPoint0 */
PUSHW[ ]	/* 1 value pushed */
4 
MDRP[11100]	/* MoveDirectRelPt */
PUSHW[ ]	/* 1 value pushed */
18 
MDRP[10000]	/* MoveDirectRelPt */
PUSHW[ ]	/* 1 value pushed */
19 
MDRP[10000]	/* MoveDirectRelPt */
PUSHW[ ]	/* 1 value pushed */
20 
MDRP[10000]	/* MoveDirectRelPt */
SVTCA[1]	/* SetFreedomAndProjectionVectorToAxis */
PUSHW[ ]	/* 3 values pushed */
4 20 3 
CALL[ ]	/* CallFunction */
IUP[0]	/* InterpolateUntPts */
IUP[1]	/* InterpolateUntPts */";
};
width = 1204;
}
);
note = dotlessi;
unicode = 305;
},
{
glyphname = ij;
lastChange = "2022-05-04 00:13:31 +0000";
layers = (
{
layerId = m01;
shapes = (
{
closed = 1;
nodes = (
(420,1543,o),
(379,1578,o),
(315,1578,qs),
(283,1578,o),
(242,1570,o),
(218,1552,o),
(208,1523,o),
(208,1503,qs),
(208,1352,ls),
(208,1313,o),
(251,1277,o),
(315,1277,qs),
(379,1277,o),
(420,1312,o),
(420,1352,qs),
(420,1503,ls)
);
},
{
closed = 1;
nodes = (
(1009,1543,o),
(967,1578,o),
(903,1578,qs),
(871,1578,o),
(830,1570,o),
(806,1552,o),
(797,1523,o),
(797,1503,qs),
(797,1352,ls),
(797,1313,o),
(839,1277,o),
(903,1277,qs),
(967,1277,o),
(1009,1312,o),
(1009,1352,qs),
(1009,1503,ls)
);
},
{
closed = 1;
nodes = (
(846,1081,o),
(809,1047,o),
(809,1006,qs),
(809,-122,ls),
(809,-220,o),
(757,-303,o),
(702,-303,qs),
(658,-303,o),
(571,-278,o),
(533,-256,qs),
(519,-248,o),
(500,-248,qs),
(483,-248,o),
(453,-267,o),
(432,-299,o),
(420,-337,o),
(420,-355,qs),
(420,-390,o),
(492,-435,o),
(587,-463,o),
(680,-475,o),
(701,-475,qs),
(837,-475,o),
(983,-313,o),
(983,-156,qs),
(983,1006,ls),
(983,1047,o),
(946,1081,o),
(897,1081,qs),
(895,1081,ls)
);
},
{
closed = 1;
nodes = (
(258,1081,o),
(221,1047,o),
(221,1006,qs),
(221,64,ls),
(221,23,o),
(258,-12,o),
(307,-12,qs),
(308,-12,ls),
(357,-12,o),
(395,23,o),
(395,64,qs),
(395,1006,ls),
(395,1047,o),
(357,1081,o),
(308,1081,qs),
(307,1081,ls)
);
}
);
userData = {
assembly = "PUSHW[ ]	/* 1 value pushed */
0 
CALL[ ]	/* CallFunction */
SVTCA[0]	/* SetFreedomAndProjectionVectorToAxis */
PUSHW[ ]	/* 1 value pushed */
0 
RCVT[ ]	/* ReadCVT */
IF[ ]	/* If */
PUSHW[ ]	/* 1 value pushed */
69 
MDAP[1]	/* MoveDirectAbsPt */
ELSE[ ]	/* Else */
PUSHW[ ]	/* 2 values pushed */
69 21 
MIAP[0]	/* MoveIndirectAbsPt */
EIF[ ]	/* EndIf */
PUSHW[ ]	/* 3 values pushed */
54 39 3 
CALL[ ]	/* CallFunction */
PUSHW[ ]	/* 3 values pushed */
12 3 3 
CALL[ ]	/* CallFunction */
PUSHW[ ]	/* 1 value pushed */
3 
SRP0[ ]	/* SetRefPoint0 */
PUSHW[ ]	/* 1 value pushed */
19 
MDRP[10000]	/* MoveDirectRelPt */
PUSHW[ ]	/* 1 value pushed */
12 
SRP0[ ]	/* SetRefPoint0 */
PUSHW[ ]	/* 1 value pushed */
28 
MDRP[10000]	/* MoveDirectRelPt */
SVTCA[1]	/* SetFreedomAndProjectionVectorToAxis */
PUSHW[ ]	/* 3 values pushed */
66 73 3 
CALL[ ]	/* CallFunction */
PUSHW[ ]	/* 3 values pushed */
36 57 3 
CALL[ ]	/* CallFunction */
PUSHW[ ]	/* 1 value pushed */
73 
SRP0[ ]	/* SetRefPoint0 */
PUSHW[ ]	/* 1 value pushed */
0 
MDRP[11100]	/* MoveDirectRelPt */
PUSHW[ ]	/* 1 value pushed */
73 
SRP0[ ]	/* SetRefPoint0 */
PUSHW[ ]	/* 1 value pushed */
6 
MDRP[10000]	/* MoveDirectRelPt */
PUSHW[ ]	/* 1 value pushed */
6 
MDAP[1]	/* MoveDirectAbsPt */
PUSHW[ ]	/* 1 value pushed */
57 
SRP0[ ]	/* SetRefPoint0 */
PUSHW[ ]	/* 1 value pushed */
16 
MDRP[11100]	/* MoveDirectRelPt */
PUSHW[ ]	/* 1 value pushed */
57 
SRP0[ ]	/* SetRefPoint0 */
PUSHW[ ]	/* 1 value pushed */
22 
MDRP[10000]	/* MoveDirectRelPt */
PUSHW[ ]	/* 1 value pushed */
22 
MDAP[1]	/* MoveDirectAbsPt */
PUSHW[ ]	/* 1 value pushed */
0 
SRP0[ ]	/* SetRefPoint0 */
PUSHW[ ]	/* 1 value pushed */
44 
MDRP[10000]	/* MoveDirectRelPt */
IUP[0]	/* InterpolateUntPts */
IUP[1]	/* InterpolateUntPts */";
};
width = 1204;
}
);
note = ij;
unicode = 307;
},
{
glyphname = uni0237;
lastChange = "2022-05-04 00:13:31 +0000";
layers = (
{
layerId = m01;
shapes = (
{
closed = 1;
nodes = (
(727,-177,o),
(658,-306,o),
(567,-306,qs),
(533,-306,o),
(459,-287,o),
(387,-256,o),
(318,-214,o),
(288,-191,qs),
(279,-184,o),
(262,-179,o),
(255,-179,qs),
(236,-179,o),
(206,-200,o),
(183,-232,o),
(170,-267,o),
(170,-284,qs),
(170,-303,o),
(190,-330,o),
(208,-345,qs),
(242,-372,o),
(329,-419,o),
(426,-454,o),
(530,-475,o),
(580,-475,qs),
(660,-475,o),
(770,-426,o),
(841,-350,o),
(879,-255,o),
(896,-164,o),
(900,-87,o),
(900,-66,qs),
(900,991,ls),
(900,1035,o),
(866,1070,o),
(826,1070,qs),
(727,1070,l),
(727,-51,ls)
);
},
{
closed = 1;
nodes = (
(280,1070,o),
(245,1032,o),
(245,987,qs),
(245,941,o),
(280,903,o),
(321,903,qs),
(792,903,l),
(792,1070,l),
(321,1070,ls)
);
}
);
userData = {
assembly = "PUSHW[ ]	/* 1 value pushed */
0 
CALL[ ]	/* CallFunction */
SVTCA[0]	/* SetFreedomAndProjectionVectorToAxis */
PUSHW[ ]	/* 3 values pushed */
33 12 3 
CALL[ ]	/* CallFunction */
PUSHW[ ]	/* 3 values pushed */
37 38 3 
CALL[ ]	/* CallFunction */
PUSHW[ ]	/* 1 value pushed */
37 
SRP0[ ]	/* SetRefPoint0 */
PUSHW[ ]	/* 1 value pushed */
0 
MDRP[10000]	/* MoveDirectRelPt */
SVTCA[1]	/* SetFreedomAndProjectionVectorToAxis */
PUSHW[ ]	/* 3 values pushed */
4 0 3 
CALL[ ]	/* CallFunction */
IUP[0]	/* InterpolateUntPts */
IUP[1]	/* InterpolateUntPts */";
};
width = 1204;
}
);
note = uni0237;
unicode = 567;
},
{
glyphname = k;
lastChange = "2022-05-04 00:13:31 +0000";
layers = (
{
layerId = m01;
shapes = (
{
closed = 1;
nodes = (
(357,277,l),
(1027,965,l),
(1041,981,o),
(1053,1000,o),
(1053,1010,qs),
(1053,1025,o),
(1029,1054,o),
(995,1077,o),
(955,1091,o),
(939,1091,qs),
(923,1091,o),
(897,1079,o),
(888,1070,q),
(887,1070,l),
(269,425,l)
);
},
{
closed = 1;
nodes = (
(248,1531,o),
(212,1496,o),
(212,1455,qs),
(212,64,ls),
(212,23,o),
(248,-12,o),
(296,-12,qs),
(299,-12,ls),
(347,-12,o),
(384,23,o),
(384,64,qs),
(384,1455,ls),
(384,1496,o),
(347,1531,o),
(299,1531,qs),
(296,1531,ls)
);
},
{
closed = 1;
nodes = (
(930,-19,o),
(959,-19,qs),
(974,-19,o),
(1014,-3,o),
(1050,20,o),
(1076,49,o),
(1076,63,qs),
(1076,72,o),
(1063,95,o),
(1053,110,qs),
(604,683,l),
(471,573,l),
(914,3,ls)
);
}
);
userData = {
assembly = "PUSHW[ ]	/* 1 value pushed */
0 
CALL[ ]	/* CallFunction */
SVTCA[0]	/* SetFreedomAndProjectionVectorToAxis */
PUSHW[ ]	/* 1 value pushed */
0 
RCVT[ ]	/* ReadCVT */
IF[ ]	/* If */
PUSHW[ ]	/* 1 value pushed */
22 
MDAP[1]	/* MoveDirectAbsPt */
ELSE[ ]	/* Else */
PUSHW[ ]	/* 2 values pushed */
22 21 
MIAP[0]	/* MoveIndirectAbsPt */
EIF[ ]	/* EndIf */
PUSHW[ ]	/* 1 value pushed */
0 
RCVT[ ]	/* ReadCVT */
IF[ ]	/* If */
PUSHW[ ]	/* 1 value pushed */
41 
MDAP[1]	/* MoveDirectAbsPt */
ELSE[ ]	/* Else */
PUSHW[ ]	/* 2 values pushed */
41 21 
MIAP[0]	/* MoveIndirectAbsPt */
EIF[ ]	/* EndIf */
PUSHW[ ]	/* 1 value pushed */
0 
RCVT[ ]	/* ReadCVT */
IF[ ]	/* If */
PUSHW[ ]	/* 1 value pushed */
43 
MDAP[1]	/* MoveDirectAbsPt */
ELSE[ ]	/* Else */
PUSHW[ ]	/* 2 values pushed */
43 21 
MIAP[0]	/* MoveIndirectAbsPt */
EIF[ ]	/* EndIf */
SVTCA[1]	/* SetFreedomAndProjectionVectorToAxis */
PUSHW[ ]	/* 3 values pushed */
19 26 3 
CALL[ ]	/* CallFunction */
PUSHW[ ]	/* 3 values pushed */
13 26 19 
SRP1[ ]	/* SetRefPoint1 */
SRP2[ ]	/* SetRefPoint2 */
IP[ ]	/* InterpolatePts */
IUP[0]	/* InterpolateUntPts */
IUP[1]	/* InterpolateUntPts */";
};
width = 1204;
}
);
note = k;
unicode = 107;
},
{
glyphname = l;
lastChange = "2022-05-04 00:13:31 +0000";
layers = (
{
layerId = m01;
shapes = (
{
closed = 1;
nodes = (
(702,123,l),
(702,1440,ls),
(702,1484,o),
(668,1519,o),
(628,1519,qs),
(529,1519,l),
(529,123,l)
);
},
{
closed = 1;
nodes = (
(250,167,o),
(215,129,o),
(215,83,qs),
(215,38,o),
(250,0,o),
(291,0,qs),
(939,0,ls),
(980,0,o),
(1013,38,o),
(1013,83,qs),
(1013,129,o),
(980,167,o),
(939,167,qs),
(291,167,ls)
);
},
{
closed = 1;
nodes = (
(346,1519,o),
(311,1481,o),
(311,1436,qs),
(311,1391,o),
(346,1352,o),
(387,1352,qs),
(614,1352,l),
(614,1519,l),
(387,1519,ls)
);
}
);
userData = {
assembly = "PUSHW[ ]	/* 1 value pushed */
0 
CALL[ ]	/* CallFunction */
SVTCA[0]	/* SetFreedomAndProjectionVectorToAxis */
PUSHW[ ]	/* 1 value pushed */
0 
RCVT[ ]	/* ReadCVT */
IF[ ]	/* If */
PUSHW[ ]	/* 1 value pushed */
13 
MDAP[1]	/* MoveDirectAbsPt */
ELSE[ ]	/* Else */
PUSHW[ ]	/* 2 values pushed */
13 21 
MIAP[0]	/* MoveIndirectAbsPt */
EIF[ ]	/* EndIf */
PUSHW[ ]	/* 3 values pushed */
21 22 3 
CALL[ ]	/* CallFunction */
PUSHW[ ]	/* 1 value pushed */
21 
SRP0[ ]	/* SetRefPoint0 */
PUSHW[ ]	/* 1 value pushed */
0 
MDRP[10000]	/* MoveDirectRelPt */
PUSHW[ ]	/* 1 value pushed */
13 
SRP0[ ]	/* SetRefPoint0 */
PUSHW[ ]	/* 1 value pushed */
7 
MDRP[11100]	/* MoveDirectRelPt */
SVTCA[1]	/* SetFreedomAndProjectionVectorToAxis */
PUSHW[ ]	/* 3 values pushed */
4 0 3 
CALL[ ]	/* CallFunction */
IUP[0]	/* InterpolateUntPts */
IUP[1]	/* InterpolateUntPts */";
};
width = 1204;
}
);
note = l;
unicode = 108;
},
{
glyphname = lslash;
lastChange = "2022-05-04 00:13:31 +0000";
layers = (
{
layerId = m01;
shapes = (
{
closed = 1;
nodes = (
(707,1440,ls),
(707,1484,o),
(674,1519,o),
(633,1519,qs),
(277,1519,ls),
(236,1519,o),
(201,1481,o),
(201,1436,qs),
(201,1391,o),
(236,1352,o),
(277,1352,qs),
(535,1352,l),
(535,836,l),
(285,637,l),
(269,622,o),
(249,596,o),
(248,584,q),
(249,574,o),
(258,548,o),
(269,531,qs),
(293,489,o),
(329,489,qs),
(342,489,o),
(362,498,o),
(374,507,qs),
(415,540,o),
(494,602,o),
(535,635,q),
(535,167,l),
(237,167,ls),
(197,167,o),
(162,129,o),
(162,83,qs),
(162,38,o),
(197,0,o),
(237,0,qs),
(1014,0,ls),
(1055,0,o),
(1088,38,o),
(1088,83,qs),
(1088,129,o),
(1055,167,o),
(1014,167,qs),
(707,167,l),
(707,772,l),
(765,817,o),
(880,909,o),
(938,955,qs),
(975,984,o),
(975,1009,qs),
(975,1018,o),
(963,1043,o),
(954,1061,qs),
(932,1103,o),
(895,1103,qs),
(873,1103,o),
(849,1085,qs),
(707,973,l)
);
}
);
userData = {
assembly = "PUSHW[ ]	/* 1 value pushed */
0 
CALL[ ]	/* CallFunction */
SVTCA[0]	/* SetFreedomAndProjectionVectorToAxis */
PUSHW[ ]	/* 1 value pushed */
0 
RCVT[ ]	/* ReadCVT */
IF[ ]	/* If */
PUSHW[ ]	/* 1 value pushed */
20 
MDAP[1]	/* MoveDirectAbsPt */
ELSE[ ]	/* Else */
PUSHW[ ]	/* 2 values pushed */
20 21 
MIAP[0]	/* MoveIndirectAbsPt */
EIF[ ]	/* EndIf */
PUSHW[ ]	/* 3 values pushed */
53 45 3 
CALL[ ]	/* CallFunction */
PUSHW[ ]	/* 1 value pushed */
20 
SRP0[ ]	/* SetRefPoint0 */
PUSHW[ ]	/* 1 value pushed */
13 
MDRP[11100]	/* MoveDirectRelPt */
PUSHW[ ]	/* 1 value pushed */
27 
MDRP[10000]	/* MoveDirectRelPt */
PUSHW[ ]	/* 1 value pushed */
28 
MDRP[10000]	/* MoveDirectRelPt */
SVTCA[1]	/* SetFreedomAndProjectionVectorToAxis */
PUSHW[ ]	/* 3 values pushed */
13 28 3 
CALL[ ]	/* CallFunction */
PUSHW[ ]	/* 1 value pushed */
28 
SRP0[ ]	/* SetRefPoint0 */
PUSHW[ ]	/* 1 value pushed */
44 
MDRP[10000]	/* MoveDirectRelPt */
PUSHW[ ]	/* 1 value pushed */
13 
SRP0[ ]	/* SetRefPoint0 */
PUSHW[ ]	/* 1 value pushed */
56 
MDRP[10000]	/* MoveDirectRelPt */
IUP[0]	/* InterpolateUntPts */
IUP[1]	/* InterpolateUntPts */";
};
width = 1204;
}
);
note = lslash;
unicode = 322;
},
{
glyphname = m;
lastChange = "2022-05-04 00:13:31 +0000";
layers = (
{
layerId = m01;
shapes = (
{
closed = 1;
nodes = (
(644,1005,o),
(540,1095,o),
(474,1095,qs),
(410,1095,o),
(295,1012,o),
(255,927,q),
(255,1006,ls),
(255,1047,o),
(223,1081,o),
(178,1081,qs),
(177,1081,ls),
(133,1081,o),
(102,1047,o),
(102,1006,qs),
(102,64,ls),
(102,23,o),
(139,-12,o),
(188,-12,qs),
(189,-12,ls),
(237,-12,o),
(274,23,o),
(274,64,qs),
(274,529,ls),
(274,616,o),
(300,762,o),
(344,866,o),
(403,924,o),
(438,924,qs),
(478,924,o),
(516,841,o),
(516,764,qs),
(516,64,ls),
(516,23,o),
(553,-12,o),
(602,-12,qs),
(603,-12,ls),
(652,-12,o),
(689,23,o),
(689,64,qs),
(689,529,ls),
(689,616,o),
(714,762,o),
(758,866,o),
(817,924,o),
(852,924,qs),
(893,924,o),
(931,841,o),
(931,764,qs),
(931,64,ls),
(931,23,o),
(968,-12,o),
(1017,-12,qs),
(1019,-12,ls),
(1068,-12,o),
(1103,23,o),
(1103,64,qs),
(1103,785,ls),
(1103,865,o),
(1070,982,o),
(1011,1058,o),
(932,1095,o),
(887,1095,qs),
(814,1095,o),
(694,992,o),
(650,886,q),
(657,886,l),
(667,909,l)
);
}
);
userData = {
assembly = "PUSHW[ ]	/* 1 value pushed */
0 
CALL[ ]	/* CallFunction */
SVTCA[0]	/* SetFreedomAndProjectionVectorToAxis */
PUSHW[ ]	/* 1 value pushed */
0 
RCVT[ ]	/* ReadCVT */
IF[ ]	/* If */
PUSHW[ ]	/* 1 value pushed */
13 
MDAP[1]	/* MoveDirectAbsPt */
ELSE[ ]	/* Else */
PUSHW[ ]	/* 2 values pushed */
13 21 
MIAP[0]	/* MoveIndirectAbsPt */
EIF[ ]	/* EndIf */
PUSHW[ ]	/* 1 value pushed */
0 
RCVT[ ]	/* ReadCVT */
IF[ ]	/* If */
PUSHW[ ]	/* 1 value pushed */
30 
MDAP[1]	/* MoveDirectAbsPt */
ELSE[ ]	/* Else */
PUSHW[ ]	/* 2 values pushed */
30 21 
MIAP[0]	/* MoveIndirectAbsPt */
EIF[ ]	/* EndIf */
PUSHW[ ]	/* 1 value pushed */
0 
RCVT[ ]	/* ReadCVT */
IF[ ]	/* If */
PUSHW[ ]	/* 1 value pushed */
47 
MDAP[1]	/* MoveDirectAbsPt */
ELSE[ ]	/* Else */
PUSHW[ ]	/* 2 values pushed */
47 21 
MIAP[0]	/* MoveIndirectAbsPt */
EIF[ ]	/* EndIf */
PUSHW[ ]	/* 3 values pushed */
4 21 3 
CALL[ ]	/* CallFunction */
PUSHW[ ]	/* 1 value pushed */
21 
SRP0[ ]	/* SetRefPoint0 */
PUSHW[ ]	/* 1 value pushed */
38 
MDRP[10000]	/* MoveDirectRelPt */
PUSHW[ ]	/* 1 value pushed */
4 
SRP0[ ]	/* SetRefPoint0 */
PUSHW[ ]	/* 1 value pushed */
55 
MDRP[10000]	/* MoveDirectRelPt */
PUSHW[ ]	/* 1 value pushed */
55 
MDAP[1]	/* MoveDirectAbsPt */
PUSHW[ ]	/* 3 values pushed */
60 21 4 
SRP1[ ]	/* SetRefPoint1 */
SRP2[ ]	/* SetRefPoint2 */
IP[ ]	/* InterpolatePts */
PUSHW[ ]	/* 1 value pushed */
4 
SRP0[ ]	/* SetRefPoint0 */
PUSHW[ ]	/* 1 value pushed */
63 
MDRP[10000]	/* MoveDirectRelPt */
SVTCA[1]	/* SetFreedomAndProjectionVectorToAxis */
PUSHW[ ]	/* 1 value pushed */
67 
MDAP[1]	/* MoveDirectAbsPt */
PUSHW[ ]	/* 1 value pushed */
51 
SRP0[ ]	/* SetRefPoint0 */
PUSHW[ ]	/* 1 value pushed */
34 
MDRP[11100]	/* MoveDirectRelPt */
NPUSHW[ ]	/* 3 values pushed */
79 34 1 
DELTAP1[ ]	/* DeltaExceptionP1 */
NPUSHW[ ]	/* 3 values pushed */
240 34 1 
DELTAP1[ ]	/* DeltaExceptionP1 */
NPUSHW[ ]	/* 3 values pushed */
160 34 1 
DELTAP1[ ]	/* DeltaExceptionP1 */
PUSHW[ ]	/* 1 value pushed */
17 
MDRP[11100]	/* MoveDirectRelPt */
NPUSHW[ ]	/* 3 values pushed */
79 17 1 
DELTAP1[ ]	/* DeltaExceptionP1 */
NPUSHW[ ]	/* 3 values pushed */
240 17 1 
DELTAP1[ ]	/* DeltaExceptionP1 */
NPUSHW[ ]	/* 3 values pushed */
160 17 1 
DELTAP1[ ]	/* DeltaExceptionP1 */
PUSHW[ ]	/* 3 values pushed */
1 34 17 
SRP1[ ]	/* SetRefPoint1 */
SRP2[ ]	/* SetRefPoint2 */
IP[ ]	/* InterpolatePts */
PUSHW[ ]	/* 1 value pushed */
10 
MDRP[11100]	/* MoveDirectRelPt */
PUSHW[ ]	/* 1 value pushed */
34 
SRP0[ ]	/* SetRefPoint0 */
PUSHW[ ]	/* 1 value pushed */
27 
MDRP[11100]	/* MoveDirectRelPt */
PUSHW[ ]	/* 1 value pushed */
51 
SRP0[ ]	/* SetRefPoint0 */
PUSHW[ ]	/* 1 value pushed */
44 
MDRP[11100]	/* MoveDirectRelPt */
PUSHW[ ]	/* 3 values pushed */
60 51 34 
SRP1[ ]	/* SetRefPoint1 */
SRP2[ ]	/* SetRefPoint2 */
IP[ ]	/* InterpolatePts */
IUP[0]	/* InterpolateUntPts */
IUP[1]	/* InterpolateUntPts */";
};
width = 1204;
}
);
note = m;
unicode = 109;
},
{
glyphname = n;
lastChange = "2022-05-04 00:13:31 +0000";
layers = (
{
layerId = m01;
shapes = (
{
closed = 1;
nodes = (
(345,1047,o),
(311,1081,o),
(264,1081,qs),
(262,1081,ls),
(215,1081,o),
(182,1047,o),
(182,1006,qs),
(182,64,ls),
(182,23,o),
(218,-12,o),
(266,-12,qs),
(269,-12,ls),
(317,-12,o),
(354,23,o),
(354,64,qs),
(354,454,ls),
(354,552,o),
(416,724,o),
(515,851,o),
(640,924,o),
(704,924,qs),
(787,924,o),
(866,801,o),
(866,701,qs),
(866,64,ls),
(866,23,o),
(903,-12,o),
(952,-12,qs),
(954,-12,ls),
(1003,-12,o),
(1040,23,o),
(1040,64,qs),
(1040,718,ls),
(1040,805,o),
(995,945,o),
(914,1042,o),
(798,1095,o),
(726,1095,qs),
(663,1095,o),
(549,1055,o),
(446,982,o),
(358,880,o),
(323,817,q),
(329,817,l),
(345,844,l),
(345,1006,ls)
);
}
);
userData = {
assembly = "PUSHW[ ]	/* 1 value pushed */
0 
CALL[ ]	/* CallFunction */
SVTCA[0]	/* SetFreedomAndProjectionVectorToAxis */
PUSHW[ ]	/* 1 value pushed */
0 
RCVT[ ]	/* ReadCVT */
IF[ ]	/* If */
PUSHW[ ]	/* 1 value pushed */
16 
MDAP[1]	/* MoveDirectAbsPt */
ELSE[ ]	/* Else */
PUSHW[ ]	/* 2 values pushed */
16 21 
MIAP[0]	/* MoveIndirectAbsPt */
EIF[ ]	/* EndIf */
PUSHW[ ]	/* 1 value pushed */
0 
RCVT[ ]	/* ReadCVT */
IF[ ]	/* If */
PUSHW[ ]	/* 1 value pushed */
33 
MDAP[1]	/* MoveDirectAbsPt */
ELSE[ ]	/* Else */
PUSHW[ ]	/* 2 values pushed */
33 21 
MIAP[0]	/* MoveIndirectAbsPt */
EIF[ ]	/* EndIf */
PUSHW[ ]	/* 3 values pushed */
7 24 3 
CALL[ ]	/* CallFunction */
PUSHW[ ]	/* 1 value pushed */
7 
SRP0[ ]	/* SetRefPoint0 */
PUSHW[ ]	/* 1 value pushed */
41 
MDRP[10000]	/* MoveDirectRelPt */
PUSHW[ ]	/* 1 value pushed */
41 
MDAP[1]	/* MoveDirectAbsPt */
SVTCA[1]	/* SetFreedomAndProjectionVectorToAxis */
PUSHW[ ]	/* 1 value pushed */
46 
MDAP[1]	/* MoveDirectAbsPt */
PUSHW[ ]	/* 1 value pushed */
20 
MDAP[1]	/* MoveDirectAbsPt */
PUSHW[ ]	/* 1 value pushed */
46 
SRP0[ ]	/* SetRefPoint0 */
PUSHW[ ]	/* 1 value pushed */
37 
MDRP[10000]	/* MoveDirectRelPt */
PUSHW[ ]	/* 1 value pushed */
37 
MDAP[1]	/* MoveDirectAbsPt */
PUSHW[ ]	/* 1 value pushed */
30 
MDRP[11100]	/* MoveDirectRelPt */
PUSHW[ ]	/* 1 value pushed */
0 
MDRP[10000]	/* MoveDirectRelPt */
PUSHW[ ]	/* 1 value pushed */
0 
MDAP[1]	/* MoveDirectAbsPt */
PUSHW[ ]	/* 3 values pushed */
2 37 30 
SRP1[ ]	/* SetRefPoint1 */
SRP2[ ]	/* SetRefPoint2 */
IP[ ]	/* InterpolatePts */
PUSHW[ ]	/* 1 value pushed */
20 
SRP0[ ]	/* SetRefPoint0 */
PUSHW[ ]	/* 1 value pushed */
13 
MDRP[11100]	/* MoveDirectRelPt */
IUP[0]	/* InterpolateUntPts */
IUP[1]	/* InterpolateUntPts */";
};
width = 1204;
}
);
note = n;
unicode = 110;
},
{
glyphname = eng;
lastChange = "2022-05-04 00:13:31 +0000";
layers = (
{
layerId = m01;
shapes = (
{
closed = 1;
nodes = (
(345,1047,o),
(311,1081,o),
(264,1081,qs),
(263,1081,ls),
(215,1081,o),
(182,1047,o),
(182,1006,qs),
(182,64,ls),
(182,23,o),
(218,-12,o),
(266,-12,qs),
(269,-12,ls),
(317,-12,o),
(354,23,o),
(354,64,qs),
(354,454,ls),
(354,552,o),
(416,724,o),
(515,851,o),
(640,924,o),
(704,924,qs),
(787,924,o),
(866,801,o),
(866,701,qs),
(866,-124,ls),
(866,-223,o),
(813,-306,o),
(755,-306,qs),
(717,-306,o),
(628,-279,o),
(588,-259,qs),
(581,-256,o),
(564,-252,o),
(557,-252,qs),
(537,-252,o),
(508,-274,o),
(489,-306,o),
(478,-339,o),
(478,-352,qs),
(478,-375,o),
(511,-412,o),
(564,-440,o),
(629,-459,o),
(695,-470,o),
(754,-475,o),
(773,-475,qs),
(833,-475,o),
(931,-433,o),
(1000,-353,o),
(1040,-234,o),
(1040,-156,qs),
(1040,718,ls),
(1040,805,o),
(996,945,o),
(914,1042,o),
(798,1095,o),
(726,1095,qs),
(665,1095,o),
(550,1056,o),
(448,983,o),
(359,881,o),
(323,817,q),
(329,817,l),
(345,844,l),
(345,1006,ls)
);
}
);
userData = {
assembly = "PUSHW[ ]	/* 1 value pushed */
0 
CALL[ ]	/* CallFunction */
SVTCA[0]	/* SetFreedomAndProjectionVectorToAxis */
PUSHW[ ]	/* 1 value pushed */
0 
RCVT[ ]	/* ReadCVT */
IF[ ]	/* If */
PUSHW[ ]	/* 1 value pushed */
52 
MDAP[1]	/* MoveDirectAbsPt */
ELSE[ ]	/* Else */
PUSHW[ ]	/* 2 values pushed */
52 21 
MIAP[0]	/* MoveIndirectAbsPt */
EIF[ ]	/* EndIf */
PUSHW[ ]	/* 3 values pushed */
36 18 3 
CALL[ ]	/* CallFunction */
PUSHW[ ]	/* 3 values pushed */
7 43 3 
CALL[ ]	/* CallFunction */
PUSHW[ ]	/* 1 value pushed */
7 
SRP0[ ]	/* SetRefPoint0 */
PUSHW[ ]	/* 1 value pushed */
60 
MDRP[10000]	/* MoveDirectRelPt */
PUSHW[ ]	/* 1 value pushed */
60 
MDAP[1]	/* MoveDirectAbsPt */
SVTCA[1]	/* SetFreedomAndProjectionVectorToAxis */
PUSHW[ ]	/* 1 value pushed */
65 
MDAP[1]	/* MoveDirectAbsPt */
PUSHW[ ]	/* 1 value pushed */
39 
MDAP[1]	/* MoveDirectAbsPt */
PUSHW[ ]	/* 1 value pushed */
65 
SRP0[ ]	/* SetRefPoint0 */
PUSHW[ ]	/* 1 value pushed */
56 
MDRP[10000]	/* MoveDirectRelPt */
PUSHW[ ]	/* 1 value pushed */
56 
MDAP[1]	/* MoveDirectAbsPt */
PUSHW[ ]	/* 1 value pushed */
49 
MDRP[11100]	/* MoveDirectRelPt */
PUSHW[ ]	/* 1 value pushed */
0 
MDRP[10000]	/* MoveDirectRelPt */
PUSHW[ ]	/* 1 value pushed */
0 
MDAP[1]	/* MoveDirectAbsPt */
PUSHW[ ]	/* 3 values pushed */
2 56 49 
SRP1[ ]	/* SetRefPoint1 */
SRP2[ ]	/* SetRefPoint2 */
IP[ ]	/* InterpolatePts */
PUSHW[ ]	/* 1 value pushed */
39 
SRP0[ ]	/* SetRefPoint0 */
PUSHW[ ]	/* 1 value pushed */
13 
MDRP[11100]	/* MoveDirectRelPt */
IUP[0]	/* InterpolateUntPts */
IUP[1]	/* InterpolateUntPts */";
};
width = 1204;
}
);
note = eng;
unicode = 331;
},
{
glyphname = o;
lastChange = "2022-05-04 00:13:31 +0000";
layers = (
{
layerId = m01;
shapes = (
{
closed = 1;
nodes = (
(188,207,o),
(318,58,o),
(498,-25,o),
(602,-25,qs),
(706,-25,o),
(886,58,o),
(1015,207,o),
(1090,412,o),
(1090,535,qs),
(1090,658,o),
(1015,863,o),
(886,1012,o),
(706,1095,o),
(602,1095,qs),
(498,1095,o),
(318,1012,o),
(188,863,o),
(113,658,o),
(113,535,qs),
(113,412,o)
);
},
{
closed = 1;
nodes = (
(868,307,o),
(787,204,o),
(673,146,o),
(602,146,qs),
(533,146,o),
(417,204,o),
(336,307,o),
(291,449,o),
(291,535,qs),
(291,621,o),
(336,763,o),
(417,866,o),
(533,924,o),
(602,924,qs),
(673,924,o),
(787,866,o),
(868,763,o),
(912,621,o),
(912,535,qs),
(912,449,o)
);
}
);
userData = {
assembly = "PUSHW[ ]	/* 1 value pushed */
0 
CALL[ ]	/* CallFunction */
SVTCA[0]	/* SetFreedomAndProjectionVectorToAxis */
PUSHW[ ]	/* 1 value pushed */
0 
RCVT[ ]	/* ReadCVT */
IF[ ]	/* If */
PUSHW[ ]	/* 1 value pushed */
15 
MDAP[1]	/* MoveDirectAbsPt */
ELSE[ ]	/* Else */
PUSHW[ ]	/* 2 values pushed */
15 21 
MIAP[0]	/* MoveIndirectAbsPt */
EIF[ ]	/* EndIf */
PUSHW[ ]	/* 3 values pushed */
5 25 3 
CALL[ ]	/* CallFunction */
PUSHW[ ]	/* 1 value pushed */
15 
SRP0[ ]	/* SetRefPoint0 */
PUSHW[ ]	/* 1 value pushed */
35 
MDRP[11100]	/* MoveDirectRelPt */
NPUSHW[ ]	/* 27 values pushed */
7 35 23 35 39 35 55 35 71 35 87 35 103 35 119 35 135 35 151 35 167 35 183 35 199 35 13 
DELTAP1[ ]	/* DeltaExceptionP1 */
NPUSHW[ ]	/* 5 values pushed */
214 35 230 35 2 
DELTAP1[ ]	/* DeltaExceptionP1 */
SVTCA[1]	/* SetFreedomAndProjectionVectorToAxis */
PUSHW[ ]	/* 1 value pushed */
40 
MDAP[1]	/* MoveDirectAbsPt */
PUSHW[ ]	/* 1 value pushed */
20 
MDAP[1]	/* MoveDirectAbsPt */
PUSHW[ ]	/* 1 value pushed */
40 
SRP0[ ]	/* SetRefPoint0 */
PUSHW[ ]	/* 1 value pushed */
0 
MDRP[10000]	/* MoveDirectRelPt */
PUSHW[ ]	/* 1 value pushed */
0 
MDAP[1]	/* MoveDirectAbsPt */
NPUSHW[ ]	/* 5 values pushed */
218 20 234 20 2 
DELTAP1[ ]	/* DeltaExceptionP1 */
NPUSHW[ ]	/* 27 values pushed */
9 20 25 20 41 20 57 20 73 20 89 20 105 20 121 20 137 20 153 20 169 20 185 20 201 20 13 
DELTAP1[ ]	/* DeltaExceptionP1 */
PUSHW[ ]	/* 1 value pushed */
20 
SRP0[ ]	/* SetRefPoint0 */
PUSHW[ ]	/* 1 value pushed */
10 
MDRP[11100]	/* MoveDirectRelPt */
PUSHW[ ]	/* 1 value pushed */
0 
SRP0[ ]	/* SetRefPoint0 */
PUSHW[ ]	/* 1 value pushed */
30 
MDRP[11100]	/* MoveDirectRelPt */
NPUSHW[ ]	/* 27 values pushed */
6 30 22 30 38 30 54 30 70 30 86 30 102 30 118 30 134 30 150 30 166 30 182 30 198 30 13 
DELTAP1[ ]	/* DeltaExceptionP1 */
NPUSHW[ ]	/* 5 values pushed */
213 30 229 30 2 
DELTAP1[ ]	/* DeltaExceptionP1 */
IUP[0]	/* InterpolateUntPts */
IUP[1]	/* InterpolateUntPts */";
};
width = 1204;
}
);
note = o;
unicode = 111;
},
{
glyphname = oslash;
lastChange = "2022-05-04 00:13:31 +0000";
layers = (
{
layerId = m01;
shapes = (
{
closed = 1;
nodes = (
(838,1042,o),
(691,1095,o),
(608,1095,qs),
(504,1095,o),
(324,1012,o),
(193,863,o),
(119,658,o),
(119,535,qs),
(119,441,o),
(163,276,o),
(204,208,q),
(93,82,ls),
(65,49,o),
(65,30,qs),
(65,15,o),
(82,-16,o),
(109,-43,o),
(140,-60,o),
(153,-60,qs),
(184,-60,o),
(205,-34,qs),
(232,-3,o),
(283,53,o),
(309,83,q),
(371,31,o),
(521,-25,o),
(608,-25,qs),
(712,-25,o),
(892,58,o),
(1021,207,o),
(1095,412,o),
(1095,535,qs),
(1095,632,o),
(1049,800,o),
(1006,870,q),
(1033,899,o),
(1084,956,o),
(1110,987,qs),
(1138,1019,o),
(1139,1040,q),
(1138,1055,o),
(1121,1087,o),
(1094,1113,o),
(1064,1130,o),
(1050,1130,qs),
(1020,1130,o),
(997,1103,qs),
(899,993,l)
);
},
{
closed = 1;
nodes = (
(296,433,o),
(296,535,qs),
(296,621,o),
(342,763,o),
(423,866,o),
(538,924,o),
(608,924,qs),
(660,924,o),
(748,893,o),
(785,864,q),
(329,349,l)
);
},
{
closed = 1;
nodes = (
(874,307,o),
(793,204,o),
(679,146,o),
(608,146,qs),
(553,146,o),
(461,181,o),
(424,212,q),
(882,729,l),
(918,644,o),
(918,535,qs),
(918,449,o)
);
}
);
userData = {
assembly = "PUSHW[ ]	/* 1 value pushed */
0 
CALL[ ]	/* CallFunction */
SVTCA[0]	/* SetFreedomAndProjectionVectorToAxis */
PUSHW[ ]	/* 1 value pushed */
0 
MDAP[1]	/* MoveDirectAbsPt */
PUSHW[ ]	/* 1 value pushed */
44 
MDAP[1]	/* MoveDirectAbsPt */
PUSHW[ ]	/* 1 value pushed */
0 
RCVT[ ]	/* ReadCVT */
IF[ ]	/* If */
PUSHW[ ]	/* 1 value pushed */
20 
MDAP[1]	/* MoveDirectAbsPt */
ELSE[ ]	/* Else */
PUSHW[ ]	/* 2 values pushed */
20 21 
MIAP[0]	/* MoveIndirectAbsPt */
EIF[ ]	/* EndIf */
PUSHW[ ]	/* 1 value pushed */
0 
RCVT[ ]	/* ReadCVT */
IF[ ]	/* If */
PUSHW[ ]	/* 1 value pushed */
26 
MDAP[1]	/* MoveDirectAbsPt */
ELSE[ ]	/* Else */
PUSHW[ ]	/* 2 values pushed */
26 21 
MIAP[0]	/* MoveIndirectAbsPt */
EIF[ ]	/* EndIf */
PUSHW[ ]	/* 1 value pushed */
44 
SRP0[ ]	/* SetRefPoint0 */
PUSHW[ ]	/* 1 value pushed */
51 
MDRP[11100]	/* MoveDirectRelPt */
PUSHW[ ]	/* 3 values pushed */
58 26 0 
SRP1[ ]	/* SetRefPoint1 */
SRP2[ ]	/* SetRefPoint2 */
IP[ ]	/* InterpolatePts */
PUSHW[ ]	/* 3 values pushed */
61 26 0 
SRP1[ ]	/* SetRefPoint1 */
SRP2[ ]	/* SetRefPoint2 */
IP[ ]	/* InterpolatePts */
PUSHW[ ]	/* 1 value pushed */
20 
SRP0[ ]	/* SetRefPoint0 */
PUSHW[ ]	/* 1 value pushed */
65 
MDRP[11100]	/* MoveDirectRelPt */
NPUSHW[ ]	/* 27 values pushed */
7 65 23 65 39 65 55 65 71 65 87 65 103 65 119 65 135 65 151 65 167 65 183 65 199 65 13 
DELTAP1[ ]	/* DeltaExceptionP1 */
NPUSHW[ ]	/* 5 values pushed */
214 65 230 65 2 
DELTAP1[ ]	/* DeltaExceptionP1 */
SVTCA[1]	/* SetFreedomAndProjectionVectorToAxis */
PUSHW[ ]	/* 1 value pushed */
70 
MDAP[1]	/* MoveDirectAbsPt */
PUSHW[ ]	/* 1 value pushed */
59 
MDAP[1]	/* MoveDirectAbsPt */
NPUSHW[ ]	/* 5 values pushed */
218 59 234 59 2 
DELTAP1[ ]	/* DeltaExceptionP1 */
NPUSHW[ ]	/* 27 values pushed */
9 59 25 59 41 59 57 59 73 59 89 59 105 59 121 59 137 59 153 59 169 59 185 59 201 59 13 
DELTAP1[ ]	/* DeltaExceptionP1 */
PUSHW[ ]	/* 1 value pushed */
15 
MDRP[11100]	/* MoveDirectRelPt */
PUSHW[ ]	/* 1 value pushed */
9 
MDRP[10000]	/* MoveDirectRelPt */
PUSHW[ ]	/* 1 value pushed */
9 
MDAP[1]	/* MoveDirectAbsPt */
PUSHW[ ]	/* 1 value pushed */
70 
SRP0[ ]	/* SetRefPoint0 */
PUSHW[ ]	/* 1 value pushed */
39 
MDRP[10000]	/* MoveDirectRelPt */
PUSHW[ ]	/* 1 value pushed */
39 
MDAP[1]	/* MoveDirectAbsPt */
PUSHW[ ]	/* 1 value pushed */
56 
MDRP[11100]	/* MoveDirectRelPt */
NPUSHW[ ]	/* 27 values pushed */
6 56 22 56 38 56 54 56 70 56 86 56 102 56 118 56 134 56 150 56 166 56 182 56 198 56 13 
DELTAP1[ ]	/* DeltaExceptionP1 */
NPUSHW[ ]	/* 5 values pushed */
213 56 229 56 2 
DELTAP1[ ]	/* DeltaExceptionP1 */
PUSHW[ ]	/* 1 value pushed */
23 
MDRP[10000]	/* MoveDirectRelPt */
PUSHW[ ]	/* 1 value pushed */
23 
MDAP[1]	/* MoveDirectAbsPt */
PUSHW[ ]	/* 3 values pushed */
58 39 9 
SRP1[ ]	/* SetRefPoint1 */
SRP2[ ]	/* SetRefPoint2 */
IP[ ]	/* InterpolatePts */
PUSHW[ ]	/* 3 values pushed */
61 39 9 
SRP1[ ]	/* SetRefPoint1 */
SRP2[ ]	/* SetRefPoint2 */
IP[ ]	/* InterpolatePts */
IUP[0]	/* InterpolateUntPts */
IUP[1]	/* InterpolateUntPts */";
};
width = 1204;
}
);
note = oslash;
unicode = 248;
},
{
glyphname = oe;
lastChange = "2022-05-04 00:13:31 +0000";
layers = (
{
layerId = m01;
shapes = (
{
closed = 1;
nodes = (
(567,1020,o),
(454,1095,o),
(373,1095,qs),
(293,1095,o),
(173,1020,o),
(91,877,o),
(51,668,o),
(51,535,qs),
(51,402,o),
(91,193,o),
(173,50,o),
(294,-25,o),
(375,-25,qs),
(529,-25,o),
(601,115,q),
(641,42,o),
(760,-25,o),
(836,-25,qs),
(914,-25,o),
(1053,38,o),
(1102,97,qs),
(1116,113,o),
(1134,145,o),
(1134,161,qs),
(1134,177,o),
(1119,210,o),
(1093,235,o),
(1061,252,o),
(1043,252,qs),
(1014,252,o),
(998,233,qs),
(958,185,o),
(882,142,o),
(843,142,qs),
(811,142,o),
(755,176,o),
(714,261,o),
(690,402,o),
(688,509,q),
(676,509,l),
(1071,509,ls),
(1109,509,o),
(1145,541,o),
(1145,578,qs),
(1145,581,ls),
(1143,697,o),
(1108,887,o),
(1035,1021,o),
(921,1095,o),
(838,1095,qs),
(756,1095,o),
(631,1014,o),
(591,933,q),
(596,933,l),
(604,947,l)
);
},
{
closed = 1;
nodes = (
(445,146,o),
(373,146,qs),
(301,146,o),
(232,331,o),
(232,535,qs),
(232,739,o),
(301,924,o),
(373,924,qs),
(445,924,o),
(512,739,o),
(512,535,qs),
(512,331,o)
);
},
{
closed = 1;
nodes = (
(694,672,l),
(705,804,o),
(778,927,o),
(837,927,qs),
(870,927,o),
(915,892,o),
(945,826,o),
(962,731,o),
(966,672,q),
(978,672,l)
);
}
);
userData = {
assembly = "PUSHW[ ]	/* 1 value pushed */
0 
CALL[ ]	/* CallFunction */
SVTCA[0]	/* SetFreedomAndProjectionVectorToAxis */
PUSHW[ ]	/* 1 value pushed */
0 
RCVT[ ]	/* ReadCVT */
IF[ ]	/* If */
PUSHW[ ]	/* 1 value pushed */
36 
MDAP[1]	/* MoveDirectAbsPt */
ELSE[ ]	/* Else */
PUSHW[ ]	/* 2 values pushed */
36 21 
MIAP[0]	/* MoveIndirectAbsPt */
EIF[ ]	/* EndIf */
PUSHW[ ]	/* 1 value pushed */
0 
RCVT[ ]	/* ReadCVT */
IF[ ]	/* If */
PUSHW[ ]	/* 1 value pushed */
41 
MDAP[1]	/* MoveDirectAbsPt */
ELSE[ ]	/* Else */
PUSHW[ ]	/* 2 values pushed */
41 21 
MIAP[0]	/* MoveIndirectAbsPt */
EIF[ ]	/* EndIf */
PUSHW[ ]	/* 3 values pushed */
51 58 3 
CALL[ ]	/* CallFunction */
PUSHW[ ]	/* 3 values pushed */
76 13 3 
CALL[ ]	/* CallFunction */
PUSHW[ ]	/* 1 value pushed */
58 
SRP0[ ]	/* SetRefPoint0 */
PUSHW[ ]	/* 1 value pushed */
0 
MDRP[10000]	/* MoveDirectRelPt */
PUSHW[ ]	/* 1 value pushed */
0 
MDAP[1]	/* MoveDirectAbsPt */
PUSHW[ ]	/* 3 values pushed */
1 58 51 
SRP1[ ]	/* SetRefPoint1 */
SRP2[ ]	/* SetRefPoint2 */
IP[ ]	/* InterpolatePts */
PUSHW[ ]	/* 1 value pushed */
51 
SRP0[ ]	/* SetRefPoint0 */
PUSHW[ ]	/* 1 value pushed */
4 
MDRP[10000]	/* MoveDirectRelPt */
PUSHW[ ]	/* 1 value pushed */
13 
SRP0[ ]	/* SetRefPoint0 */
PUSHW[ ]	/* 1 value pushed */
15 
MDRP[10000]	/* MoveDirectRelPt */
PUSHW[ ]	/* 1 value pushed */
36 
SRP0[ ]	/* SetRefPoint0 */
PUSHW[ ]	/* 1 value pushed */
20 
MDRP[11100]	/* MoveDirectRelPt */
NPUSHW[ ]	/* 27 values pushed */
7 20 23 20 39 20 55 20 71 20 87 20 103 20 119 20 135 20 151 20 167 20 183 20 199 20 13 
DELTAP1[ ]	/* DeltaExceptionP1 */
NPUSHW[ ]	/* 5 values pushed */
214 20 230 20 2 
DELTAP1[ ]	/* DeltaExceptionP1 */
PUSHW[ ]	/* 3 values pushed */
39 36 20 
SRP1[ ]	/* SetRefPoint1 */
SRP2[ ]	/* SetRefPoint2 */
IP[ ]	/* InterpolatePts */
PUSHW[ ]	/* 1 value pushed */
64 
MDRP[10000]	/* MoveDirectRelPt */
PUSHW[ ]	/* 1 value pushed */
58 
SRP0[ ]	/* SetRefPoint0 */
PUSHW[ ]	/* 1 value pushed */
72 
MDRP[10000]	/* MoveDirectRelPt */
PUSHW[ ]	/* 1 value pushed */
72 
MDAP[1]	/* MoveDirectAbsPt */
SVTCA[1]	/* SetFreedomAndProjectionVectorToAxis */
PUSHW[ ]	/* 3 values pushed */
61 46 3 
CALL[ ]	/* CallFunction */
NPUSHW[ ]	/* 27 values pushed */
6 61 22 61 38 61 54 61 70 61 86 61 102 61 118 61 134 61 150 61 166 61 182 61 198 61 13 
DELTAP1[ ]	/* DeltaExceptionP1 */
NPUSHW[ ]	/* 5 values pushed */
213 61 229 61 2 
DELTAP1[ ]	/* DeltaExceptionP1 */
IUP[0]	/* InterpolateUntPts */
IUP[1]	/* InterpolateUntPts */";
};
width = 1204;
}
);
note = oe;
unicode = 339;
},
{
glyphname = p;
lastChange = "2022-05-04 00:13:31 +0000";
layers = (
{
layerId = m01;
shapes = (
{
closed = 1;
nodes = (
(335,1047,o),
(301,1081,o),
(255,1081,qs),
(252,1081,ls),
(206,1081,o),
(173,1047,o),
(173,1006,qs),
(173,-386,ls),
(173,-426,o),
(208,-461,o),
(257,-461,qs),
(259,-461,ls),
(308,-461,o),
(345,-426,o),
(345,-386,qs),
(345,137,l),
(402,60,o),
(551,-25,o),
(651,-25,qs),
(743,-25,o),
(901,51,o),
(1018,196,o),
(1084,404,o),
(1084,535,qs),
(1084,666,o),
(1018,874,o),
(901,1019,o),
(743,1095,o),
(651,1095,qs),
(542,1095,o),
(375,992,o),
(313,899,q),
(320,899,l),
(335,921,l),
(335,1006,ls)
);
},
{
closed = 1;
nodes = (
(871,307,o),
(802,204,o),
(701,146,o),
(635,146,qs),
(572,146,o),
(465,198,o),
(389,299,o),
(345,443,o),
(345,535,qs),
(345,628,o),
(389,771,o),
(465,872,o),
(572,924,o),
(635,924,qs),
(701,924,o),
(802,866,o),
(871,763,o),
(907,621,o),
(907,535,qs),
(907,450,o)
);
}
);
userData = {
assembly = "PUSHW[ ]	/* 1 value pushed */
0 
CALL[ ]	/* CallFunction */
SVTCA[0]	/* SetFreedomAndProjectionVectorToAxis */
PUSHW[ ]	/* 1 value pushed */
0 
RCVT[ ]	/* ReadCVT */
IF[ ]	/* If */
PUSHW[ ]	/* 1 value pushed */
15 
MDAP[1]	/* MoveDirectAbsPt */
ELSE[ ]	/* Else */
PUSHW[ ]	/* 2 values pushed */
15 21 
MIAP[0]	/* MoveIndirectAbsPt */
EIF[ ]	/* EndIf */
PUSHW[ ]	/* 3 values pushed */
5 40 3 
CALL[ ]	/* CallFunction */
PUSHW[ ]	/* 1 value pushed */
15 
SRP0[ ]	/* SetRefPoint0 */
PUSHW[ ]	/* 1 value pushed */
50 
MDRP[11100]	/* MoveDirectRelPt */
NPUSHW[ ]	/* 27 values pushed */
7 50 23 50 39 50 55 50 71 50 87 50 103 50 119 50 135 50 151 50 167 50 183 50 199 50 13 
DELTAP1[ ]	/* DeltaExceptionP1 */
NPUSHW[ ]	/* 5 values pushed */
214 50 230 50 2 
DELTAP1[ ]	/* DeltaExceptionP1 */
PUSHW[ ]	/* 3 values pushed */
18 15 50 
SRP1[ ]	/* SetRefPoint1 */
SRP2[ ]	/* SetRefPoint2 */
IP[ ]	/* InterpolatePts */
PUSHW[ ]	/* 1 value pushed */
5 
SRP0[ ]	/* SetRefPoint0 */
PUSHW[ ]	/* 1 value pushed */
30 
MDRP[10000]	/* MoveDirectRelPt */
PUSHW[ ]	/* 1 value pushed */
30 
MDAP[1]	/* MoveDirectAbsPt */
SVTCA[1]	/* SetFreedomAndProjectionVectorToAxis */
PUSHW[ ]	/* 1 value pushed */
55 
MDAP[1]	/* MoveDirectAbsPt */
PUSHW[ ]	/* 1 value pushed */
35 
MDAP[1]	/* MoveDirectAbsPt */
PUSHW[ ]	/* 1 value pushed */
55 
SRP0[ ]	/* SetRefPoint0 */
PUSHW[ ]	/* 1 value pushed */
26 
MDRP[10000]	/* MoveDirectRelPt */
PUSHW[ ]	/* 1 value pushed */
26 
MDAP[1]	/* MoveDirectAbsPt */
PUSHW[ ]	/* 1 value pushed */
19 
MDRP[11100]	/* MoveDirectRelPt */
PUSHW[ ]	/* 1 value pushed */
0 
MDRP[10000]	/* MoveDirectRelPt */
PUSHW[ ]	/* 1 value pushed */
0 
MDAP[1]	/* MoveDirectAbsPt */
PUSHW[ ]	/* 3 values pushed */
2 26 19 
SRP1[ ]	/* SetRefPoint1 */
SRP2[ ]	/* SetRefPoint2 */
IP[ ]	/* InterpolatePts */
NPUSHW[ ]	/* 5 values pushed */
218 35 234 35 2 
DELTAP1[ ]	/* DeltaExceptionP1 */
NPUSHW[ ]	/* 27 values pushed */
9 35 25 35 41 35 57 35 73 35 89 35 105 35 121 35 137 35 153 35 169 35 185 35 201 35 13 
DELTAP1[ ]	/* DeltaExceptionP1 */
PUSHW[ ]	/* 1 value pushed */
35 
SRP0[ ]	/* SetRefPoint0 */
PUSHW[ ]	/* 1 value pushed */
10 
MDRP[11100]	/* MoveDirectRelPt */
PUSHW[ ]	/* 1 value pushed */
19 
SRP0[ ]	/* SetRefPoint0 */
PUSHW[ ]	/* 1 value pushed */
45 
MDRP[10000]	/* MoveDirectRelPt */
IUP[0]	/* InterpolateUntPts */
IUP[1]	/* InterpolateUntPts */";
};
width = 1204;
}
);
note = p;
unicode = 112;
},
{
glyphname = thorn;
lastChange = "2022-05-04 00:13:31 +0000";
layers = (
{
layerId = m01;
shapes = (
{
closed = 1;
nodes = (
(208,1531,o),
(173,1496,o),
(173,1455,qs),
(173,-386,ls),
(173,-426,o),
(208,-461,o),
(257,-461,qs),
(259,-461,ls),
(308,-461,o),
(345,-426,o),
(345,-386,qs),
(345,137,l),
(402,60,o),
(551,-25,o),
(651,-25,qs),
(743,-25,o),
(901,51,o),
(1018,196,o),
(1084,404,o),
(1084,535,qs),
(1084,666,o),
(1018,874,o),
(901,1019,o),
(743,1095,o),
(651,1095,qs),
(555,1095,o),
(403,1014,o),
(345,939,q),
(345,1455,ls),
(345,1496,o),
(308,1531,o),
(259,1531,qs),
(257,1531,ls)
);
},
{
closed = 1;
nodes = (
(871,307,o),
(802,204,o),
(701,146,o),
(635,146,qs),
(572,146,o),
(465,198,o),
(389,299,o),
(345,443,o),
(345,535,qs),
(345,628,o),
(389,771,o),
(465,872,o),
(572,924,o),
(635,924,qs),
(701,924,o),
(802,866,o),
(871,763,o),
(907,621,o),
(907,535,qs),
(907,450,o)
);
}
);
userData = {
assembly = "PUSHW[ ]	/* 1 value pushed */
0 
CALL[ ]	/* CallFunction */
SVTCA[0]	/* SetFreedomAndProjectionVectorToAxis */
PUSHW[ ]	/* 1 value pushed */
0 
RCVT[ ]	/* ReadCVT */
IF[ ]	/* If */
PUSHW[ ]	/* 1 value pushed */
17 
MDAP[1]	/* MoveDirectAbsPt */
ELSE[ ]	/* Else */
PUSHW[ ]	/* 2 values pushed */
17 21 
MIAP[0]	/* MoveIndirectAbsPt */
EIF[ ]	/* EndIf */
PUSHW[ ]	/* 3 values pushed */
7 38 3 
CALL[ ]	/* CallFunction */
PUSHW[ ]	/* 3 values pushed */
4 38 7 
SRP1[ ]	/* SetRefPoint1 */
SRP2[ ]	/* SetRefPoint2 */
IP[ ]	/* InterpolatePts */
PUSHW[ ]	/* 1 value pushed */
17 
SRP0[ ]	/* SetRefPoint0 */
PUSHW[ ]	/* 1 value pushed */
48 
MDRP[11100]	/* MoveDirectRelPt */
NPUSHW[ ]	/* 27 values pushed */
7 48 23 48 39 48 55 48 71 48 87 48 103 48 119 48 135 48 151 48 167 48 183 48 199 48 13 
DELTAP1[ ]	/* DeltaExceptionP1 */
NPUSHW[ ]	/* 5 values pushed */
214 48 230 48 2 
DELTAP1[ ]	/* DeltaExceptionP1 */
PUSHW[ ]	/* 3 values pushed */
20 17 48 
SRP1[ ]	/* SetRefPoint1 */
SRP2[ ]	/* SetRefPoint2 */
IP[ ]	/* InterpolatePts */
SVTCA[1]	/* SetFreedomAndProjectionVectorToAxis */
PUSHW[ ]	/* 1 value pushed */
53 
MDAP[1]	/* MoveDirectAbsPt */
PUSHW[ ]	/* 1 value pushed */
33 
MDAP[1]	/* MoveDirectAbsPt */
PUSHW[ ]	/* 1 value pushed */
53 
SRP0[ ]	/* SetRefPoint0 */
PUSHW[ ]	/* 1 value pushed */
28 
MDRP[10000]	/* MoveDirectRelPt */
PUSHW[ ]	/* 1 value pushed */
28 
MDAP[1]	/* MoveDirectAbsPt */
PUSHW[ ]	/* 1 value pushed */
21 
MDRP[11100]	/* MoveDirectRelPt */
PUSHW[ ]	/* 1 value pushed */
3 
MDRP[10000]	/* MoveDirectRelPt */
NPUSHW[ ]	/* 5 values pushed */
218 33 234 33 2 
DELTAP1[ ]	/* DeltaExceptionP1 */
NPUSHW[ ]	/* 27 values pushed */
9 33 25 33 41 33 57 33 73 33 89 33 105 33 121 33 137 33 153 33 169 33 185 33 201 33 13 
DELTAP1[ ]	/* DeltaExceptionP1 */
PUSHW[ ]	/* 1 value pushed */
33 
SRP0[ ]	/* SetRefPoint0 */
PUSHW[ ]	/* 1 value pushed */
12 
MDRP[11100]	/* MoveDirectRelPt */
PUSHW[ ]	/* 3 values pushed */
4 28 12 
SRP1[ ]	/* SetRefPoint1 */
SRP2[ ]	/* SetRefPoint2 */
IP[ ]	/* InterpolatePts */
PUSHW[ ]	/* 1 value pushed */
21 
SRP0[ ]	/* SetRefPoint0 */
PUSHW[ ]	/* 1 value pushed */
43 
MDRP[10000]	/* MoveDirectRelPt */
IUP[0]	/* InterpolateUntPts */
IUP[1]	/* InterpolateUntPts */";
};
width = 1204;
}
);
note = thorn;
unicode = 254;
},
{
glyphname = q;
lastChange = "2022-05-04 00:13:31 +0000";
layers = (
{
layerId = m01;
shapes = (
{
closed = 1;
nodes = (
(186,196,o),
(302,51,o),
(461,-25,o),
(552,-25,qs),
(652,-25,o),
(801,60,o),
(858,137,q),
(858,-386,ls),
(858,-426,o),
(895,-461,o),
(945,-461,qs),
(946,-461,ls),
(995,-461,o),
(1033,-426,o),
(1033,-386,qs),
(1033,1006,ls),
(1033,1047,o),
(997,1081,o),
(951,1081,qs),
(949,1081,ls),
(902,1081,o),
(868,1047,o),
(868,1006,qs),
(868,929,l),
(809,1009,o),
(653,1095,o),
(553,1095,qs),
(462,1095,o),
(302,1019,o),
(186,874,o),
(119,666,o),
(119,535,qs),
(119,404,o)
);
},
{
closed = 1;
nodes = (
(814,299,o),
(738,198,o),
(632,146,o),
(570,146,qs),
(504,146,o),
(402,204,o),
(332,307,o),
(296,450,o),
(296,535,qs),
(296,621,o),
(332,763,o),
(402,866,o),
(504,924,o),
(570,924,qs),
(632,924,o),
(738,872,o),
(814,771,o),
(858,628,o),
(858,535,qs),
(858,443,o)
);
}
);
userData = {
assembly = "PUSHW[ ]	/* 1 value pushed */
0 
CALL[ ]	/* CallFunction */
SVTCA[0]	/* SetFreedomAndProjectionVectorToAxis */
PUSHW[ ]	/* 1 value pushed */
0 
RCVT[ ]	/* ReadCVT */
IF[ ]	/* If */
PUSHW[ ]	/* 1 value pushed */
28 
MDAP[1]	/* MoveDirectAbsPt */
ELSE[ ]	/* Else */
PUSHW[ ]	/* 2 values pushed */
28 21 
MIAP[0]	/* MoveIndirectAbsPt */
EIF[ ]	/* EndIf */
PUSHW[ ]	/* 3 values pushed */
5 38 3 
CALL[ ]	/* CallFunction */
PUSHW[ ]	/* 3 values pushed */
8 38 5 
SRP1[ ]	/* SetRefPoint1 */
SRP2[ ]	/* SetRefPoint2 */
IP[ ]	/* InterpolatePts */
PUSHW[ ]	/* 1 value pushed */
5 
SRP0[ ]	/* SetRefPoint0 */
PUSHW[ ]	/* 1 value pushed */
12 
MDRP[10000]	/* MoveDirectRelPt */
PUSHW[ ]	/* 1 value pushed */
12 
MDAP[1]	/* MoveDirectAbsPt */
PUSHW[ ]	/* 1 value pushed */
28 
SRP0[ ]	/* SetRefPoint0 */
PUSHW[ ]	/* 1 value pushed */
48 
MDRP[11100]	/* MoveDirectRelPt */
NPUSHW[ ]	/* 27 values pushed */
7 48 23 48 39 48 55 48 71 48 87 48 103 48 119 48 135 48 151 48 167 48 183 48 199 48 13 
DELTAP1[ ]	/* DeltaExceptionP1 */
NPUSHW[ ]	/* 5 values pushed */
214 48 230 48 2 
DELTAP1[ ]	/* DeltaExceptionP1 */
PUSHW[ ]	/* 3 values pushed */
25 28 48 
SRP1[ ]	/* SetRefPoint1 */
SRP2[ ]	/* SetRefPoint2 */
IP[ ]	/* InterpolatePts */
SVTCA[1]	/* SetFreedomAndProjectionVectorToAxis */
PUSHW[ ]	/* 1 value pushed */
53 
MDAP[1]	/* MoveDirectAbsPt */
PUSHW[ ]	/* 1 value pushed */
24 
MDAP[1]	/* MoveDirectAbsPt */
PUSHW[ ]	/* 1 value pushed */
53 
SRP0[ ]	/* SetRefPoint0 */
PUSHW[ ]	/* 1 value pushed */
0 
MDRP[10000]	/* MoveDirectRelPt */
PUSHW[ ]	/* 1 value pushed */
0 
MDAP[1]	/* MoveDirectAbsPt */
PUSHW[ ]	/* 1 value pushed */
24 
SRP0[ ]	/* SetRefPoint0 */
PUSHW[ ]	/* 1 value pushed */
8 
MDRP[10000]	/* MoveDirectRelPt */
PUSHW[ ]	/* 1 value pushed */
8 
MDAP[1]	/* MoveDirectAbsPt */
PUSHW[ ]	/* 1 value pushed */
24 
SRP0[ ]	/* SetRefPoint0 */
PUSHW[ ]	/* 1 value pushed */
17 
MDRP[11100]	/* MoveDirectRelPt */
PUSHW[ ]	/* 1 value pushed */
24 
SRP0[ ]	/* SetRefPoint0 */
PUSHW[ ]	/* 1 value pushed */
33 
MDRP[10000]	/* MoveDirectRelPt */
PUSHW[ ]	/* 1 value pushed */
0 
SRP0[ ]	/* SetRefPoint0 */
PUSHW[ ]	/* 1 value pushed */
43 
MDRP[11100]	/* MoveDirectRelPt */
NPUSHW[ ]	/* 27 values pushed */
6 43 22 43 38 43 54 43 70 43 86 43 102 43 118 43 134 43 150 43 166 43 182 43 198 43 13 
DELTAP1[ ]	/* DeltaExceptionP1 */
NPUSHW[ ]	/* 5 values pushed */
213 43 229 43 2 
DELTAP1[ ]	/* DeltaExceptionP1 */
IUP[0]	/* InterpolateUntPts */
IUP[1]	/* InterpolateUntPts */";
};
width = 1204;
}
);
note = q;
unicode = 113;
},
{
glyphname = r;
lastChange = "2022-05-04 00:13:31 +0000";
layers = (
{
layerId = m01;
shapes = (
{
closed = 1;
nodes = (
(449,1047,o),
(415,1081,o),
(368,1081,qs),
(366,1081,ls),
(320,1081,o),
(285,1047,o),
(285,1006,qs),
(285,64,ls),
(285,23,o),
(322,-12,o),
(372,-12,qs),
(373,-12,ls),
(421,-12,o),
(460,23,o),
(460,64,qs),
(460,313,ls),
(460,437,o),
(528,653,o),
(644,816,o),
(797,910,o),
(880,910,qs),
(931,910,o),
(988,889,q),
(987,889,l),
(995,885,o),
(1011,885,qs),
(1039,885,o),
(1068,924,o),
(1076,961,qs),
(1077,968,ls),
(1079,978,o),
(1080,991,o),
(1080,997,qs),
(1080,1029,o),
(1036,1069,o),
(976,1090,o),
(912,1095,o),
(892,1095,qs),
(822,1095,o),
(691,1046,o),
(573,952,o),
(469,819,o),
(426,734,q),
(433,734,l),
(449,764,l),
(449,1006,ls)
);
}
);
userData = {
assembly = "PUSHW[ ]	/* 1 value pushed */
0 
CALL[ ]	/* CallFunction */
SVTCA[0]	/* SetFreedomAndProjectionVectorToAxis */
PUSHW[ ]	/* 1 value pushed */
0 
RCVT[ ]	/* ReadCVT */
IF[ ]	/* If */
PUSHW[ ]	/* 1 value pushed */
33 
MDAP[1]	/* MoveDirectAbsPt */
ELSE[ ]	/* Else */
PUSHW[ ]	/* 2 values pushed */
33 21 
MIAP[0]	/* MoveIndirectAbsPt */
EIF[ ]	/* EndIf */
PUSHW[ ]	/* 3 values pushed */
7 24 3 
CALL[ ]	/* CallFunction */
PUSHW[ ]	/* 1 value pushed */
7 
SRP0[ ]	/* SetRefPoint0 */
PUSHW[ ]	/* 1 value pushed */
41 
MDRP[10000]	/* MoveDirectRelPt */
PUSHW[ ]	/* 1 value pushed */
41 
MDAP[1]	/* MoveDirectAbsPt */
SVTCA[1]	/* SetFreedomAndProjectionVectorToAxis */
PUSHW[ ]	/* 3 values pushed */
30 37 3 
CALL[ ]	/* CallFunction */
PUSHW[ ]	/* 1 value pushed */
30 
SRP0[ ]	/* SetRefPoint0 */
PUSHW[ ]	/* 1 value pushed */
0 
MDRP[10000]	/* MoveDirectRelPt */
PUSHW[ ]	/* 1 value pushed */
0 
MDAP[1]	/* MoveDirectAbsPt */
PUSHW[ ]	/* 3 values pushed */
2 37 30 
SRP1[ ]	/* SetRefPoint1 */
SRP2[ ]	/* SetRefPoint2 */
IP[ ]	/* InterpolatePts */
IUP[0]	/* InterpolateUntPts */
IUP[1]	/* InterpolateUntPts */";
};
width = 1204;
}
);
note = r;
unicode = 114;
},
{
glyphname = s;
lastChange = "2022-05-04 00:13:31 +0000";
layers = (
{
layerId = m01;
shapes = (
{
closed = 1;
nodes = (
(1005,482,o),
(940,549,o),
(853,592,o),
(755,617,o),
(651,631,o),
(600,636,qs),
(535,643,o),
(445,658,o),
(415,669,qs),
(383,682,o),
(347,724,o),
(347,768,qs),
(347,846,o),
(461,927,o),
(564,927,qs),
(644,927,o),
(812,879,o),
(890,831,qs),
(899,827,o),
(917,821,o),
(926,821,qs),
(943,821,o),
(970,842,o),
(991,874,o),
(1003,911,o),
(1003,926,qs),
(1003,949,o),
(978,981,o),
(955,995,qs),
(915,1020,o),
(817,1057,o),
(716,1083,o),
(611,1095,o),
(564,1095,qs),
(477,1095,o),
(332,1054,o),
(228,971,o),
(170,849,o),
(170,768,qs),
(170,702,o),
(208,608,o),
(273,543,o),
(359,504,o),
(455,479,o),
(556,467,o),
(602,461,qs),
(658,455,o),
(755,441,o),
(795,425,qs),
(828,412,o),
(866,364,o),
(866,317,qs),
(866,241,o),
(749,142,o),
(625,142,qs),
(535,142,o),
(353,198,o),
(272,251,qs),
(257,262,o),
(239,262,qs),
(221,262,o),
(191,241,o),
(170,208,o),
(157,173,o),
(157,156,qs),
(157,134,o),
(182,104,o),
(203,90,qs),
(243,63,o),
(343,20,o),
(454,-9,o),
(572,-25,o),
(630,-25,qs),
(734,-25,o),
(889,24,o),
(992,115,o),
(1043,240,o),
(1043,316,qs),
(1043,384,o)
);
}
);
userData = {
assembly = "PUSHW[ ]	/* 1 value pushed */
0 
CALL[ ]	/* CallFunction */
SVTCA[0]	/* SetFreedomAndProjectionVectorToAxis */
PUSHW[ ]	/* 1 value pushed */
0 
RCVT[ ]	/* ReadCVT */
IF[ ]	/* If */
PUSHW[ ]	/* 1 value pushed */
5 
MDAP[1]	/* MoveDirectAbsPt */
ELSE[ ]	/* Else */
PUSHW[ ]	/* 2 values pushed */
5 21 
MIAP[0]	/* MoveIndirectAbsPt */
EIF[ ]	/* EndIf */
PUSHW[ ]	/* 3 values pushed */
44 63 3 
CALL[ ]	/* CallFunction */
PUSHW[ ]	/* 1 value pushed */
5 
SRP0[ ]	/* SetRefPoint0 */
PUSHW[ ]	/* 1 value pushed */
23 
MDRP[11100]	/* MoveDirectRelPt */
NPUSHW[ ]	/* 27 values pushed */
7 23 23 23 39 23 55 23 71 23 87 23 103 23 119 23 135 23 151 23 167 23 183 23 199 23 13 
DELTAP1[ ]	/* DeltaExceptionP1 */
NPUSHW[ ]	/* 5 values pushed */
214 23 230 23 2 
DELTAP1[ ]	/* DeltaExceptionP1 */
SVTCA[1]	/* SetFreedomAndProjectionVectorToAxis */
PUSHW[ ]	/* 1 value pushed */
79 
MDAP[1]	/* MoveDirectAbsPt */
PUSHW[ ]	/* 1 value pushed */
26 
MDAP[1]	/* MoveDirectAbsPt */
NPUSHW[ ]	/* 5 values pushed */
218 26 234 26 2 
DELTAP1[ ]	/* DeltaExceptionP1 */
NPUSHW[ ]	/* 27 values pushed */
9 26 25 26 41 26 57 26 73 26 89 26 105 26 121 26 137 26 153 26 169 26 185 26 201 26 13 
DELTAP1[ ]	/* DeltaExceptionP1 */
PUSHW[ ]	/* 1 value pushed */
0 
MDRP[11100]	/* MoveDirectRelPt */
PUSHW[ ]	/* 1 value pushed */
79 
SRP0[ ]	/* SetRefPoint0 */
PUSHW[ ]	/* 1 value pushed */
39 
MDRP[10000]	/* MoveDirectRelPt */
PUSHW[ ]	/* 1 value pushed */
39 
MDAP[1]	/* MoveDirectAbsPt */
PUSHW[ ]	/* 1 value pushed */
13 
MDRP[10000]	/* MoveDirectRelPt */
PUSHW[ ]	/* 1 value pushed */
13 
MDAP[1]	/* MoveDirectAbsPt */
PUSHW[ ]	/* 1 value pushed */
39 
SRP0[ ]	/* SetRefPoint0 */
PUSHW[ ]	/* 1 value pushed */
66 
MDRP[11100]	/* MoveDirectRelPt */
NPUSHW[ ]	/* 27 values pushed */
6 66 22 66 38 66 54 66 70 66 86 66 102 66 118 66 134 66 150 66 166 66 182 66 198 66 13 
DELTAP1[ ]	/* DeltaExceptionP1 */
NPUSHW[ ]	/* 5 values pushed */
213 66 229 66 2 
DELTAP1[ ]	/* DeltaExceptionP1 */
IUP[0]	/* InterpolateUntPts */
IUP[1]	/* InterpolateUntPts */";
};
width = 1204;
}
);
note = s;
unicode = 115;
},
{
glyphname = germandbls;
lastChange = "2022-05-04 00:13:31 +0000";
layers = (
{
layerId = m01;
shapes = (
{
closed = 1;
nodes = (
(214,23,o),
(251,-12,o),
(300,-12,qs),
(302,-12,ls),
(351,-12,o),
(388,23,o),
(388,64,qs),
(388,1079,ls),
(388,1207,o),
(492,1354,o),
(599,1354,qs),
(695,1354,o),
(801,1231,o),
(801,1122,qs),
(801,1022,o),
(707,890,o),
(614,879,qs),
(573,875,o),
(540,838,o),
(540,797,qs),
(540,755,o),
(574,717,o),
(615,717,qs),
(669,717,o),
(758,677,o),
(822,602,o),
(857,493,o),
(857,424,qs),
(857,285,o),
(721,146,o),
(603,146,qs),
(560,146,o),
(527,105,o),
(527,58,qs),
(527,35,o),
(535,3,o),
(558,-16,o),
(599,-25,o),
(630,-25,qs),
(717,-25,o),
(865,35,o),
(973,147,o),
(1033,310,o),
(1033,412,qs),
(1033,564,o),
(907,764,o),
(800,813,q),
(799,813,l),
(802,813,l),
(885,865,o),
(978,1017,o),
(978,1131,qs),
(978,1211,o),
(930,1355,o),
(834,1462,o),
(692,1525,o),
(600,1525,qs),
(507,1525,o),
(364,1461,o),
(265,1347,o),
(214,1187,o),
(214,1092,qs),
(214,64,ls)
);
}
);
userData = {
assembly = "PUSHW[ ]	/* 1 value pushed */
0 
CALL[ ]	/* CallFunction */
SVTCA[0]	/* SetFreedomAndProjectionVectorToAxis */
PUSHW[ ]	/* 1 value pushed */
39 
MDAP[1]	/* MoveDirectAbsPt */
PUSHW[ ]	/* 1 value pushed */
0 
RCVT[ ]	/* ReadCVT */
IF[ ]	/* If */
PUSHW[ ]	/* 1 value pushed */
23 
MDAP[1]	/* MoveDirectAbsPt */
ELSE[ ]	/* Else */
PUSHW[ ]	/* 2 values pushed */
23 21 
MIAP[0]	/* MoveIndirectAbsPt */
EIF[ ]	/* EndIf */
PUSHW[ ]	/* 1 value pushed */
0 
RCVT[ ]	/* ReadCVT */
IF[ ]	/* If */
PUSHW[ ]	/* 1 value pushed */
58 
MDAP[1]	/* MoveDirectAbsPt */
ELSE[ ]	/* Else */
PUSHW[ ]	/* 2 values pushed */
58 21 
MIAP[0]	/* MoveIndirectAbsPt */
EIF[ ]	/* EndIf */
PUSHW[ ]	/* 3 values pushed */
5 51 3 
CALL[ ]	/* CallFunction */
PUSHW[ ]	/* 1 value pushed */
23 
SRP0[ ]	/* SetRefPoint0 */
PUSHW[ ]	/* 1 value pushed */
31 
MDRP[11100]	/* MoveDirectRelPt */
NPUSHW[ ]	/* 27 values pushed */
7 31 23 31 39 31 55 31 71 31 87 31 103 31 119 31 135 31 151 31 167 31 183 31 199 31 13 
DELTAP1[ ]	/* DeltaExceptionP1 */
NPUSHW[ ]	/* 5 values pushed */
214 31 230 31 2 
DELTAP1[ ]	/* DeltaExceptionP1 */
SVTCA[1]	/* SetFreedomAndProjectionVectorToAxis */
PUSHW[ ]	/* 3 values pushed */
54 0 3 
CALL[ ]	/* CallFunction */
PUSHW[ ]	/* 3 values pushed */
18 34 3 
CALL[ ]	/* CallFunction */
NPUSHW[ ]	/* 5 values pushed */
218 34 234 34 2 
DELTAP1[ ]	/* DeltaExceptionP1 */
NPUSHW[ ]	/* 27 values pushed */
9 34 25 34 41 34 57 34 73 34 89 34 105 34 121 34 137 34 153 34 169 34 185 34 201 34 13 
DELTAP1[ ]	/* DeltaExceptionP1 */
PUSHW[ ]	/* 3 values pushed */
10 34 18 
SRP1[ ]	/* SetRefPoint1 */
SRP2[ ]	/* SetRefPoint2 */
IP[ ]	/* InterpolatePts */
PUSHW[ ]	/* 1 value pushed */
10 
MDAP[1]	/* MoveDirectAbsPt */
PUSHW[ ]	/* 3 values pushed */
15 0 18 
SRP1[ ]	/* SetRefPoint1 */
SRP2[ ]	/* SetRefPoint2 */
IP[ ]	/* InterpolatePts */
PUSHW[ ]	/* 1 value pushed */
48 
MDRP[11100]	/* MoveDirectRelPt */
NPUSHW[ ]	/* 5 values pushed */
218 48 234 48 2 
DELTAP1[ ]	/* DeltaExceptionP1 */
NPUSHW[ ]	/* 27 values pushed */
9 48 25 48 41 48 57 48 73 48 89 48 105 48 121 48 137 48 153 48 169 48 185 48 201 48 13 
DELTAP1[ ]	/* DeltaExceptionP1 */
IUP[0]	/* InterpolateUntPts */
IUP[1]	/* InterpolateUntPts */";
};
width = 1204;
}
);
note = germandbls;
unicode = 223;
},
{
glyphname = t;
lastChange = "2022-05-04 00:13:31 +0000";
layers = (
{
layerId = m01;
shapes = (
{
closed = 1;
nodes = (
(361,362,o),
(365,285,o),
(382,193,o),
(420,100,o),
(492,23,o),
(603,-25,o),
(683,-25,qs),
(734,-25,o),
(823,-6,o),
(905,29,o),
(981,76,o),
(1015,103,qs),
(1035,118,o),
(1058,156,o),
(1057,185,qs),
(1057,200,o),
(1046,230,o),
(1026,255,o),
(999,270,o),
(983,270,qs),
(974,270,o),
(945,264,o),
(937,258,qs),
(904,234,o),
(846,191,o),
(789,161,o),
(728,144,o),
(695,144,qs),
(604,144,o),
(534,271,o),
(534,398,qs),
(534,1325,ls),
(534,1365,o),
(496,1400,o),
(447,1400,qs),
(398,1400,o),
(361,1365,o),
(361,1325,qs),
(361,383,ls)
);
},
{
closed = 1;
nodes = (
(132,1070,o),
(97,1032,o),
(97,987,qs),
(97,941,o),
(132,903,o),
(173,903,qs),
(929,903,ls),
(969,903,o),
(1004,941,o),
(1004,987,qs),
(1004,1032,o),
(969,1070,o),
(929,1070,qs),
(173,1070,ls)
);
}
);
userData = {
assembly = "PUSHW[ ]	/* 1 value pushed */
0 
CALL[ ]	/* CallFunction */
SVTCA[0]	/* SetFreedomAndProjectionVectorToAxis */
PUSHW[ ]	/* 1 value pushed */
3 
MDAP[1]	/* MoveDirectAbsPt */
PUSHW[ ]	/* 1 value pushed */
39 
MDAP[1]	/* MoveDirectAbsPt */
PUSHW[ ]	/* 1 value pushed */
0 
RCVT[ ]	/* ReadCVT */
IF[ ]	/* If */
PUSHW[ ]	/* 1 value pushed */
31 
MDAP[1]	/* MoveDirectAbsPt */
ELSE[ ]	/* Else */
PUSHW[ ]	/* 2 values pushed */
31 21 
MIAP[0]	/* MoveIndirectAbsPt */
EIF[ ]	/* EndIf */
PUSHW[ ]	/* 1 value pushed */
10 
MDRP[11100]	/* MoveDirectRelPt */
NPUSHW[ ]	/* 27 values pushed */
7 10 23 10 39 10 55 10 71 10 87 10 103 10 119 10 135 10 151 10 167 10 183 10 199 10 13 
DELTAP1[ ]	/* DeltaExceptionP1 */
NPUSHW[ ]	/* 5 values pushed */
214 10 230 10 2 
DELTAP1[ ]	/* DeltaExceptionP1 */
PUSHW[ ]	/* 1 value pushed */
39 
SRP0[ ]	/* SetRefPoint0 */
PUSHW[ ]	/* 1 value pushed */
45 
MDRP[11100]	/* MoveDirectRelPt */
SVTCA[1]	/* SetFreedomAndProjectionVectorToAxis */
PUSHW[ ]	/* 3 values pushed */
6 0 3 
CALL[ ]	/* CallFunction */
IUP[0]	/* InterpolateUntPts */
IUP[1]	/* InterpolateUntPts */";
};
width = 1204;
}
);
note = t;
unicode = 116;
},
{
glyphname = u;
lastChange = "2022-05-04 00:13:31 +0000";
layers = (
{
layerId = m01;
shapes = (
{
closed = 1;
nodes = (
(886,1081,o),
(849,1047,o),
(849,1006,qs),
(849,616,ls),
(849,518,o),
(787,345,o),
(689,219,o),
(564,146,o),
(500,146,qs),
(460,146,o),
(403,175,o),
(367,219,o),
(347,272,o),
(338,322,o),
(337,361,o),
(337,369,qs),
(337,1006,ls),
(337,1047,o),
(300,1081,o),
(251,1081,qs),
(249,1081,ls),
(200,1081,o),
(163,1047,o),
(163,1006,qs),
(163,352,ls),
(163,265,o),
(208,125,o),
(291,28,o),
(405,-25,o),
(476,-25,qs),
(591,-25,o),
(782,105,o),
(858,217,q),
(858,64,ls),
(858,23,o),
(893,-12,o),
(940,-12,qs),
(941,-12,ls),
(988,-12,o),
(1022,23,o),
(1022,64,qs),
(1022,1006,ls),
(1022,1047,o),
(985,1081,o),
(937,1081,qs),
(934,1081,ls)
);
}
);
userData = {
assembly = "PUSHW[ ]	/* 1 value pushed */
0 
CALL[ ]	/* CallFunction */
SVTCA[0]	/* SetFreedomAndProjectionVectorToAxis */
PUSHW[ ]	/* 1 value pushed */
0 
RCVT[ ]	/* ReadCVT */
IF[ ]	/* If */
PUSHW[ ]	/* 1 value pushed */
7 
MDAP[1]	/* MoveDirectAbsPt */
ELSE[ ]	/* Else */
PUSHW[ ]	/* 2 values pushed */
7 21 
MIAP[0]	/* MoveIndirectAbsPt */
EIF[ ]	/* EndIf */
PUSHW[ ]	/* 1 value pushed */
0 
RCVT[ ]	/* ReadCVT */
IF[ ]	/* If */
PUSHW[ ]	/* 1 value pushed */
15 
MDAP[1]	/* MoveDirectAbsPt */
ELSE[ ]	/* Else */
PUSHW[ ]	/* 2 values pushed */
15 21 
MIAP[0]	/* MoveIndirectAbsPt */
EIF[ ]	/* EndIf */
PUSHW[ ]	/* 1 value pushed */
36 
MDRP[11100]	/* MoveDirectRelPt */
NPUSHW[ ]	/* 27 values pushed */
7 36 23 36 39 36 55 36 71 36 87 36 103 36 119 36 135 36 151 36 167 36 183 36 199 36 13 
DELTAP1[ ]	/* DeltaExceptionP1 */
NPUSHW[ ]	/* 5 values pushed */
214 36 230 36 2 
DELTAP1[ ]	/* DeltaExceptionP1 */
SVTCA[1]	/* SetFreedomAndProjectionVectorToAxis */
PUSHW[ ]	/* 1 value pushed */
46 
MDAP[1]	/* MoveDirectAbsPt */
PUSHW[ ]	/* 1 value pushed */
42 
MDAP[1]	/* MoveDirectAbsPt */
PUSHW[ ]	/* 1 value pushed */
3 
MDRP[11100]	/* MoveDirectRelPt */
PUSHW[ ]	/* 1 value pushed */
42 
SRP0[ ]	/* SetRefPoint0 */
PUSHW[ ]	/* 1 value pushed */
11 
MDRP[10000]	/* MoveDirectRelPt */
PUSHW[ ]	/* 1 value pushed */
11 
MDAP[1]	/* MoveDirectAbsPt */
PUSHW[ ]	/* 3 values pushed */
12 42 3 
SRP1[ ]	/* SetRefPoint1 */
SRP2[ ]	/* SetRefPoint2 */
IP[ ]	/* InterpolatePts */
PUSHW[ ]	/* 1 value pushed */
46 
SRP0[ ]	/* SetRefPoint0 */
PUSHW[ ]	/* 1 value pushed */
20 
MDRP[10000]	/* MoveDirectRelPt */
PUSHW[ ]	/* 1 value pushed */
20 
MDAP[1]	/* MoveDirectAbsPt */
PUSHW[ ]	/* 1 value pushed */
29 
MDRP[11100]	/* MoveDirectRelPt */
IUP[0]	/* InterpolateUntPts */
IUP[1]	/* InterpolateUntPts */";
};
width = 1204;
}
);
note = u;
unicode = 117;
},
{
glyphname = uogonek;
lastChange = "2022-05-04 00:13:31 +0000";
layers = (
{
layerId = m01;
shapes = (
{
closed = 1;
nodes = (
(886,1081,o),
(849,1047,o),
(849,1006,qs),
(849,616,ls),
(849,518,o),
(787,346,o),
(689,219,o),
(564,146,o),
(500,146,qs),
(417,146,o),
(337,269,o),
(337,369,qs),
(337,1006,ls),
(337,1047,o),
(300,1081,o),
(251,1081,qs),
(249,1081,ls),
(200,1081,o),
(163,1047,o),
(163,1006,qs),
(163,352,ls),
(163,265,o),
(208,125,o),
(291,28,o),
(405,-25,o),
(476,-25,qs),
(591,-25,o),
(782,105,o),
(858,217,q),
(858,37,l),
(864,37,l),
(770,-51,o),
(659,-232,o),
(659,-330,qs),
(659,-376,o),
(687,-456,o),
(740,-514,o),
(821,-547,o),
(874,-547,qs),
(912,-547,o),
(1002,-530,o),
(1034,-516,qs),
(1056,-507,o),
(1077,-481,o),
(1077,-454,qs),
(1077,-441,o),
(1071,-413,o),
(1058,-391,o),
(1036,-376,o),
(1020,-376,qs),
(1017,-376,o),
(1014,-377,q),
(1011,-377,l),
(985,-383,o),
(926,-389,o),
(910,-389,qs),
(874,-389,o),
(836,-350,o),
(836,-300,qs),
(836,-267,o),
(855,-200,o),
(894,-126,o),
(958,-43,o),
(1003,5,q),
(1012,17,o),
(1022,44,o),
(1022,64,qs),
(1022,1006,ls),
(1022,1047,o),
(985,1081,o),
(937,1081,qs),
(934,1081,ls)
);
}
);
userData = {
assembly = "PUSHW[ ]	/* 1 value pushed */
0 
CALL[ ]	/* CallFunction */
SVTCA[0]	/* SetFreedomAndProjectionVectorToAxis */
PUSHW[ ]	/* 1 value pushed */
0 
RCVT[ ]	/* ReadCVT */
IF[ ]	/* If */
PUSHW[ ]	/* 1 value pushed */
45 
MDAP[1]	/* MoveDirectAbsPt */
ELSE[ ]	/* Else */
PUSHW[ ]	/* 2 values pushed */
45 21 
MIAP[0]	/* MoveIndirectAbsPt */
EIF[ ]	/* EndIf */
PUSHW[ ]	/* 3 values pushed */
15 32 3 
CALL[ ]	/* CallFunction */
PUSHW[ ]	/* 1 value pushed */
15 
SRP0[ ]	/* SetRefPoint0 */
PUSHW[ ]	/* 1 value pushed */
18 
MDRP[10000]	/* MoveDirectRelPt */
PUSHW[ ]	/* 1 value pushed */
18 
MDAP[1]	/* MoveDirectAbsPt */
PUSHW[ ]	/* 1 value pushed */
15 
SRP0[ ]	/* SetRefPoint0 */
PUSHW[ ]	/* 1 value pushed */
21 
MDRP[10000]	/* MoveDirectRelPt */
PUSHW[ ]	/* 1 value pushed */
21 
MDAP[1]	/* MoveDirectAbsPt */
PUSHW[ ]	/* 1 value pushed */
45 
SRP0[ ]	/* SetRefPoint0 */
PUSHW[ ]	/* 1 value pushed */
62 
MDRP[11100]	/* MoveDirectRelPt */
NPUSHW[ ]	/* 27 values pushed */
7 62 23 62 39 62 55 62 71 62 87 62 103 62 119 62 135 62 151 62 167 62 183 62 199 62 13 
DELTAP1[ ]	/* DeltaExceptionP1 */
NPUSHW[ ]	/* 5 values pushed */
214 62 230 62 2 
DELTAP1[ ]	/* DeltaExceptionP1 */
SVTCA[1]	/* SetFreedomAndProjectionVectorToAxis */
PUSHW[ ]	/* 3 values pushed */
59 50 3 
CALL[ ]	/* CallFunction */
PUSHW[ ]	/* 3 values pushed */
3 68 3 
CALL[ ]	/* CallFunction */
PUSHW[ ]	/* 1 value pushed */
68 
SRP0[ ]	/* SetRefPoint0 */
PUSHW[ ]	/* 1 value pushed */
12 
MDRP[10000]	/* MoveDirectRelPt */
PUSHW[ ]	/* 1 value pushed */
12 
MDAP[1]	/* MoveDirectAbsPt */
PUSHW[ ]	/* 1 value pushed */
68 
SRP0[ ]	/* SetRefPoint0 */
PUSHW[ ]	/* 1 value pushed */
37 
MDRP[11100]	/* MoveDirectRelPt */
PUSHW[ ]	/* 1 value pushed */
68 
SRP0[ ]	/* SetRefPoint0 */
PUSHW[ ]	/* 1 value pushed */
41 
MDRP[10000]	/* MoveDirectRelPt */
PUSHW[ ]	/* 1 value pushed */
41 
MDAP[1]	/* MoveDirectAbsPt */
PUSHW[ ]	/* 3 values pushed */
42 68 3 
SRP1[ ]	/* SetRefPoint1 */
SRP2[ ]	/* SetRefPoint2 */
IP[ ]	/* InterpolatePts */
IUP[0]	/* InterpolateUntPts */
IUP[1]	/* InterpolateUntPts */";
};
width = 1204;
}
);
note = uogonek;
unicode = 371;
},
{
glyphname = v;
lastChange = "2022-05-04 00:13:31 +0000";
layers = (
{
layerId = m01;
shapes = (
{
closed = 1;
nodes = (
(795,695,o),
(706,463,o),
(628,261,o),
(602,193,q),
(276,1035,ls),
(257,1084,o),
(218,1084,qs),
(203,1084,o),
(163,1072,o),
(129,1051,o),
(104,1022,o),
(104,1005,qs),
(104,989,o),
(115,965,qs),
(475,46,ls),
(490,9,o),
(545,-25,o),
(602,-25,qs),
(658,-25,o),
(713,9,o),
(728,46,qs),
(769,151,o),
(858,377,o),
(951,614,o),
(1043,851,o),
(1088,965,qs),
(1094,977,o),
(1099,997,o),
(1099,1003,qs),
(1099,1021,o),
(1075,1051,o),
(1039,1072,o),
(999,1084,o),
(985,1084,qs),
(963,1084,o),
(937,1057,o),
(927,1034,qs),
(888,932,o)
);
}
);
userData = {
assembly = "PUSHW[ ]	/* 1 value pushed */
0 
CALL[ ]	/* CallFunction */
SVTCA[0]	/* SetFreedomAndProjectionVectorToAxis */
PUSHW[ ]	/* 1 value pushed */
0 
RCVT[ ]	/* ReadCVT */
IF[ ]	/* If */
PUSHW[ ]	/* 1 value pushed */
19 
MDAP[1]	/* MoveDirectAbsPt */
ELSE[ ]	/* Else */
PUSHW[ ]	/* 2 values pushed */
19 21 
MIAP[0]	/* MoveIndirectAbsPt */
EIF[ ]	/* EndIf */
IUP[0]	/* InterpolateUntPts */
IUP[1]	/* InterpolateUntPts */";
};
width = 1204;
}
);
note = v;
unicode = 118;
},
{
glyphname = w;
lastChange = "2022-05-04 00:13:31 +0000";
layers = (
{
layerId = m01;
shapes = (
{
closed = 1;
nodes = (
(951,801,o),
(918,638,o),
(877,432,o),
(848,289,q),
(687,860,ls),
(681,883,o),
(643,915,o),
(602,915,qs),
(562,915,o),
(523,883,o),
(516,860,qs),
(505,819,o),
(463,672,o),
(417,505,o),
(372,344,o),
(357,289,q),
(210,1022,ls),
(203,1055,o),
(174,1081,o),
(144,1081,qs),
(130,1081,o),
(94,1076,o),
(61,1061,o),
(39,1036,o),
(39,1017,qs),
(39,1011,o),
(42,996,o),
(43,987,qs),
(43,983,l),
(240,50,ls),
(249,10,o),
(286,-25,o),
(335,-25,qs),
(383,-25,o),
(434,9,o),
(446,50,qs),
(460,103,o),
(499,240,o),
(534,365,o),
(560,455,o),
(562,462,q),
(564,468,o),
(572,497,o),
(584,537,o),
(596,582,o),
(602,603,q),
(757,50,ls),
(769,9,o),
(822,-25,o),
(870,-25,qs),
(917,-25,o),
(956,12,o),
(965,52,qs),
(985,149,o),
(1019,309,o),
(1048,450,o),
(1076,584,o),
(1106,726,o),
(1141,886,o),
(1161,984,q),
(1161,988,o),
(1163,995,o),
(1163,997,qs),
(1164,1003,o),
(1164,1012,o),
(1164,1017,qs),
(1164,1040,o),
(1132,1069,o),
(1095,1077,qs),
(1078,1081,o),
(1061,1081,qs),
(1029,1081,o),
(1002,1054,o),
(995,1021,qs),
(980,944,o)
);
}
);
userData = {
assembly = "PUSHW[ ]	/* 1 value pushed */
0 
CALL[ ]	/* CallFunction */
SVTCA[0]	/* SetFreedomAndProjectionVectorToAxis */
PUSHW[ ]	/* 1 value pushed */
0 
RCVT[ ]	/* ReadCVT */
IF[ ]	/* If */
PUSHW[ ]	/* 1 value pushed */
24 
MDAP[1]	/* MoveDirectAbsPt */
ELSE[ ]	/* Else */
PUSHW[ ]	/* 2 values pushed */
24 21 
MIAP[0]	/* MoveIndirectAbsPt */
EIF[ ]	/* EndIf */
PUSHW[ ]	/* 1 value pushed */
0 
RCVT[ ]	/* ReadCVT */
IF[ ]	/* If */
PUSHW[ ]	/* 1 value pushed */
41 
MDAP[1]	/* MoveDirectAbsPt */
ELSE[ ]	/* Else */
PUSHW[ ]	/* 2 values pushed */
41 21 
MIAP[0]	/* MoveIndirectAbsPt */
EIF[ ]	/* EndIf */
IUP[0]	/* InterpolateUntPts */
IUP[1]	/* InterpolateUntPts */";
};
width = 1204;
}
);
note = w;
unicode = 119;
},
